<mxfile host="app.diagrams.net" modified="2022-12-27T02:54:17.683Z" agent="5.0 (Windows NT 10.0; Win64; x64) AppleWebKit/537.36 (KHTML, like Gecko) Chrome/108.0.0.0 Safari/537.36" etag="mnye3kU3AHYCSr4ZVaDx" version="20.7.4" type="github">
  <diagram id="bxqU_q8ERJBkpzVO1kcf" name="第 1 页">
    <mxGraphModel dx="2571" dy="899" grid="1" gridSize="10" guides="1" tooltips="1" connect="1" arrows="1" fold="1" page="1" pageScale="1" pageWidth="827" pageHeight="1169" math="1" shadow="0">
      <root>
        <mxCell id="0" />
        <mxCell id="1" parent="0" />
        <mxCell id="_tb46yyC1JFq1tzhXoEu-1" value="" style="shape=image;imageAspect=0;aspect=fixed;verticalLabelPosition=bottom;verticalAlign=top;image=https://fastly.jsdelivr.net/gh/5huanghuai/Image@main/image/1667302970100PDE%E7%BB%93%E6%9E%84.png;" parent="1" vertex="1">
          <mxGeometry x="170" y="90" width="1061.23" height="700" as="geometry" />
        </mxCell>
        <mxCell id="_tb46yyC1JFq1tzhXoEu-2" value="" style="rounded=0;whiteSpace=wrap;html=1;fillColor=none;strokeWidth=7;strokeColor=#B20000;fontColor=#ffffff;" parent="1" vertex="1">
          <mxGeometry x="220" y="290" width="310" height="180" as="geometry" />
        </mxCell>
        <mxCell id="_tb46yyC1JFq1tzhXoEu-3" value="" style="rounded=0;whiteSpace=wrap;html=1;fillColor=none;strokeWidth=7;strokeColor=#314354;fontColor=#ffffff;" parent="1" vertex="1">
          <mxGeometry x="220" y="480" width="310" height="180" as="geometry" />
        </mxCell>
        <mxCell id="_tb46yyC1JFq1tzhXoEu-4" style="edgeStyle=orthogonalEdgeStyle;rounded=0;orthogonalLoop=1;jettySize=auto;html=1;exitX=0;exitY=0.25;exitDx=0;exitDy=0;entryX=-0.012;entryY=0.395;entryDx=0;entryDy=0;entryPerimeter=0;" parent="1" source="_tb46yyC1JFq1tzhXoEu-3" target="_tb46yyC1JFq1tzhXoEu-3" edge="1">
          <mxGeometry relative="1" as="geometry" />
        </mxCell>
        <mxCell id="_tb46yyC1JFq1tzhXoEu-6" style="edgeStyle=orthogonalEdgeStyle;rounded=0;orthogonalLoop=1;jettySize=auto;html=1;exitX=0.25;exitY=1;exitDx=0;exitDy=0;entryX=0.196;entryY=1.008;entryDx=0;entryDy=0;entryPerimeter=0;" parent="1" source="_tb46yyC1JFq1tzhXoEu-3" target="_tb46yyC1JFq1tzhXoEu-3" edge="1">
          <mxGeometry relative="1" as="geometry" />
        </mxCell>
        <mxCell id="_tb46yyC1JFq1tzhXoEu-7" value="" style="rounded=0;whiteSpace=wrap;html=1;fillColor=none;strokeWidth=7;strokeColor=#B09500;fontColor=#000000;" parent="1" vertex="1">
          <mxGeometry x="540" y="90" width="670" height="550" as="geometry" />
        </mxCell>
        <mxCell id="Wc0Y2Pf6DfmbAU4G7aRj-1" value="" style="shape=image;imageAspect=0;aspect=fixed;verticalLabelPosition=bottom;verticalAlign=top;image=https://fastly.jsdelivr.net/gh/5huanghuai/Image@main/image/1672108134632PINN-STRUCTURE.png;" vertex="1" parent="1">
          <mxGeometry x="202" y="1390" width="625" height="250" as="geometry" />
        </mxCell>
        <mxCell id="Wc0Y2Pf6DfmbAU4G7aRj-4" value="" style="endArrow=classic;html=1;rounded=0;jumpSize=11;endSize=6;startSize=13;strokeWidth=4;" edge="1" parent="1">
          <mxGeometry width="50" height="50" relative="1" as="geometry">
            <mxPoint x="374.6" y="1510" as="sourcePoint" />
            <mxPoint x="375" y="1380" as="targetPoint" />
          </mxGeometry>
        </mxCell>
        <mxCell id="Wc0Y2Pf6DfmbAU4G7aRj-7" value="" style="endArrow=classic;html=1;rounded=0;jumpSize=11;endSize=6;startSize=13;strokeWidth=4;" edge="1" parent="1">
          <mxGeometry width="50" height="50" relative="1" as="geometry">
            <mxPoint x="121.99999999999991" y="1544.76" as="sourcePoint" />
            <mxPoint x="202" y="1544.76" as="targetPoint" />
          </mxGeometry>
        </mxCell>
        <mxCell id="Wc0Y2Pf6DfmbAU4G7aRj-9" value="" style="shape=cube;whiteSpace=wrap;html=1;boundedLbl=1;backgroundOutline=1;darkOpacity=0.05;darkOpacity2=0.1;size=20;" vertex="1" parent="1">
          <mxGeometry x="-130" y="1430" width="120" height="80" as="geometry" />
        </mxCell>
        <mxCell id="Wc0Y2Pf6DfmbAU4G7aRj-17" value="" style="shape=image;verticalLabelPosition=bottom;labelBackgroundColor=default;verticalAlign=top;aspect=fixed;imageAspect=0;image=data:image/png,iVBORw0KGgoAAAANSUhEUgAAAmIAAAEkCAIAAAAD3cpdAAAgAElEQVR4nOy92ZMct5U++h0AudTaG7vZzeYuUbRsy9vYY0dMzNx5mbjzN/tlYn6+d66X8Yxki7KphRRFkeLazd5qywTOfTgJFGrrjSzJkusEQ8pGIZFIJIAPZydmxoIWtKAFLWhBC5pG6pvuwIIWtKAFLWhBf7u0gMkFLWhBC1rQgmaSOesNQUhLRHGhc448xdViCrfEv47Vj5s9DTnnmHnqo4loVrNj3Zv661l7sqAFLWhBC/ru0dlgkpknEQ6AtbYoCq11kiShpnNO6sR4I9AV2jkGOE9J1tqyLI0xxpjwXGZWSsmvAOQ6Jqkjzxr7NX7HBVIuaEELWtDfOZ2Zmww0CXXwaDeGppN3vRG7ofCsY36dvJ5kHAUyhSXVWmPBTS5oQQta0II80VkRSxAl5sYEWoR3DBWES4vZMkEda62weqHk3ELX0IfQfmhqkiMMJfLo0Igwo9Zaa22SJFmWEZG8y1jNBS1oQQta0N8hnUfoOsaoWWuD6JIjgoeogGECn4hQc5Zs9vQUWo7bGYPeuM8B5gForSmiuM1z9GRBC1rQghb03aOzcZPOubIsBRQFWsqyLMtStJIBroSEawxQNNmatVZqAtBaK6XOysCFzgtHKB0TwgTjKz0R9lE0qXmey+OkG0RkjAmGPwuwXNCCFrSgBZ1ZNznGDk5KOwNnKcAjd42xjJNM5FS7nuMprj/Zzhj/ikgsHPA4VBMEHetnfO+CFrSgBS3o75POo5vENMMZwZXA0sU8WVmWzrnAWTJzWZbMLBwkItQ8hvWcpMAChkaEPQ0PivvpnOv3+wDSNA315SfRrcJzt/BayYVuckELWtCCFnRm3SQmbFzHWEn5syiKwWAg4s3BYGCtTdM0y7I8z8VpRCxlYm3l679MjNBBuDoYDKQnAJIkabfbaZoGwJaeT2pMFwC5oAUtaEELwjmErrGNKzy0BBVj4MC63e7+/v7R0VGn0+n1etbaWq3WarXW1taWlpakmug15S5jTGz+ekqalPcGeelgMOh0OoeHh/v7+3t7e0VR1Gq15eXlwGhOMosijHXOiTnuWUdmQQta0IIW9N2jM3OTkwal4sIfCvf391+9evXZZ5/dv39/d3d3b28viFhrtdrq6urGxsbly5c3NzeXlpZqtZrcdQ6MFDwTya1cizT18PDw5cuX9+/ff/z48cHBgfRnMBhkWdZqtVZWVjY2NrY8iRWP3B5MeBbi1gUtaEELWpDQeWAy2LwQkXgcxtDy4sWLTz755De/+c1vf/vbp0+f7uzswItYATSbzStXrvzLv/zLL3/5yx/+8IfNZjMA5FmRSUL/AFBKiYg1SRLn3PPnz+/cufMf//EfH3zwQafTOTo62tvb6/f7RJRlWaPRuHHjxs9+9rNf/vKX7XZbYNJa2+/3jTHyXqKtXCDlgha0oAUt6GwwKRAimr8AmQHnnj9//uTJk48++ujDDz/861//uru7u7Kycv369dXV1Waz2el09vb2Hj16tLOz8z//8z+9Xq/T6Xz/+9/f2tpqtVqh/dN3RnoSQs2VZbm7u/vixYs//elPH3zwwZ07d3Z3d9fX169du9ZoNJRSRVHs7++/ePFif3///fffF3S/devW9vZ2mqYi9YUPOKC1Fs7yTOOzoAUtaEEL+o7R2WBSEDFYx5RlmaZpEJw+evTo97///fvvv//BBx/0ej2l1I9//ONf/epXt2/f3tzcfPXq1b17937961///ve/v3PnzsOHDzudTlEU0kIIBnt60loHI1UARVE8fvz4ww8//M1vfvP+++/v7++32+0f/OAHv/jFL959992lpaWDg4OPP/74v/7rv+7cuXP37t3d3d2jo6PDw8N6vb6+vi7xd6SdXq+XZZkEiV3Qgha0oAX9PdM5dZOCTwGojo6ODg4O/vrXv/7ud7+7f//+y5cvb968efv27Z///Oc/+tGP1tbWWq2WYOH+/j4R/fd///fLly/v3LmTJEmz2dRar6+v1+v1M3UmNt4RRvDLL7/885///Pnnn/d6ve9973s/+MEPfvazn7377rtbW1v1en11dVViIGRZ1u/3u93u3bt3l5eXt7e3tdYbGxuCi1rrLMtiAF7Qgha0oAX93dLZYDJE4QkZOYQODg4ePnz40Ucf/e53vzs4OGDmGzdu/Pu///utW7cuX74s/hj1ev3q1avGmHq9/vz586dPn969e7ff76+vry8tLTWbTeFKT98ZMUYNXiXOuS+//PLDDz98+PBhlmW/+MUv/u3f/u3mzZtra2sCorVaLc/z1dXVLMueP3/+0Ucf3b9/v9VqvfXWW0tLS6urq8YYMTUScetC4rqgBS1oQQs6s24yTjsVXA9fvnz58ccfP3jw4MWLF1mWra6ubm9vX716dWVlRcxq4EMHCPf29ttvf/XVV8J33rt378qVK9vb2+12+0z4JE9XSpVl+fz583v37n322WdPnjxJkmRzc3Nra2t9fb3RaAj4Sf00Tdvt9sbGxvXr1589e/b06dP79+//53/+p9b6ypUrIXZd4FAnexI7ioRfmcEuFIIAhFoE+ChAYFuVQIFV+CGqUwCFvzMBDEDguLkpw3CasTqZvo1Hgr8Hn50TvsusITjr0Mx6zNTy+c/GedOZZw4DPFzIw/vDNTFrZg0QwCAGSXkJ9ICCokcSABggBTRAYAVo8Hiyv+iJDHKA8z0nIOweNNwiYh824mpXYa5urEhBdi1GvO8M+/Wto9Dr8+0GPDJy1Y4uJQQokALOAZOxu2Rwz9/Z2bl79+7Dhw9fvXq1vb198eLF7e3t7e3ter0ee1kopVqt1ubm5q1btx49evT48eNXr149ePDgwYMHP/jBDyTO6ln9JgE458R06NNPP3369OnW1tb29rYwqWmaxvWFl11fX79x48aDBw/+/Oc/379/f2dnZ21t7V//9V+Xl5fFt6QsS+ntWJoRTERR8CVwFmAoDYCqtcPRfCaALfMAJPBu4PyqiLKQAQWoU93J9eHXmYmUbw4jv6WQ8y3t9inp5O/C06bA2M441uKs8omfOPw0Vjr1oQB/jfvs+R7Fp7ie/iwGOV/Ngkr/m5WhZlbOpVydfRnKAg4EoA+8InQYDmEnAIAMWCKkAAF+N+CoM9VDA9pZoPA7g67wlQiswAATGOxP66QAFSaAA3uIBQEakGcRoD0+EE7cdceG6G8KUieR8pQHOcFIVzE5BH/qkIEkkKlKzmylMsZNii3P/v7+s2fPOp2OUmp1dfXGjRsXLlyQYDfwYc0FWowxtVptfX19Y2OjVqvt7e3t7+/v7u4eHBz0er0QSe70NBgM9vf3P/nkkz/84Q9ffvmltXZpaenixYsrKyu1Wi24dsQxY5MkWVpaEm+Qg4MD8bP86quv6vV6u92e6jcZx+UZC2Xgh6UaEghzaWEtACbNpORUAQaDmUBczWuMTzdicDiHhiPN6IFnCk1uZMdX+K7QdxsjTyau2IUJkUf035PbmInGxzUw8dDhM+c/2cifQc9Ek6NyeqSMaxCDMVyk0a8BdOLnEZjhJg4uUs6Q2zi6b0jkTy8j7fr/j/5JIEE+AHAg8j2c+LyhlxwN4mkmSywh+9tZep7/q/4FmsVWxDOHAFT84khJGG9/ejwnNxmoLMt+vy+OFp1OxxiztrZ248aNtbW1AJNjlOf5hQsXBCbLsjw4OHj16tXBwUG/37fWnsm+lJmLohAT1j/84Q+PHj1i5na7ffHixeXlZYHJWI4qd6Vp2mq1xKoIQLfb3d3dffTo0fLycp7nAtUxKGKCm4xTjkgxVHUkYwdmWIuiAADFrBSUApEXxTgWPjwaxwgXp255J7IUE+MS/XFOsd23gmievf+bGpk49/nwQibMlI6eoe88PI2drg1imvorH3PbaTHtVP2e0d+Tm2FBnokqxz81yHLCjkwc3SIrlOLPMtnZaa2GfZ3hPyPR+CY+JKLhs8aP15jgCEdBgzyWDjs5JqQdbfD4ucDD6qf5XnM9N01nH2bIO4YzJx7keOS8FJDUECNxjmB1GIWKwWAg3NiXX3756tUrZl5eXr5+/fry8vIs8WmSJKurq+vr63meF0Wxu7v7/PnznZ2dw8PDpaWl8/UnsLP1el1C7WRZFlKUjHF+WZatrKysrq622+0sy3q93uHh4bNnz0RcnKZpqDwZdWgsqrs0SOQcDxiWQKQMIdGkoAlwpAZETAQiCyr8B9QUH+UoLF6RhXP09QjMo6tnkiYO9meaxbAg961kOMf3le8e8dRdfaQCpg6Amj0sExvicRUnf+Nqa5rkJt/MmWVsrz9FrSk0gzkmPRyveGeMWpvRsKp4u6p2YEAqNCICKa3YoxHUUATNy0Aj5jAJYOihbjLoCzEptw4NGkD596q28KHEdIzdrHqofJMuGo8IE0b253gHmDgETFA0AeJGZpwH5nvg5GFPwm5QHTxkBsfnFxfVj08JMqfZsXPOEUvgUgOSYT8vTIbIrhI6dWdn56uvvtrb23POLS8vX716dWlpKcAJIkQBYIxZWVm5cOFCnudlWe7t7b18+fLVq1eHh4cS4vUc/RGoHgwGzWaz2WyurKykaSphEOSJcQfSNF1eXl5dXW21WlJNYFLi6iEK9xqSkIRXmOSnK9Uk94C+glKUkSZSiTHwagx5KQvYatKwZsoiMU7cHA2LThtX9tjdhI+tAAYs4zzD/s0T0bF48Lr0TXOTp95fxmspv//OiXh0J40K3wDF557ZbZ4sX5msIc1OyLdOOU4VvzijEWlpyLRp30kDzscYTR6eNSqoIvLrfgSzKRpnFT202la5WtouPDrs/+wNgogADpt8LHvg6FgTGyXxKJAcJyLwnaRp14EmBc5vkJiHQ0RDzWuFl3KuCZw++00Y4SOEnjPgWIKWlmAkKiGVeqk3ndlvMpZeOueKouh2u51Op9PpDAYDZhZXSGNMMIQJkeoCJUmS57nYy0gLBwcH3W53rNppOoMIwLTWkock5IiOFY0BtrXW9Xq92WzW63WJKiCy38FgEHJ7AUNx6zHGt9L/ouxZ7jJ6BFJkFSmC6CAHDkfMBTtmlIzSOcvMCmWiDVUKYgcKb90F9UAMiB3QcNqdf887aUNhGjAV306WjMCK5tP1KQzT103nBh4NNicdIM7dOIPsjI3vTeyGRH5veh3cnQ6THIxfjnn+LEOk2QZKfjtUETfjt2mOVjGP3DLcoUfkfo7EbKdCUhfqkFcE8ZBckNwSEfkvzg5+HyVFpIbbV1WfxfyVAr5OwKQfi7jTUYfHOMiTYXJOK4ljUOcIJkHR5hlg0lUmVwTh9apvQ+S44ohsWZZFabQhpbQZvs55MoTE1wJyQoPBQHJ9CExKNDhEeCbXRJQkSbDWKYqi3+8fHR11u12JgXd6Y1dhakPjApNC5NOAjNkEhSDs9Xq9Xq9LzaIoJJPJGCLSKI09Xbjqfr9/1Dno9nYG9ghgQmbQVpQRkcPAugPr+s4xo3BcOlda6xK1nCfWw6QFWf+8GCYbcLWh3OB8Eq2TN3tm9OcJk3NlyWjEr2YOzX+jFG9YkYzhZFJgM+5xdEzjZyMH2Bmz8Q0wlDTkA944TAKs+fjTQ6W8jPd93x7UFBYastN6WSj5xllXxxSWaw+Z4SYe2u0QIBatkkiCKg0IA47hKgm3Iq0FJ5nZObbsnHOOPcIRKSJxM4NzcA7MikBKKV0BLAGWYX2b1n/HyNhnZNyYCPGH5pHZNBUpp8MkzZWbHPaQ/LAjgslYaVzBpNjsOGfBVbBV55x1zpa2LEtblFmWra6utdo6TROtNZ3V0nVMiEpEEn88JAmBh5bAR2KU7QtMXvhTzHwGg4GY8JypP0QkBjiCcFKotU6SJEmSkJwrtk0VmBcoDXWKojg6OhoMBuHVQvuCsqGR+B3FfGlvb+/zB/d+94f/59N7fx0MSrAmzgiaSIFK6/rMlqvjowTCZYW2xjqRoSAEqRZGD9TzH7cOrgEKsEAX1D/LuKBaf0NxxCxifhO722xy82wc3yGYPOlhHG9Gs+rH4spQxlMKxz76yP42tX7UDVZTrEjGT3KT93rB15QHxUQ09S3OTFM6wCeq4cNaBCp3xgr2FNhwBXUxS0qea7dQveqMywouAZtKDMg5kFSaxcAtoAB1AQsCyBGV1ejR8GDLI+Os/JYCoGSU7BzgGKWwR0ThbAR2il0qXtdEikhTBR4laMBswQwqQIPK4YQNOPEA46IvxVR9L+bR7xthzzGcJXyDZ9vVz0g08S0m2YMgpLaAU4pIwdmS2WlNSpFz1rF1zolycmmpfe3atXff/cFPfvwPFy9ua63PGbY0wIZzTrIu86giLZZ2Bm998UQcY8uksN/v9/t9Pq02rnoEgE6ns7u72+/3EeGuRNIRCWoww6kGjFnqCEcrIG2tFW44rhaeEuspQ4koPvv9/uHh4cOHD//z//yf//f/+03naOAsAKUgGVRguZSPxACDnXOuZLg23EoVPQDwX5eBPtDzDGQdEJgsgD3Q0VkYShrZbY4hli1gfqqsIOWYA1WLYZ5o9jUg5QlvIcueRoWos+pXTANQekn+dFXTOEwqeEPKiQpjz3EaNvUYMPYasx40WefEk9k8xl2QrDhuHY10VnnDGYIz4NR7HBoPe4ggs4B+Bb0HsmAFm8NJ/QTcBHJvgBNAqAe1DxoAAJVQff+9og/tDJx/kPMPVSBVggZg4dJKkGCtgku4cqM04Bo4rVhnDuY/BdCtLCRoANUDWYDgMrg6oKseDn1dXBBRgtwpvp2fliOn87nCJEXGSpMdGCV2YAtipZXAJLgUJZuDBQ/tM9bXL/zwvXd7/eLq1bc2Ni7hdcILSElZlgKT4acAS1NTSMbV4OG20vAVxZl0k0L9fl/UivK4MQ4yfsqYrlHi7YlTh7VWIuqNAWr8ppPX4SiQJGZ5uXlxY6XT7YK1Qk2rTGsNspb78gEKa/uDotvpHx30rONpW4kvDCfO+B+fiefjMSHPsXXp1LZCZyWumIz58ZNzlunOt/1Ap3rKmb5+YFxmQePodHKINseozuS341ni0MmpO9lt54f0xMk8j3F3J7c6zg+Hfp5mAfqzqdSiWNBK0WQaPevQxHOr0wkNG6lM1RQpo4zSWittSIHgQJaUI0UExU47S9Y6thpcY5c4Fj2lgkMUaWbsleN9JpT4d68mgLgehQE8JniFb30oi56rCY880Y3+OYsqntILvBkQW1QwXPwFSJl6vdlsNhPvnfi6STACNxkgJHBdAa5owuQ15hoFJq2158BIZhbVZkiqnCSJiEkDTMbAzFFYAKVUMNiRyDuxyHfMPggea+OnSwvGmGajeXl7e//w7X6vCyRGLRlVU1qDCus6jAJAp9vf2zt6/mx30HvhyhTIPDdJ/kDKgPIHcgJqnptMCCWgJsDsmEV7psN4CPUxD7LgOXKTNMeez+3wMIUmRVVjf6pIGkkztoNQGJ/fj0GvcUyYUmfCkZdZeV5qGjc5/TqQG60wbXxneby9ga/smA2ON+qO2aAhNykcZOZtTRNCFnGTsopLIAFngAUUkAPCTRqggaq+87buYKoBCSDiqwI88M8Okl4CUlBK0AApbZRKjUlNqk0KbZxWIAVSVilWigDlnLYliqK0pXJl7qyx1rmSy5JdFWmmYHQASwCjD+4CZcV9whAUg4MqUa6r+JoV1EXyiZkU83PVbCSaIzfJI5KwaF3EImJvRiyqXJElgzWzYgYRc/V1pN+sVVqvtev1tjGJbP/nh8nASzlPQaAa3EUC0sRxBsb4TuHhaDRa7On7IEaz4vIRMpYI5gXwnuQCJ5Wmcm9ccxLgJcNlqCAWQ+12+9q16/+X+b/fe++npbVAYlSbKCPA8cByz3HB7J4/f/Xgiycf3fnrwcGfXZEzXwInADEMI/Fftw8agITDq0W6yT5NWd4c/Xd8YKbtjFOJGXO1dI0MlOZA4pI6j5Y5XulfB40iZfXssOw1Db3raHqdYXfHLF1jxIqBKlzEnuZuZF5RDLFClmF5KNENHefxB42XT1SYNjNnH9ko+u8xNLMCAw46NoCcvJERjMIIMIQU0AQCpUAuAEbIwLWqvAq8rABHrgCXlW6Sk+owwQQkXCGfZRSij2T0mY8EJlmsaaruZOAc0ESKqEbcIBilVC01jVqS53mWJ2mOJGWtSWlSypJ2ShFYuTIpChRF2e9xr2P6fVUUZQE7sK6Esygd+kBHhFuMHnDIXDAs4YjUHqH038V6RCkZFlxdgyp/NiIxEJ09/oxo+s1V6Koij9KxY1/4088crqxbtVKkYLnneCDbh+MBV7EALVASlrS5YMwKKYkmeHaYjLmrSfeJYTcjg5f4rkm2UkiMbs6BlEmShHSVQWsYYDs2F4rvEv41qFSFLwxB9cZ6GFqefIXg/bJ2Yd1W3LBR1ACMtey4cOgzW+fswy+fNZv3dnfsX//ysEMZY50oA8hxysiEm2QMUCEWgYWbFMx0NMUg/RgIjD/G8TBpHR0xdU+qdl6iOADmm25bwjbMqXWcQW79Jh85lMUN4+OLFQaNwKTI9/yezlVFAOAEEGZlbGzcDJgUi8pQJ6igQi0/0wjAgKlD1Z6CadsTAI7ORhFMjhgTTZfFKcxSHZ5GbHB8HUXIGCk47Ko8emMQ7cgulAA1CtCIemUUgxqhLuwXkFDQU3r48Hu3wXAc5aJkDGQ5OPQZHaAAY1ScWwO3QCmRUtxQaBMSo1Q9NcuNtFHPa7Usr1OawxjSWiltlWZSYFZlYYo++v2im7oOma7iHhV9LlVh+1QCBaHncASUBDA6zPuMAVCCnit6BHQ8TliAwY4lEwMxVQBfVjAJpukfKXBysQm6I5qfHZ/iEeOjaHpHFrAVN0kMdgQoaAVmiAufIoJCj7nPsOCS0VfUMHrJ6DZRFRL8tWBS0EXgLUgyw/WYY34MnLEdLADx0BBPyrN2JsuyRqOhtRabW0kW7ZwT15SQRxoRHymayF6vJ/pIeL5QWNIg+w2IS6P2rqGCvIXYAVl2/u0ISJylogCglEmIHBMfHvXa7VaWplyWrtTR2ojOEzR22ph1jePLI4XSydyk43kau7KrGIR5tM2spphcvqHGAcdfJzc52YNg0wGwmumDMfzUdNKEmQppGImaJjA5zkFyhZ2VFmeq/C1u2UXS2miLjOMVT+UmGY5n+Se+PkwK13yM5JAjQxsZTGbZ86vQbuPmh7L7xsLwMcF4NIPkZFOdb4IIZMJokSrfDtKKtIJWpLVWJkmSJM2yLMuyPFNZDcaQNqS0I8VEYEcFKWIwsy3Z5oaZAMWOyoSsFSWcUsMhIgaRX5w8oqEUrss7WVZfyvlPxo5PgknEoRjmCpPgkJvpRJiEzEB4PXPlhCMia2bNIOeYHYFIK+09cM7FTY6ZgMbeFyK0nNTzhRuDGNNaW5Yle/f/NE3zPM+ybNLHMVYQTjJ2GI1UIM0OBgOxWRUYCxLgGCb7/X6v1+v3+yF9ZpyKmUdzgMwaBKkmpkBBbkVMjmEtlAJIJ2nlTFWv12u1emISdmwtEytxCGFOUCUKGAVMJJ4hkEk22ZmAyvGf8M4nI4UT19GrQDO/rop6NlFkh/amSSLJzwfK5uzIMotiIaoKkisijUpgOFoHETc5FC7pYfmUxoVGZT+n6Zpf9wxzLCuJ0Q3LjVTmwGJNhclgWzFJY68z9aPT7J8wOibTRsZbyviahmEIhkFULUbDFaeYAAYkwlWvv4QGtD8djMQxYBEVQTO0l0oyYKORDFQDclCqdGJ0blRudJomqlbTec2kuUprKq3pNCdjoDUprUkxAGvhmJRlVWqdsEm1sWSs04lW2kErWCImrt6OJY0Ii8SCDSPzH8UCJbOcEgd+/wknNvYHyFlThvwLR0JXtnM7KCs/1BjXnoaDWgj1AAY0GOy0AzMnYMckuTHkdChCO125wNIwdMmZ/SaDeQ77kHVJkmRZVq/XBR0Hg8HBwcHq6mqsbpRrQQFr7dHR0cHBQVEUgpESDWcy2SQzh+hxAIRHnAynHlvlAOh2u4eHh1O9O+Q6wKSEDQqBe4LqMe52yDESOOPpLG90CJbJmMrQyrRhsCPnNHPCSBiZQ664TlCEOqHJlR1en1n8I8UKIAcAlIweYdJvMhaFsZ8HIwzGFBqfrxpco+pBb54YpbcCmEvrc0eyrwkqyctMKdrNhzApkOnXfVQeIJOHjWDEpXrKUyZIhcP26H+pYiLD1AKYE6omJ06AyWoyjkl6j+cmj5FqjGGkR6DxnxDxc0Akk+fhjRGDV93h81JBRwZKKbjGMCACcqABGBAx50CdYADl4VO+SBbOu/FbMImzJoMtoGU5MHKmZhXmhqOtnBIg0zozJsmzRp43sizNc9WslfVGWatxmlmTs0qJtIImJhYRlAMstCU4BVbERI7YkrNwFtb/c1zNMmJoRwlXApMmeAMovCNmUcnh0Qf6HjsHIoAFHDhe1PH3ik8hAWMcfJCEOZCcWrwryxAmY6FIjNlgkGVFlpkzoGDHJVs5hjKXzLJlJc5p51QQbbwuG5EkSb1ebzQatVqt2+2Kx32n0ymKYkyfF5wOxTw12McKP1qr1aZyk1OvhYR91FoLyAGIuUmRvsbQG4yMAkyGkAJ5nq+srDQajVikPFWpeRyXGbg7ruQvsn0xvHcuKzn+MAwjdUg1NFAD6gwAjqvzHUAKnKM64onrpJq+g1D8eJKSaKzGujp1siY0xxCgRWSe8OZpfij29bKSMXcYjFpjOIw9zfUUmBxpxDIG00KfzILJuDy+mCYtJx152Z6Gm7TjMFnxi1PZ9WNgcqxvFD1vkjWs6oyad/FE+7JeFEhXoeYo+EcSkHrrVmLKKtN0InAO5AxNII5gklED6p79skPJLQXjF+UDqsmjQw5nRaSJlCJSKlE6S5I0y5JaLa/Xa7WayXOq1wb1Wj9LVZLApFAJk5JsWXDsGGxBDqrCCqp8KqtrxUzyz8sZASbF0CANBpBDjHSq/wdneC8AACAASURBVA64egV5O1td08B/uMIbDI+NZzwtv2YTnrEHxdfDdSQbMzMRGNCEhNmCC6aSSGxLLKAZyrFybii3PbPfZGztqZRqNBoXLlxYWlqq1+v7+/sice31ekVRIMI28Yx0zgmeKU/C20m6ZrGFiaWsk3kfYxJXEMk3kuc5MwtCBywUblVsc6RjAIwxzrlerycJvPb394+OjvI8v3r16sbGhgSDPV7iOmf6pp67oAV9i2kUEScxcqw2DS+8vvCUzwkH6YkWFUgJczc8ecQCP8KwHAA7ORArpbRKjElMkqRJnqa1LEuyzOS5znOdpirLUMtNLac0IW2UNiCNSkRV5bRwzpKzyjnvIM6VeZtIvySuKwTTqojpXntHI9aBvqdzzVD37aMzwyS83BKRR4Qkxjo4ONjb2zs4OHj27NmlS5cGg8EsOerBwYEIXY0xkvpqaWmp0WgIcMaSz/g68KNSLj+JzHZ5eXllZeXVq1eDwaDb7fZ6PTHkEVvW4OkhaC2Be/b29jqdTr/fL4oiz/NLly6trq4KThdFMekfciwxJGbxcJjITzbHEh0RBaggKkByFiur8w5Zb6zhnZMqwYg4Lcl5TTPMtK7EUqwgFuNRG0KeqDzZyrxiE88/VNW3l6ZLEeXPSmA53FyZR47qHF1PcpOOhhLamNQ4Y1eR42G5G5kwQ0ucmFO0wKTMLZ5aUwWtGJ2umDobJ6zJTjsxJ+/h8QIaRtWp/hSBjxqqElnyW4mRagKueQ4yAzf87RlQ87yg8YWSVFaki2Hlhqcrz0Z7mRADzEopUlU4sDzL8jyv1bJaLc1zk2U6y5BmnCQuMZQmKk2V1qQUSEHieVnH7AQd4Sw5R85RFYiHFAhKaaW0Uk5ro5QlZ8AmbBOAAxL/sXqRApJ4OMECCx5MeOyMPBsj05KG13PdAaTPQegahn2Mmwzyj8BZuuifOK3JnlwAA2AAEpvkahqfR+gqQkth9bTWkmb5+vXrr169evr06c7OzieffHLx4sXLly83m01JwcHMwsYB6Ha7jx8/fvjwYbfbzfP84sWLly5dEplnkiTC9hFRmqZyHbwzBXcDlIrdkPRhc3PznXfe+fTTTzudzsHBwe7urmR4Fg5SjFGTJJG0Xy9fvnzy5MnLly/FjAg+U3Sr1SKiwWAg/GWj0Tj91yLqVx+GFcj4IMiWqSCyDIY6IuqAOqAuSIEHhAGRBhWSx4rZMcqhQ0hlZc7+M5kpm8rQjn9MijUbJidE10AfKOZ2eCxPcOh+XZpzDIA5HR+qHXMSHSkqjyVXsaDVzg5cF+6amiHEjU8GXz7DNHrqhBkwOqByAuRmwSGPQubUzsSNWA5AUr3RrNdE9OdIOYOjuBPhV8OoV+6PlY2JAksG3sRLkk0U9yOt4JAJSMGVQwhzEoSxPrwAROcF3YOzGIZJkcYVnAkWfuGfImdIJ0lSy02jrhqNrNlsNJu62eS8znnGacomtdqwSGOJNBExwzk4i5LJsYJF0EA6S3CS3BZEShErZbSBNqQNq8QSO5RiGsoV2DMAy1BAl+AYJKqfiU/pvGcXi1Q2OIcMvzWT10cGQPp6hK7WC10lRuMETFZpYZRfGiGWi+dVJLwteqAS6AEd0BHoEKrjpeXn1U0GHlH8LpaWlq5evfrgwQMi2t3d/eyzz77//e/HElf2kVTLsjw6Ovriiy8+++yz/f39NE03Nja2trba7bbkDIkZOLkOZrFiwjPZGWPM22+//U//9E9FUdy9e/f58+dffPHF4eFhrF8k775CRJLkcn9/v9frZVnWbre3trbW1taCbvLsQtcgskckKyeQ81yjIxSgElR6yb6tAh/DgZwYw1EwWCcCu8r5jDFmOBc9lEc7MM5Zzr4OJN2eyWi+Ns1KuvRGaH7dnjMNJV1j/Q8zh7yDRyUr8yI8TOMmMXbNUNP0zZPbH1DxqVOZwlkTBtNAbswtcpQlHb748d+LEWQhsiBOJoq4mdD/2BMjJhOiBEQcpIoyJEsFz02i5nfILILMxEfYCY2gym0Oi6FHKYFUxVYNc1VqCR2gFCWKsjTJ87TV1EttarWSdjtrtdFq2bymsoxMyjqBbHjOkXVkHZxDWaCA3xuY2Cl2xJ7ZI2hFUASlJAkEkhQS2Ns6to7I2cqJouqSI3SostEN0R2oGlgKUfoELBnsObCxMxCJtDnsz18nN8nVJ0A4vbkRz12O++NfbZKhpBIsrqLiv35eblKQTzhIYBi/rdlsXrp0SVIx7+7uPnjw4PDwUILjiJRVeDvymR0//fTTu3fv7u7uZlm2sbGxubnZarWCXjDLMnisStP06Ohof39fHD+kD/JTWZbCaxpjfvKTn7RaradPn967d+/x48d/+ctfXr58aa2VPFkBXI0xrVYryzJhGY+Ojlqt1rvvvvvuu++urKxkWSZMarvd/vp1kzSy8dDY3wta0JlomhXwiWem01GlFJj109gzedTalDzuT6vN5BUW0bY2+0AQfNOiDg0rV0vY1xkFgMnWZv3D7Fsw8qf4VnLkkDXyftX7EJFSOk1Mnpp6LW028+UlvbpCS0tqaUm1Wmi0KM+RJGQSTRKk26EoMShQligKAHAWJVWjO/ZMQHwBoTUlCZi1teQcrHXWsrU8GviFiARVCTw3B+dvP53TbzLO/qG1XllZuXr16uXLly9evFiW5dOnT4Vf3NraWllZCaFwyrLc2dn54osv7t+//+TJE2PM1tbW22+/ff369Xa7HSsyxQDnxYsXjx492tnZ2d3dbTQaKysrly9f3t7ejgMaACCi1dVVZr5x48alS5eePXv29OnTTz/99O23397c3FxaWoJnTPv9/v7+/ldfffXw4cOXL18C2Nra+vnPf3779u1msylOluIKeUaYDBoOhBVFoLBF+EUWzmXkJQDxBUZXJiLu0AEFaBI5x6Rbcf2xCpixMzpgMDefjXBkmxPNmZuc46Yxue0CIH9ap4ihjOZDte9P7uAYvWagOyM80Swxw2QFzBjbwVB9PuWlJhun8QfxZJ2RFpiHBjYzkGn8eqI+0ZQ6GgCLCIfV6HD5ngzH3P+jmPmQ+uIdIS2U/sKC+qAeVAkATgEG5KqdQcwS4RRBayRG1Wuu1SyXWnppidZW1fo6r6zwUhuNJtfrnKYwhpV2pByDrUV3oI96utcnrRkOVkOp6sESrnXITTIUoBWMAQHMZJ22zlmrndXWJuIc6IZJjBmURpkavWPl0IV0GGzBywyGoQaGq3soHZERC8PlZnzrN0AE4qE+UjjC2M4jkPJfN+g1XLQbM8WcJXnOMhKZnBMmA4oopcTW9MaNG2+//fatW7e++OKL58+ff/jhhxsbG7/4xS/ee+89yewIQHJO3b1798GDBwcHBxsbG7dv337vvfdu3bq1tLQk3KQ8QhJU/e///u+vf/3rR48eHRwcrK2tXbp06Z//+Z9FiylBc8TsVrqUJMnly5dv374tySM//PDDdrv9D//wDzdv3qzValLz1atX9+7d+9Of/vSnP/3pyZMntVrtrbfe+tWvfnX79m2xlS3LMgSGPcugUGTqrXzMKjE0IxcWpTfMrj6x+PaSDhIPkAbpKPOcqz4/Bl5CG4AQExfh2sUfeObOGMRfjDlNYgCj5h5vnObPbs8JKZk80oxGBkBUDhqm+ZVtqzKMOIazoWrLnpk5ediDGTB5IrloB4yJZrTEM9THU7dOllj5026Y5O0QVpm/HlXZepmtnKW52islxZia3izFh9cYJuH9JQA4UDnOTZKF7kP34EoQgTJwMBfVwmkqcqkaZEbnGbebxdqqvbCar66ZjfVka8utrph2mxp15FlpDCtFoAI8cK4sSuz1cmXqypBScCWKQRVSloIENCjaxKuMYLTAJJwEH3LkrCkL41TpbEHQXKlpLWMfSEF9iPtltY/xqPo8gKLzBi+hJGxoHmsrPeWkn8Ybpor9raL8lKCCxmDSay7Ih0H0C8wJUlYR3sl5jVgJKqAGUBJe+7wmPOTD6MCDpVKqXq+vr6+/8847L168qNVqAHZ2dn7/+98XRXFwcCC2OUVR7O3tffzxx3fu3Dk8PFxeXhaMvHHjxurqapIkYrkjzQq9evXqo48++vzzzzudzvr6+v7+/q1bt0SEK+LWWFWZJMmNGzd+/vOfO+fu37//+PHj3/72t91u98mTJ6urq2maFkXx9OnTTz755O7duy9evKjX6zdv3vzxj3988+bN1dVVaUrsg4InyVl4Sr8sg78kqkMYAUyTm8Lw2MsgguJhIYZMKAetQOFvHEO7ycKxeXkiTI5tu2+W5srwfWul0kMWayrXFf6KS1y1xse/V7zRI5otxydmeY3vMsT10xDNeNAMmJxpkjUdJidsRihaPPG9ICiuDppummBm4lk0xk36Dlebsk8/Vz3HVtosKr1difNnGlf5UROliarnptHIVlfM5oa7uJFeuKA3N9XWFlaWVatFecZZQhIZE6yYtUhc6UgPiByBHQZ9GDX03oerzIaG2fkIWkV9JzCTtdqWqixgrbKO2WrmRMIGEevK1EhGKT4ljIx2eICLrmfJq8L117ADRDMfozApcfzGOzM5g4XRCWE7PXaej5sMbhXBRlRMT/M8T9P09u3b4p6hlHry5Mkf//jH58+f/+UvfxF14NHR0d7e3vPnz1+9eiUC0p/97Gc//elPt7e36/U6Mw8GA+echAswxtRqNWbe3d3d2dnpdrsS9/Xo6CiAtIheg+FrlmW3bt0KysiPP/74iy++ePTo0bVr17a2tuTeZ8+ePXjwQDogVj8//elPNzY2RBsqryMBCoRVPftnO8tgVuoT8st42mz6xtw3F/QtJmaclOZzZPM6k4qBhgzWaXrCM+YwT2tE9q+p9f1DObquujNe7l8nrlNBXMQdTgWDCT6Sxsr9YuV4bfLo/722EMEiSY7gOk2Tej1vt9trq/mlLb21pS5c0JubtLWFpTbqdcpSMlpV97FmTgUmC0NHrEoma9HvoqtZqQqphV90InplQIIqqeqMLfIIhmYma1EWXJZkrXWOmBGhggxT9VVmnlVCmKS/s23ptUKfx9pBpdTq6qo48jebzXv37n3++efdbvf+/fsCZoKseZ5fu3ZtY2Pj+vXrP/rRj27cuNFqtYKvCCKtp3Ou3W7fvn2bmb/66qvNzc233nprfX1dKoyl8hCdYqvVunLlSq/Xy/N8bW3tiy++KIriyy+/fPz4MfkA6IKma2trt2/f/slPfnLt2rU45LowkbNMao8ZFTg95CbZx0xRGpQAipjJ5cS5hPAgzoEaISfWTFJI0aLiSoLBIsEwXqAhNFVcFk/30wldw1KYo0uFtHymkTxr+3NmKOfVvBo1XabR/4oLbizyIoykDBvb60cKGSCkGIaEnkXxu02FsmP2whO3SV9hhCeO75o6sm62aXT8plOjvQzLQxSs4UMrD5AQglVHMZMTnx6SvK9kIkmyGDlY+5Z9QLsRMUBYdyVcKR7/cCqyqGFiq0CaTDPFcosvrOLCmrl8WV2/Zjc3eW2N1tbs+lq/UbdpCq047CPghJEyq8JSx6Fe2p4r+6U1R9AGpEpSDpQCqRg+KSU8JpFiKGYFZtaOdcnKOGjrmK1VjgeO+wzFA+WYuBKfpoSc4cSiAigBDckQUg1vCpRefWSjFx/qJqnSZQKVJjgIXWdEEHsDFDO7ILYT64K8NXKwZE6p6o/1qmUHNkACBriQjZfYUPgU59NNko90GsSSwuE1Go1Go9Fqtd5+++0HDx589tlnv/vd7z744IODg4PBYJCm6crKigha33vvPTHbyfM8NCVZPgR6xTVzfX39n//5n1ut1vvvv//OO+/86le/unnzpoQaF64xdEncRZIkWVlZ+dGPfnTt2rUf/vCHn3766R//+Mc7d+58/vnnYnl748aNf/zHf3zvvfdu3rx56dKl9fX10IGA+nF2sFMPCsGZoXuuP5wBEi5SBOAduDpxHdwgNIEmoUWswE1GE6BK5SOsv+hIOPgDmfFEu+Gax4UJp4XJ4TovJVPrPIjn7hAyr3PtnOGXQqKlqAQU2ezQ6BbgS0LlYyBTzx7z+MYIvXgWTM5iBMeqzbx34repHQh/O5YchyMtTx4mVDRKKsopEjjOYKwhdUTnoYAMVd4lCSOQSFxWRl1gkpAC9Qo+uco36aHXP5SCZI+9HwgDBVwfJF6N8Zuxgk2IUq1bNb6wVG5vJBc33bWr9uaNzsWLaC/Vl1r9pdZukvSJGNYp6xSRUppUA2iBUmNUjXVukdluMujoXKlUwfSgSlAT1FJErME6IRilQJopcVCOIRE9S10UlPaZ4JAwFQ5HzNpZFKViFIAjzgAiOK4ShJVVaky2FWRyWaVYRwE4r/NzGAYQJp+DU/59HbrJ6rnBdYpcHKrFnzYkVH1IiJYCioYwacFE3CMUJIcGNuQMOUNs/Cuc3SEkDosTuMngpKGUarfbtVpNovM0Go1r165JIPIsy5aWlq5du3bjxo0rV66sra2FxFXBLEgMbSR0TpZl29vbWuu1tbUbN25sbm7eunXr0qVLApABUANJlySMQJ7neZ43m81Go3H16tWnT592u90sy7a2tm7fvn3t2rWLFy+22+04imxgYeP3OuPXCsMULsK6ZUCBtbcoU/60FZ90KDIzo1FuYyxcwKTQPzrWVU2dHibdtPifb4rmx0ri6+Am50VqlA0KVO0yo/mY5Op4aBxeez33VJqOfDSjfFr9sTE//Y3HlwvZYxufApMcKekmhmXsWvnkHspzloGbTAAJ6S7YmRIIMFxtqcRxOxwyjcddtdVmPYzeToASk7xE61qWtRrJ6iqvb+Tbl5JLl/TFjXR1lep1nWWW0RkMDgeDAZclldaQSZIkMTY1RmkoZbRSSaJMAmWcqkK3FqjyCjiQUkSo/ECgDJEhKAWCc7BOk3Yg7UrYQpeFKwpdDJQekKsQn6Ism+rYfzw6dYMdLKJBDt8o9qGc3zql6NOE/LNjK2jsn/JdGrPpVb6FsRPqa2QIibEkIBwzi6pyc3PzwoUL77zzjgQiF79JMU+V6Dkh/lyASRF4ipkrEdXr9Xq9vrm5+b3vfa/X64nOUrJ5lGUZrGxCT4wx0hPxURHm9caNGyFViHRS+hCcT8YSdYVo7K/z3c5KNGsSEc1TIrqgBX2XKD5ehKLpkByMUP22GvO+FFUbbz+6PmZhhrOOIigDneqsltVazdrqitnYSLa2ss2Lem0tbbWRJEQ4LAZFv394dHRk+wMUZWKSPK81c6OyRpIaMqTAyifp9U/hoX8mEYGUImVgDHRCZLTY4jinrNNiFGQLlINk0Kc0HRSJKkxiLTu2zHM9y34X6MwmPGN8ZCgPzpHyp0CRBASw1oq2L1YoBkyNsUraF+8RkehKlq5msxkqxDAWK0dDSeinAHN8Y/wu0oGxtzizuFWaipN1ExN7sQv5hUtM1Ic6gjoEHTI1mEVKrhmKyTGIK4e54HzJVKkNxD5eOja2OMcErfDXUyW0mHbN/kg+5bVm/Dl5MVl5RtHJTznN3Sc89w3RZMsnChjo2D9PbD+Ux+xL1RSPbPpT2azqYjR31WQPp9zI4xLduPIspnCkwzMedzbiodvGZAdiP42puknCeAbweNCIYRgtoF6Zd1b3EJAQUiAHFJAxmkAWB0EAeU+tINxjWZhWoUs4ILLM1nGHwVVNp8DEYK1swwxWm7x+oXF9m29f6b19ubi8RevLbkUdZN0OHfRx9Ar7z3Rn33R7zjo46CRJ8oFZcXatT60mVMPQaqaXMk0JaQ1NbGDJ2dK6rHQJSCkDnUInzhjSCZvEKu2I4Cy5Ug8GSsOggOubMqUyQZFgYNKytNY60dRKVhD2jhP+yzrv0xU8C5kqMRhHLpXhBpGAM6J8j/NcpGPapQBnUZhiomHCFobXlYa+CYmoL3gKDV9Wfj4zTM6SRo7BVUxTPRGPaWpMEDrm+CENBrSe1ZNQc8arTO/AOflIseCpLplQBm84JhA7YgZ1oQ5Y70PtM60wElel5jFOOTBYLMiRSJMKA0KByhiAvGqEK0P/oJIcRpMKHzX+wKeZowToiUqTEtp40k+V+k4L4jGSoHVWZ3iakx9H/536k/x/fux29EbVxzwJMIbTiaYzHCNJpKcM14hx6kTGaf/bLIwMdIw2aIwlimF4TEg1vJ5gqsJJbqxrwwYZfrPlqT2c2jFEcj/4i4otY6+YoKoDAmOEkSDvU75R9PwU3AaWfbzvHqEgsDfhqRMUo8ZY8gHtCkYX5KA1yIASgOAcxC1DYJKODD0l9B1gWZWsoDUoqQx/mLUqGllvvVVev7h0+0r53vXDt67R1qZp5l3tHmL/GR/s4+mB+vIIhwMuS5CCSpCkqPXKraNB8hJpwyQrxqhcN3KiFNpwplwOl8IW1mYWApOsc2dypzUlic3zgTElEbvSuH4tVcpAYwCbaJtom5gyob6hQpUllZYNI2EwUFb5NdlPYBL1pAUseUUsAQQFBldCV/ZfmkevK+58ngIxC7/ZsuibWYJIRPpj8dKpDL8lHJ0wBuIPAwKJ/3pkbeRo1Khifmnrz0+n0QueXXc4d/ICkGr7jv+okGAkgAX586/8PL7RoJqnp5hjU2Szrz8zjxcrvVk6B0N5ygrfFIWvOY9GxsrPdMI4PcUT4Gwv8noPHjsBjLC5kYXIJKgD02BytLVgDUAETWSrbPXeYkD+ead1AmmxHa3+DVVfgRzYMkoGWGxoK37FEcEkabOer6/Ut7eyq1caly+lGxdsu8lGOdfvuKOX5cHTwf6eeX5Ue941h6VyDsrApEhTHmSulRSdhPuksxrpUhErJTsKMRM7YpD0S2lKEiQZZTlpgyTReW6MJiK4QjuQZgLrckCDjAYp0lQbA6OroLNAsOAdG89ZYhvyLAC82GP6JOSRW+ZH8USl0Yv4QD9SwuCoTzTx7iP0twiTCzozfZ2gtqAFfV3kN61xpeNoFRqvjpgHHttDK+hVojskpsqkXAHKpxqQNOoErcUQZloQdkalHaxYKIY/sLIDO6WQpkmzVV/fSLcv51euNLYuqdVV1PISwKDbdTsve6+eHx7s5zvddLdnjiwzQxtKMuQ1Zmt7ab9n0U94UFBSKs2ig6z6V7lmQmkYg8RQlum8BmOQJJxnpDUTwWlYUgqKWRUDDDIMMvR6MAZK81Rdy4ImaQGT86CxQ43IIZSPaaeiFHca0F6FHnEJDMDySDjEuKlYuOqfSJGp7dlgc1J6NlmOaQ1OERqeVGfqQTXqOfFEzZlNz/90QCc1P7nNTNuyp2e6oBnlx7d/SjoTgz71KWOn73N0YapkeMZQTP+VpsYmGOVRwlqLXVFpVGQt16aKj0PEpB03CZqYiBJCnZGgCvRWADYIe70o0TEXAoHEPUJHchMSegz2YkgDMl7+1zc5t1ayjU1cv6pvXddvXVXbG3Yl69YGB+qoxy+/sI/um51HyeGBedmjZwW6DIDTzOUNqg1QFjhsopuiZ1AzyDSUApRjw6yYQcRKsTGsGGmKWg31GtdqSBIkKadZaYwD2JXKJslAOyhXOhSl6heUFkj7nHRYJ6UaDOBKMIZmnxwYax2FfFKjoz3zq49/ou8ELWByHhTDJKJl7G2OvfCHBCMpBFEkHzKKIi2gV5JV6Bj76iqPlORv4pPm8awOB5oKVGPz/nzb9yzki7BzpPuz5IrHyBvfIB0vvptaOG0TmVAxjtafH51pcKbyXqfH1KnVjofGWeVDxjHsuKP1JoWucsoMGZIBaBqGGgj7uwYUyIIYpJlbQAPQYM1iSQfmKn6yA0BsFOdgMeC3xJaZAUs40nQALhiW0PcrzocsYAYNSPeSvGguNze2cP2qunVd37iqLrQGtbKjD17yqx336J66d8+9fJwdHSavBvSyRAEi5fKmbQxUsyS2OEzRIXQ16gnqmpkcK+eMc1pUv0pzkgDgLONajnrO9RqSlJLMpbk1pgDYlqZMjNLMuiiZBkWSDSgrXNJlkzmdFKT7ZAu2iLwjtHe9lWs7ipHHzNvvGjoGWsDkN0aVDWx8XJ4u3gm/el31cY2OMUCnYQgWEtsFff10MtzOcH0bm69Tdm2Kyn2cASnzWsbpvakewVRZEjEDcOwYcFWOxmFTXuY6jLAOEMEoo/O8nqyt5Zubq5e2ljcuZsvLJk21K0p7sD94+eLoxbPi6VPsvCx3d7udo/yg1EecFaSUsqxKlRpt0jRxg4Ery5D5ih2cY+ccswMrIjJGA0SK8pxqOWo15DmSFGmmsjzRiQbYFlQQwZFzSdFHllGWIU1VmrIx0Fq8D9TEvrGgEVrA5DdJVdxz8qJGHtkBiCiy4ZmqLKcpIDcScnOGGQgPS09lJTTW68WSel2aKx85V+IpDN6JNN3gblrhyMwcqeMLCcM4rsOp7itTwEPPTRJViVYUj0oOI8Z5eCOT8lkmABa3MRcrOHygLMc+LkeQ+ZACKZ1kutXWa2uNrc3lS1tLF9d1u82JBnoD92qv9/zZ7tOvuk+f6Jcv3d7uoNcrD2x2CLbKaF2yKlUGkyR5imLgSsvW+Z7AOXbsmBkErZXWrJTShvIctRpqNarVBCYpr5FOAKAsYIjg4BwNMqQppSnS6oKMUUorGc3ZySbnLfb4FtACJudEVK1RkBfLSKxXL/SvZETGJ0MPdgAVw0ggcHBOKn1KSI5QiqI/g5AWUVPSg8iFjkeuJuzQOFoSY0Cohg2OJLM8zfqZXGbH3vg6or5vgCLR4nT56jGF536r48XRPDIZxitMLY9jqcQUTzBMq3C63p5BTzksj/ZuAg0zV4gfCAEgzWyq62odKQYRErE7JQkuyj7KFenKsYRTIAfXGBpErIIJLRNr7+pslDMAOThCQTggWAJIHRC9stxjdgxiZL6TjlQ/ydFeMlc3ceuKe+eKe+disV0/XB0c5p0jvfOlevin5PG97MUzfvGV2nnqOnvUHyQ9JhH0WkVkSRMMI0NytyYqKAAAIABJREFU1G4ckDlMVCPhhnEZHJEDMawip3WZpU4RZalq1E2rpVot12giyShJOc0LlVgCikL1TGI0ExW2pEEv7fUp69skY52QNqXWA1I2khvHRr8xEx9iZ/LoQXzqjBqbfn+7q/eUtIDJN0c8fuEFquTNj8Ns0wEpCQZIfT6BuDnyPrxjWbHI+0piNHqnGu2BN/PhWRkXRthU/8T4euoWPJZrcJbFzeSNYyVn5EimV/8bYWrHZIOTv75xmBQ6fjOaNTiTny8+Hk2G1+DIW+AcRBN/0rTrkTrs1w4NS0IUseqsyYBfRLKhp0AmuzwjIWR+r5clJtxnmPMpcw7UAM1wUFZSvhKUckxQRFDWaBgwOTgFq3CoMFAgxp5VL9n1GCjRcGh7R8yu1kVWz1ZW9bVNevcyvXOFbm6Um2av3X2md1/wl5/xZ3fo0b1k96Xb38XRjuv3UFgjgUUhJ2EHUjCETJmjfn5E6tBQK+GBdkyOlIViKkk5o61RSHVZz3WrqdptWmpzo8VZpkzqdFYoUwCuKJJOopVi5l5RqG7XpD1K8yJJYRKlTEm6JGWrhA2VbpKi/06DzKFjzDELcIYc69tJC5j8pijsACEuboxNYypKqiRDw4IZu88QgGhquewW1U/k8xwtQuItaI4UqwNPA5Mjc32okohKqlozUm96IWq8DAgYBuxkBFUcQSkoFm9JAhRVidOJSIEAxdV95EPzMDM7dnaYB4RAikyS1NKl5eWLF9cuX062t83GeqNVt2mvbw8PDl+86D97xs+fF7s7R/v7ttM1gxKlsxbKB0t3gGW21rqyRFmys865yqKPSClSRBIV3WjlEqWJ8jRr1tN2Wy+1aWlJNVrIMjIJUZJBGyIUhVJGA865bNCnTq7SlJLEmARak0Q6+xv0Qf9bowVMvjGaMddizmlyeUf/yI0ydiHWME9sNEJqlLcLFg8U6Tip4j6n9LTaC/hkjIxPjjSj/I3QWRucKvD5OulvbX85E48+tTJHX2GS73yD7zuTlYwfFLGUkfSv+m9ciMD3VGBXXSuxJ/cG5IH/VqCKQyUF1gQtPolEDlV6XlJUiXDJ3+sAZnbM1sG5CiYVoJUmk6He1CsX2ptba5cvZZc3aX2JW7SX7O3b3RdHT786evKYnz8rd3f7nSMUPVuWVLK1kFxWYuxu2VlbOluwLWBLqrItK9kASFXBzZOEFExiVCMz7aZabtFSi5baaLSQplAG0BpKg1Cm0EaByZZJr4s8pyxDkihjSBvyUWLH3FJHPsGCsIDJN0Mj0q/J4y1V0gxWPt6HqCQThmFOmBNGYOmq2xkGKAHH4sXFff+kIFy1IAJclX6EaDTFoBe6IpI1wScd4sg6iHkUbCblqLP0lGNv/vqIdexePL35b2QxT+4pmC1HnbXpnCh0Pet4xipqrvR6gWea0uasp0+rQ/6n8dmCiREYu57O8B07XMPQrFEIvSD3U1xl+YCkD/Q/ZSJEldCsqISumoY5JqHYQWKtInGaoEooJk1syCdSJIZiS84xnJj8iJSnZBwCXYAdjkr0LQYMAjRUQ5lGWqP2hcONbXv1prpxnW9uHF3Puiv9Qbb/NL3/J3fvo9bDB+bJ4/7zp4PDQyp6fS46cIWGI+QO5FACWkFTqbmjnCaX6nJAA6ZCoVTslAOYHBmbpX3UnKrpPE2Wc1ptULuFZhON3GbaaoJCyTwALBSVlBmuUQ4e9Ac1OsxVnlGWlUmiEqO1JkkeMYxxO3agn/7v744WMPnmiAHPvkW7i/xzkd9kZcXD3oqHOak2uIjLZGhUoc8Ln7WRR7dCURJU4SXBbjTySIxeU7m0WZVPJBpt8Nw85eQtZ12BZ1RwvjGaub8fyyFNLXnjSAmPkX46jrsYHc8XxoeksZrS4KQG/XwwqU4cxuDIQaSi3AIq8o+UFaQ9TGb+p8zrKXUw7QGY4CQ7JSsFpWCsMoBWzmhW8mKKrWIm64gcHIPgGGAUQAc4YsCha3nAXIAMyJCu67SdNWhl3W1f6V+9bq5dwdWV/mayl3f38fxz3P9QffJB/vhL2t3DUY8HA3ZFX7muQU/BKVhGAliCJmRka9xXzpDLlB2oklFSWRI7cgwmVtqmaZnUykQnzVxfqLu1um01VL2BNC2NKgCGGzAOoUtSxsJqSrlEmQ06maplWZYhTVyasETaFocQGkbQnPwQs/79HWlqFjD5zRMRvZZycHgS/DuauAv6zlO1Z09Rw4/9Of1oMplUKxxhiRRrJTkZSGunlVNwjkHEshidd4oEO58vguCo8qOUpD1ESuskTbOs0UzX1sylS+X2dmv9omnUNHrodDrl8+fm8WM8+Wqws9PvdIvCls5asGUUFoUDAOtgRWTk4MQ90jq2Dk6SPDswOwdr4RwIZIxRuc6TrNXIWw3TrKl6rtLEaWI468rSoc+mIHJKETQTsdLKGG2MMgbGkDFKrod+kws6lhYw+fVRBGL+RCYKh5Aki2j01CyWrkyVyxeP/oNnUjF6Np91wB/vDA07NckdYrSER9s873uP0OSD4sJJ0d/rc59npak9P6Xc6cQ6U7nPN33Qea32TskZn6nBWKY3tc14WPxaGNHlB9tLRBEfMWqWGfSUsZUmCErC05FWpBU0aa3IKKtlMbIbHjWZYR0s4Jicg0Vl4sMM5fM5G9JKp/z/s/fmT3Ijx/3oJzOrgL7m5L3kcpfHaleyZMWLkB1hh/9w/wGO51D4vbCtJ8vWitQevDnk3NPdAKoy3w8FoNHXcIZLWV+tmDExg0EXCgV0VX3yzsFIdnd6d25k926Fu9f8jY04iBNMjoo3L8qXT7NXL/jN2/LkpKhCUZerwNRoopgAxCRABRWDGYTQegYpzFKqAwYaZzvnwDnnjgd5tjXMNvsYZpq7KKioPFOdWFUqSsumFI0tI+dYKk9Z7jjPOPfkHZywMImQCJqg0uUltrzbLJxvdRc/fu78I0z+rxHVvCpRs4aF4RTe4EFtki0BYBYNAkQCM6laUxQGlgyWAAAFpKnp05ZJQzL4d3C03YMU0HZqd34taFxXamt5vk17vNJIuUArzy/0s7z5Niq+GS21WWEn+7B0DsCv0RbW++xKMOhS62xyDkw29sW0R172Sed0rV0uZCUbhPkGS3hmOPdxlmmeabNlBSzP3li3ZxNbcS03RkdCqpeUJqT5xh4JQh3gQWAgpyY4pE1iRzDh6FmFiRxFBzhjp0YEE1NYJERoveuboQg4Ig4QMS1iTHZQIxbmPjQYTJz2BkdXrg3vfzb45V39v25UN3pxe3I62vuavv+tffMIf3wkb576yRmHUIHOICfgAD2GvSYrnIj3McZ+WZIqAUwYCJCRZRRyKnNIDpdDUloA035Pe6xbRINcB1kxoCrTKU8Dwhkmb6g84hhIVLNAGSjz6F1xA+q7LZ9x6NFRRj0xj+iIvGcwBeWoBDKqazS2xh1btcBT2azaRG1rV/0FWcm/GPoIk/9L1EyoRoi0VKBAQE3sF4HgCd4s1QskAzMSo1sYqo5tsnUgR6e0pHQ2NZ2VZ0+/ulpdW8Ae62yXXcQ6Zw10rz2/8TtFyXN2/4uYHv90q/Gcga3ZBdKOT1iTZ2C5h3c1m334v8awrxvYSl3FD+l85Y1oXi/CNb6SwFob5EKsZNaczwCfnFoJHvCAgJjq6GRmUi/IhJwwHEVPcAQ2JVM1MkpJderiG4ChinRKFJi8caWKFF/P8ELCHEExy9zGZrx+Uz+7S1/cpi92dOQrOT7yr77F97+L3/8hvniKo30uCjEDaAI6AQXwCdkhWyHincuIiqpKoZ0BresCqVDlyDyJJ87gPXKQ9Wgj4ytMfa8Zq6vOuDhFObXJsZ48w2QfFs2R5WoZI/M0VGDLDXpZlg899RwyhqOkcgYzWe2phE7l2pXiI0Atu7bcZuV3/eOhjzD556LaDTv9qrfYVCrHup5+NarRou/EJWdhN2fjx0DJj3Qe/UlFgYt3/k7FbJdS/o5uEUFiYmYhcgRHxI4tc5w7EyYIRQ91AFE0is1F1opJaiBm9iAzVdMKVgJVa+Ngdt5nW1vDGze279we3b4tuzvwmVTVtDg9kcNDOTgojo/L6dSFkNZwhVqhOpOgzVRVVWdBWQaNsKiIARrJjIiIiZmcp5wFodeLmgFM0BhsWtjZmU7HcXwUTo5tcgyoOdIK6ImPmcjU+iVnwTsPMyIwNxXp62jQj1GT76aPMPlh6GJTrebHyZJ+JRnP2+xQAEligWFJZERjkmxNLNq0X1aQttKkLcZs1FLZAofYPVhnGlz5WN02KxssYPBK7d/Cp+88v1L6pHextH8KWqluBYC1CY9Wd7JOc9uV+z8UYHUVALR0fpWWdfHClf++83bLnS8dz700mhcoW9tkV4J0nWPfeLoCcDYzRjIRMbMIMwmzELET8x6+gUkWigwQLCKZQxABVViERSCCCkgJm6qlsiFIS48hDpz7bDjs3bwyuHcrf3DbfXYDV/plvzwJx29171n1+ll8+7o4OpxOxhRDMETgFBiDx8QKKgmRVI0QTaOyNdWigQpcGUeS4Py01/e9nuQ9806YM3KcUx4qFyuJEeUYp4c42tPTk3B2GE9e2/SQoPAcekR9L/0e2QD5GdwEIqTekYnAMYSIDGZN5U1qBURd+lkQH5ePf/z0ESY/GHXNKZ1p1LjnoCknUGOkY3LMXuFhGSyF+XsgN1hT8U6sziGQWW2STB8ldWtsytyg2Ska2yS4kRdDDZkGgOv8rtaFxtThSpRaUMaic1V7vE4r28jDqy1kF6YVV3SzJXwwGLkMLcDJPCRYe/KCStcFWnqiWYeLp1ZcO2MtlrFweWDnoldzIaFb1x4z6Fr7UMud8Py17XGLgs3lRJjhRdce6TrK1e6xB3otTAK+RsokfwmxkBMSIWaImMuMXWQGiIlEQKpkhhgQK8QKHCvWsaIEKehI+RXRGGqIDtZL7nUeGBFt9zau7W48uBW+vHv65Sf+/rbciG+G+9/ai++L7x+F7/57/PK78vCgGBdFCGYWgSPiF+xPyCtRBa1IDYgRUEomVgcQ8ZRc5no+G01H2/tXdntXdmlrk/K+gR2xc9qzmMUJl2OcHvDbp9h7jqMDOjl0x3tcnDLMcsc9h0GeDQdSZJBDkhEJc3CeejlzxuYorUymGf8dDAGLP7FzsICaKydAMxV/XPQRJj8MdZDEVgFM+y8BIGKCY3bMQtakZjY1tLUnqdkxqYHDVoikDhxaB89cx065bF1AZ4da4AcX0rS+k/jdy+By4LUS7daJs7a6+Yenc+6xTsZ6D9lr3YOf3/Py++9847TAnVwcJmnhPM0ub6buUkqn+d7O73wdHrd36WQQnbNHutrWWB/nDTRmhBzEMHRslkwknIBSRBw5BxGIwGXGzupSWgpVMiNKm3+CA1WgBKYgBY1hx0YTCIAR6QjqAHi2kedrm8O7NzYf3J7+5Pb47lW+mofh2wP/+vvq6WN78mj68ul4/215Ng6lFVrjzDHohOSYJVW8VBBgZgYlZ7VcrMTBuZj1MBjFza1qe0c2N6ten4irSo3VERwpa4HyVE8P7OCVvn5aHuyH40M63nflmRBZ7kPf07Cn0w3mEUbH6J9ZnjMGntQzOyKecXTpzac0JrHj99C+l5Vi5YIWanky/KiQ8iNM/hmIiYQlUdQmi2Q9rxIMdMtNEOaCwAizrWq1BJBkgA7Nb7Lr8sHOURelFnDpnTBlnQH8NbiL/59JK5HyndLkwjW07t/LDGPlBFs605bAOu+SufFTbWVLadDrJZNAsl5fTYBgjZRMwpyqRlljidSIGOuoRDXMvDe10dw4IRFWb3AwFcf9gb9ypX/nzuDu3f6tW6PRMEMs7Pgkvnp18uLF4eu304Oz6qwKhYUI03lgMYsxgmqgr62ETVVMZvbOZ/1+trmpW1ujzU3X6xFQFOVpYZzlfScwsxCr6bQ4PcXRkR4cjN++LY8O+ezAlxNhQu7LwksYqJnvn9p4LEWRx0iibdwkpzRcdikvhb/elfwRJj8ctXuOYd6o1lUSGgBKy9g5FhFyYi5qckQnq+MmrVP6IzZVDqyRpNoKsa0gaA2vvcDxdUuIrNSX2tKWtACQC4+Ay++V71xdK3nP7gBWfvSnpvOHff4YVu7yyw3Of/PvzZKfg0kXgckuW7bQ+IJv/pzGa/Bvho7cUbouSJMOdZGsrtLVA0IAwCChlKZUmB05z86z82hgkohJiYkAJQNZHb6vCBFRWY1sChSgArDGYCEwIVVGQRId086Ib+/g/g374hP5/Fq8Maj6euaP9vn5d3jyRJ89r/b2JqenRRXVEIApoQQiMCYLVEMTWXQEISMgN+X2exZvgy3avs5XPpHdm7JxJfjN05hNCh2Had6n3iC3GLUow3hSHZ/w/oHuvQ1v31THR/7s2KoCBM29DjzKYJGQn+rOKW2dWrHJveDJMjHHSsQp07pBrU5v0JUgY0eO7Kpbu2Llyi+3u+/9eOgjTH4IWtzQjOagEfXEouaHwc6L8yI+Rs/mVSMigKRoomaXTHbHpAhKeUAMiDY7aNu0cZNW66zaYuuE2f5rcTaq2nPWOqpadCTFxKCvwqqFBbJuOTTM83zT88XWdedtcfn9mfnaC8k65+4U3bD37qMtZOU9h1d45whXjvadxwsYSajn0MUfbUWHzfFyEozmuC0zl+Kj6jwbNTQCM+Ndxx5JVtv1JY2SiVmYmcWT8+Q8fAafISElMUWS0MhPEmFKGmAhcpy6WEGDYhzp2FAAAFeQHsCoFFrB9vMsG/bzOzv6sxv42096P7u19cnm6bY9k8M9PH/hv/n/7PGj/Pnz/GT/OE7HsMAoCEfAuFFolkgiXHQIwxhyMjYaQAlaY1Q+DJu3wtXP7eYDu3avGN06k92qQHF2FqfjzZEoPMWI0ymOzrB/zHsH7tWb6u0bOjnpnZ31q9IRxdxPBxlNrVeK8ydh55C2j2m8ybyVccxZcgpCrJBIMVKpVIAqUAUEWAVUS+bJ5R+d/64Xfnc//THQR5j8QDSHlLYEPHNnCETMIs45Z+QVmWnQiI4xJmFYPeeoqXJgUAAd+1BXUpRO/yns0prtuGuG7AyXANOLSZNrjlcbqjq9vTv45L1lph8B0fz7ROdtvDdAdjtfuMtFjqmT9GCduPlDaKmfRfsCgxrb5Kyicp2dlWaSZStlJjc3EiIRFiciIhn5DN6zz9gnyHQAwUCptAcUZDC1GE2jWgykBVkgFIQCCSYRwQ6qiAUjesHGqH/j2sb9m/TVHXt4u3d7Bztykp0+L958Xzz9Pjz7Rl6/tMNDLscmVRArDBPFGXDaLjwzMyOAzTxiZubAWZN5i5k478nWrt+5Tjs34mC34NFxIafH0+pk4qpJzk77aiHYpAin4/L41I6O5ehYj05wdsbjiVQVE1kZKAYiIvY4HevpGcZjK6bUr0TMMxxr2hTUzBBtJkcuCJRzEuRS8oGFabbwLbf0Y1jdH2Hyz0BECSbFew/xypkaqRrMmUodudVY9ai2VS5sWCl3FRYxCV1Pjnr3se6NkZpY5xKav3IBCOfOm1ktYNRt3hUC8WNYI3+JdCloBOaM33O9LO2DlwXLdRBLALVTuL2RtcNJbGJTHxIzizp1pdumXEAd/+Gc8965jH0Gn1GLkSxIaWYi6nysatBosSaNmkyTOkt4VB8oLLBQnmdXrux8/vndn9zNv/wUt6/70RC+Guv+26Pnzw+ePuu/3hsdH2s5jRbrmpSKGBCsI3yRAUZGBNK6+jQzlAzC5B37QU+2NgdbW7IxilmvqOj4bLL/5lDHR32EjUEeQ7QQrCjLyWR8dubPxm48mU6nWhS+qqoQFKhIi9K48FlRxOl0Op1yMc2qimJkGDOIGcSmSefcgb05axGW2P2/XvoIk/8rNAOsxjyZQpSdg2XGmRmZkcXM1KumiOZ2ZlpTMM/aJANUuyC0OeTaLJdAXU7B2vONQNdVBS/rTLBiL1u5uc3W0jqMvOyKans558J1u/OfdPVeEBIu0mwZbGjVp+/xOOsE+ovAZH2wRoJc+e9KuiCU0prB0OyHuMlyLDM7JTmY6yhdZxl5uA6sYufEZ5xl4r34jFxO3sF5iIM4EEEJFhEpObQqxaAxVDHEOIYdE8aEwIiMgOTIo85Cj2jAsrGxEW5dsfufD778YvDwDt2+drLd2/fhxN58HZ48Kp/8cfrkKb3dy6ZjipVSLGFjYGKYACVRBVIzgWUWHUCgHBgAPVgO9TBlxFyon7mtrezKTb9zA4PdSgdnR3x4XL55PeGyQF+rTbPKrIo2LsPJtDqe0MlEzqY0KaWsJEYyVcCCcQF2BfkC42k8G9t4jMkYVcl9ZTKmQGBFplBFZXUNojjv17rSu3VBlMQP81r4i6GPMPnByRa5sAZarLFNpsSuKQLas2efEwlBYvAxeFXVqAqy1q3fhOCtNk8C0CaXh3bsl9JAsRpJV9FKndQks3rrdVdJPOwoT9851alrM1uPXnWTdcq6davrXVrctZ18cLo4Rq7nM1a0Of9GdMmHslV6b1qKblwJk+35FXnzu9oL6jRuhY75Dhcw9RyiuZsaNYWXqRl2G9chjecaAd6QWa10zZqAECIIkxNxIuI9+ww+pzxhpIdLACl1AL0ZKmCqKCIsRA5ThEkIpekx2yvGMRANmWAIeAOZ5lZtsuv7LLty5fSLBwc/+9L/7Cs8uLp/vfdNPn0dDveqJ4/C739vT57K3hs+GlsVYDFCJ4YjowlZwTQlqYiiaq7IrRqYekgG68NyWG7RM1Ue1cBhe8DXrsqNz3jnNvpXyzA8ecv7r/Tty5izDa6QlmQlYap2GuJxEY6m/nAqx0U+rhCjN3Np64nmi+BQei7sdEJnpzg9weSMy4JNhaJQSRAzVQtKhda5MFNW9gCEOsECFKSwdQkH2i/0x4+UH2HyT0HtNFqUEqzzm4iagm+s6swosDBxCAQQVJXMUlFYMECE5BDXere2buRYv1stRpIQpTwGq5VsHbrIfn3ZPf2vky4CHn+6W1/w03OkyfP7udTTUfOni+3LsN1FzQUEpUZxIgRiFsdeRJznzJNP+cFzuKzBSAJRYlFNI0JEFaisSCuTsqJqWoUCYeztDDijulRWvxmlE+73B6Pt7d6nd7IvHrgH9/u3P5GdfJKVe+XJd8evn+nzb/DiWbH/Vs9OtayiKkEjtFCdmhWGAIITYbaoFCJHdUAGyUE5KE+JEsTIgXOXDQf51la+vetGW5CsLOzksDx4Mzl8ezbMp+XQx0o1qJVRp2U1LsqzqZtMtSwsVmw1N1zvLWoUlKqoZRWLgstCy5JDSFwxQQGu2XlLGc87kuJi4lbr7Fu2tOTP4ZV/PPQRJv88ZGYJJknIGGpiJo1YxzAYM2kb+IHGTtlVdybbBtllQp8AUDe/60f6SPNE7a8/TfcXT+g3f9X8/wAAJnJOnBPvkWXkM2QZZnIkg1IyczOzlCeVq4CqgpYWy4rKKoSKNJBFlxKfN5pfAEQM50Yb2c1b2eefZw8fDj/9lHd3rT8t7ez4eG/vxbPn9uKFf/s2np1pDNFiQCRoMKuCBYISSMg5R+JAgc1MNVlGk2ZZUkkgAguyzA0Gg8Fw5DY2OM8DUVmEk5PJ0dHp0dExhlVZDULQGEyrqGUZptNpMXVVUcWKrHW3QWNQhcIsBq1CqCoOwWKExRn3TtQmeZ+jjzvDKnp/mGxfcdKbpLnYfto9SQ21V3Wv/VCpdy+CFsugsnD35Ue42L3rIOL6HyioVmnWak4yQkw/QCQqmaciYxZHkisZC8QpjMiYGcLETIERo6oaNCc4szT/K6sdzyLgYCnVXAVInZ6yttwkiA0ERh1wqUBsllLbIC2rTka9LudYv42G2Wy1bvPP3v2z1CAsN01vd037S5F0ji+pq3yfj1bOh5Xi1DoZa0H5ecEL05llJ/uO1rxLl3+jHYmguzyo/oRsKa3P4oNQinOq8Yw7JgBpbIroJKLDrJSYEag1jjrYAMgJDEuBH3VlR2sDQkjADAIR2MNlMcvIe84y+BzeQzw46Vopue1QVMSIKiCWoAkwhRaqZUAsVEtYBEgTuwqAKics4jb65ZWt409v8+efZ3/zafzqyukNmW6cTAZv/iDffc1PHsn3z/TVWzma8iSGaKVKYazQMTQgCtQDMKMQoBY1ZmZboCEoh+WwPllGcISYcTmSuNvnm1t082q8cnOc3zgp5NlR/v0r9/TV8PBgGxhPSqmU1CKmJ3L0sn/4fHiyp9X4hGAsZDRO9WmJCOYs5lC2iuLUF2MZn8jZsVWTKg9T6DivKoEosuCzql+EadACCM23PO/ySgEW5s2WWJoA7Txqd4w2BeayCeAvj94TJhfQLh23qe5bXFTVGGNKN7PQEgDzB6ua3YJ0O4B3Dn65WTuw9vzFkdK02WA46TMCZqU/CFBQIISElEyFyInIiQiM+yAlNuIg4gWsDurAqcRWpVYZMKDoAFOooTIEgwEBKKjGoQoogGAGoCQqqJ7NVZ3EzhKsxsa2pDSDSQZVzXO0NSmtnui1BiaC2vNz1UYMbcgHNR0imZ1mm2zzkla+ufdHSuuuwHP6udR9l1Cn7uAiGLlS5lk+01xFK9u0i6KTO6J+UszruKxGslXPQSt5mtmVHW1qWjcrhpqcqc1mq4AAJMN650FqpSjVEEg8sy9CITaDRge45tYpxokIBGtLbzrCENZnCOAVAyADyMDWpjvnVCeSmNll5vMqy817n6XYDwFL48RGMECNKqNgVgVYQTKBjBEK1VCaFoYIWMWugidTJngpvLder3f7yuTnt4ovP8f9+5v3PxnfGz4blfv8Zp+++619/Zv86bcbr9/qfiUnpgFTo2PjY0iAlYgVlxlVAiNTV5YJsvugXZMhSKCetCdwBCac9fh42xc3Rvbpbrx9o7x2+6C69fKUHu/To2f47oWfnjnnDs6mk0oJiDQ9cPtPtt5+a8dsVp5tAAAgAElEQVTP96uzI6FKnaqpAWBm6ZFu6HSEQFRkdtYrTv34WE4Pi/J02otjH08GZeHgovZKn5cb01BEO1XjzhxLcBiACqhmNkvEzkxo2Z0WXK3lzoGqXvgmDa/zF0zvA5MrMSk5pLQw05KILIPNMkCug66LDKMdQJJclzvpNlu4amWb9xNw0xM0eeeWNfjW7EkJjoNaBUQiZQYLsXJCJTIwQcEKARmRovIGpwpYVDOAbJb9vGbfCNLw/EKpAIBZYtjNkpdsXWaou60SDGgKztXbbusl226FOr+hd3dq6sJg55gwt5N238MC0Tm7+btonUzWpZW2k+4DLp8/53YXP//Oxu8c+co3s3xyZScf/JUuv8bZ90tEqD3OFuAT88LELN05NfbF5nxqLwRHcIw2y2mb/ZwBARExWCyFSCa3HefZZ5RS7TCDG4A0Q1RU0cpoVaVVgargsqBYqUVV07pwHYlSCspQEc5yt7Wxsb29ff9O/rcP6P7t4fVrciWfDiZv9eT56etX+t239uTp2d5ecXjGE5LgWCFgAwdQBQpQENIOx4A3czBm9Iz6xn0TBolF1sgCx/CZ9Ib9bHMo2xsYDqLLp1M5OtODYzs41KNjrQqbFqgi1KBqFipUUyqnVBUWq0q1Smy4zRZzMESzoCYxSgwUA0KABbApoAJw4mtSRVtepQm3NT9YNT1o1cy0zu+/bPqh0mQXVxJSdpuJyAImrdSyrlTYXmQMMcYuJK8TT7sA2b1Xe6Mudv4v1F9T0xSppaosaNI0A8Z1nkklEfbwRMRkaqLGRCA1KKspg5sAxs5u1RzPvpRaDEqRJNSoz6hpfwG65MtYnxr7I/1l0rumyYWXywx9qTP95stopXqI3DZoKtpQfadU98NBHDsnzrNz8J6cI3EkSR1LTTB8o2stKy3KUE2tmrpqyqHSGCNgxCyOQNFiMo2oMPV7ve2d7duf3H74cPjzn/PtXc4yHkxLPjo4ffVi79nT6ukTevWyODwqxiGvnFjSAs+QhprHIKq1z5IiV5ScsoPjJKQrGYMYWeYGw2F/Y+SHI857Bi4KHZ+FkxM9OdHT02kM01CVlgpTpp+oTcinmmq7qRlYTRW1W06CVVW1lFVB0/CImYg/1pm8BH0A2+Q5Dc6Bn5Xf0mVRiuapO7Dl4bVtzrnFRXS2K68Dx7pMFQFwsFlOnJoTN24Kk7PGXii2g78Ss23DkIjImAETEJuZkcIiKECEo7NAFimqIsYINYoWk5LXuPkGE2R6AwBnJlRHUdd2SoMBlaFqmLvQKN6oMwcM0CbLndZyZNN5x5ZZP0/no9n1NPcfAIJJc9aw+GmibsmRbl6hc5WoKxShNNdgdvJSwE2LgtP7wP66gb3HtStPrmPqO+0X6zi2B4mPaQQ+6xx3z7f/2rxWwGAL9bAsJQGYpd8zJD1b4llb2yS18Y4GIojNbJbcacCWeFqYGdlMlExVlp0TeKc+I+c495R58wLPcAxHYDSzOAIRMWgsYyjLUJZVWVZlFWJQTbrE0kxVmaDQyMzO93d25NNb5b3PpvfuxZ/end65Odn1YxST/PARff/fePatPX+uL1/SwYTH0QeY6oQqgCJgxj2QB6LFTLUyS/HOKe0sE3pGQ/U9ZAyORKWUyMn3HW1vy7UbfPUWXbleDTbPwAdFfHVa7B2HoxOdjAtCCLG2aKnCoiIEDZWGSjWqRlM1gxoZlIBgFsySbUYUHNXFhJTGakJwIEfEDLAZW6fYpHU0ru1BNw5kYRJ2V9xKzcf5s/Qvhn6Q0vX8NgCWrZXdNj+cn1nGyPbuczXBG0n3HInzfNeed41DIVWtuDeBeVjaPhQUG+wRgBNYWuhX1ZVKrgW/49BjYhCxibGCzQhm5iowE0AaqSQL0KhKMVLQQGZRVWFwzbgl5UZHslmat9ptx3dgMqXgahYDabORupmDhoVWiwtQDfyzul3NMak1zudJ6WY1erYvkTpbuVtaQd1FtXDMq86vu3buO1hqtvzROxGvfQ/vanj+5YsnLz6X1rW87ErhDsJhCR07beqT3eMFjJyHSRAaTcbs2IioUz+yA5MG13HhaY+7dYipMwAGsRKITOt9vymtVWejc95Z7pH55LZjuVMv7ASO4JLDnAERGqFl7dEaymkoilCOQ3kQ4wmsAhjowzINlkxuItzr969ctQf3Jz/76vTLL6cPrxW3hq/649fh9I28ecSPf0ffP5FXr+ToiM4KiXCgguMZx2h1nEXfmBJGq7ZrJmsWoQf34DPkDCkYEz+1ntloQDs7fP0TvnEHV25Wg60TdW+K+PJ0undUHh3p+KzyPsagSZrUaBaihUpDiDF5vsbWOUBBZFBY8rqpFKLGUWNQC0qqonBEHpxqU5vUeU2si5RkS7GSC0rXlqx5SiytuO7c+4un94HJc2S+BaceZl5n8/tQMv9KbW2Cw3M8b5cH0G3//jLljGh+rqB7rICaliEWRVCJLEac1Eq1xoaISZKLKjEBEZxbjBwCESIAIsQIjWbJnlnvg9bZy2bDWNofu0lXWnkCSC4brT8ONbnEGs1t5zkWgWcpdWubMGilMEeday9yvO7ayxK9q/P36PD9toPLNl4nE697vQsDo6Wmq2dmt/3KThZxtGaTlqG0vWkK7Z3D42b+de2UNN9zap7UlkzExE6c8569h/fwnpLDjjA1SxtqSAnYYkQVrCpjWYSirClUlWoEacPv1dISM3yWb2756zeuPrjvvviiuHevf+vWaCSH4fD10dsnp69f0dMnvRfPp2/fTk5PUVaZEkMUqIBUWdkMzjgpfRVKjec7N6yBAI7Imzh4gZjYoN+XDd7YGmFry29t90cb0u9H9tOCzsbl8cnZ2bgsK1atfaYMsKRhrXWpMeFmR+Naq1k0/aTaH9FijBqjxYioSBwNJ7Vr4+e1KPNY5/dFyJam0I+NLg2T50DISikzyXDv7PAHUgK/NvhkeYStF2uidXLtD0bKC1FyWK20KqtCi0yaRCHCyfmPiAhSG/lMQQomhIA5nt1AVhssWl1o656zZtzUOEBSDZbN6RYdm0eeYzEwa01zN+juu8vBNnPIvTwWdLpouutidnPreeq0P2firOHiViHxD6dzkXJtHqL3vkv3cPXr7TijosUeS19iPQM6mDTTuy49Ai2coc6fJWik+qZmC0PqMmXUgcnOeWoRt/7Om8+ImImFxTknCR1bsHRixJyUGSk1aSoeGSLK0soyFmVVFmVZFlVVxpA8XZJ3jcAAi4CyWN7r7exuffbZ7S++GH7xk+qzu3T9Wq9/9KZ88/r42ZPXr17ys6ejly91/7CYTvOgDHZESmAyUIIqIrBAuH46S57ks5x7BCEScw5OIOzBw4HfdJubm9jc8ltbbmPEvV6Iblrg7Kw6OTk7G5dVlZm6pNM2TfgITbZJTSipbdXI5keT033j5WAaVZuKmqYAJ2cIbt7ch9h/f+x0OZhc6f+CBlTWSW/vBML3c5xZsEeuQ8GFsbW7+cKD/GDnnVYjsfCw3e0gZVVNbGxULauqMPGxEBZhJhJinxg+aXoiolRcyxqVrCFVGWKmChQFFE1ZzVmdxd8RfFMlK7nRx0Yx2zx1XX4hjbCxR5qhLheA5DrXFN7SNs7SEAHq2Cm1eVqjVg9b99UqZFa+1e7yXKjkZavaLLxYW2q82P0KovaDD8j9dNBoER7aBsvnab79muHOruOLvZa6cScGozuANHWWhcKuvnQ+cd0K51UGxOb+rS+k+jwAMXjULmOuEw/gU8K5NBtbZSxBGi9ZsZToFIltBHFgVpHgfOk8eS/eO+8yxyxEklS0Wju1Bk0Flq0KVVmVZVkWZVlW4xCmFiq2KeNUcEqmCo6cw+U+z3e3szs36N7d/MF9+fLO5Ce9lzfPToZl9K/+QF//K559E97sVy/27ehAp1MKQZVKcxXqMgB9IDMA5hAdjGuVpSbvcQYysCN2wo6GmRs5Hjl21YZWO5VdyXRzw3auVzs3sXE9DK4U49FxlIOKDiseR45GACdp22ZO9C0IWsJjbrzsFQRQXeCDUCUfoggNZsEoGEcIwxs5IjCUNSIogi2qWBUwkIIWjJSxEZLbWbGOD/5RyZfvKU0uyIhdlOoaC5MzJzpQ1LZvxbVkLHw/mGyP0426yJdonRtRF1Mbtsp+MFLOnFy6w6zZ5BnrXsOkxSpgqixELOLECTuSSGDXCSYDAIiRGKKC1QhGMAYRRQgAA0Wk2Eg0eaeUatEslRlKJ6mpzJ58fxrPGlMys9nAGpi0xtqKCAgovd4ItCJlij5O67ZOM9vcd/Z2Mbdlt9TlKrRzvAYvVwPJQt27d5E1VVU+JDUdrhXjV8JkF5nWMZELG1AXU8/nO7njNTMbgNUftSeX4zRoHiZX5Hrt5FxdhMmOS07dxkBN3auk6HQpXWqnTYJSabJKObMR0AcEFJjP2JXi2Dn1Wek9OSfe9b0TJ+QYbMRaK1o1IoZa3VqGqgyTspyWVRnCWOPUUDEKj1NvJ4wQSQrpUW6Drd6NW9lXD/zPHvTu35P7W8f37cnm6TM+Pcb3/42v/295/gSHJ6f78ewYWiUO0ReNetOZ9VrHvDrXXYKO+s0kt1zP4tg5N2AZidsU8bRB0x3Dbm6bo7h7o9q+hc0bOtieloOjyPslHZR0FpL7QK15NqU2OLtdxonzboOUO8vSUpyjwFw0C2bBEMERXuANQmnEphR1Oek5tatyHiNn630d+7swW7Cm2V8YvSdMLtNK15hljSt1ohs/IC0YI7uq1wUZtzuAVqxcZ7D8kxEBZAaLFkMwKqOoU2HPHJiYACIjNHHdxMQEMxZJpkRmpkiIxJEoRg6h0aloixzWJkbBTMl2zoDOCeRoCh1Ra+Zs2iZYpLnsd7S4iy/fekGkO+fT5ePze17uvHN+9uWuVwW/D1H96zz96uL5S92+cZLCBaVhWtVmyUy4sJetPF436oU25zMHjTK2c9Na79roaWsVeztCSiFSLM45x86pcyoCEaHkC64WDAKYQiPFiBAsVgghhhDLUJaxKEMRQhm1VFQpPKRCZSgEKs4NRqPRtau3bl/9yb3h3zyQ+7ezq1eyvlU4OD7bf332dk+fvcj2DsPRdHymZQUzCKHGeEumx8Qa1jnnOmyIkAixiIiwZCRevHOe3IjcBssGOe83qD+KNMyywSD0+3m/J94TsSqVJVWVhhhVo0HMLFpUjZbMkGnuUsd7Ee37s+Zto0FrqCKqxhgtBIrJ2YeYWZhSjOnHsJCL0KWVrt2DrsvMusbL8LlsCPzh4NTiX/ffdYNPQ+piZDuGHwbhF+f3k9okqJUaWCGsUU24dJI5YiZjUk5h/Y0lJ4ndRg1PwAQhikQhMJExIQRt7tzKjolJ52ZxcSM1djNuNF9i+kWJ26jv2WlT7242d7596nZhAo0xE8B6PSRWvaKuLXMJINd8L0tnz8FUNMzAEpS/PzX3N1ozwjWo8+77zw2Sut/SOy5uGaw51n6dKD2fdmjheBlWF36ajdbWiaEz9xyq5cu0NmtdIlGtG0EKFElGheS1IzXUOMciKmLCwkQwxJjs6cZKGhECqtKqKoYQQyjLMC3jJMQiWAkkpYgZLCAYKgJl3g23Bjdv7nzx8NrPvhj+zQP6ZNdyb/2DKU4OJ69evXn+ND57Ptw7wvG0LBBKpKEyQWudd9KsKgGOIKlQl4EgwsLOi/fiXOZ8Ku3F3pPbILcBvwGXYRO9jUgj70cjGgzyXp+ynJijUlWhLK2qYqzVY9EUUZu0lTbjxloeo/kea7Bss0qaQc1ia5sMCk1qXGJhFqph8iNSvosuB5NdKW0dnCTUCSGoajdN3TpRrxu8kaTPCwJVUrR2maoubC/gn6pWVQVARLixXy8P+z2FXWMzbyZIuyUiOKCGl9RVq82IoAgcAd8ZjaNkRlvRdtREo5Nyh8+GKL05ZmIGhEFN/XYiMBG4hklhqCA6cMUUjCojBwpJB0WW/CiMCZmZNlmOu0EjSaFqsFRGB7WCZRY3WTVtIuAam2UASdMm1vGXAMCgNhNel0u4iHaR673aFoS8RnZdS4S6asri97HmXivPvx9eni8/LbekpZNdtdWaMdiKowsMeAZI8wObaReW7JHdWI6VdspZohyg14nl4GbXps7JWbK6RtHKBLR2SmtksKSHaKI+iCDEjpiJSRw5gRNzYo7NE0uKJzZEbVhHQ8qZGoJVYVzpcbAiIkRMAsZKZROI5QBmkMeoJ7zZ71+9svHJ3cHnD/Dwc314fXrPHe2cHlFx4p//sff1f8v3j7Zfv4pv3/qDaFPJAorIkyhKKaIMxmpmrNYDRobMQITCSeHFnJDPrDdA3uc8V59Fl5HPnPfsNuCukWzCedswvRpp29toiK0rGF6J2VbBbhKzcUlFRWXgEC0FaBnMLCSkM0OtZmK2xlm1/ZKs4a0CoUw8DOA0WogIkWPMovUi+oYcJs7gFb6CBMSWWbLOj9ZZKusclu80jsxNwg/GiP4fQJdWur4TQhI+hRCqqmphsgWtdKaLbQkmE+BdKstrunDButnibmsWTRRjnE6nAHq9XpZlWGVefW+kNJCpr80GHIwKoAKBwAYhowYjWy3/CfDMeGIuj5hEA1QYripGHDJ4Z45EIAz2qc9aGiSu9xsRUoFqnfqVKhCDAkGggRApMR5kUguXZiAxy6g2abS5WxU4A6adhdEaOKT5N6I2cAIQ1I8DIADchKpxbWaq+2zffHerXUmU3h+Apqt5Be55dH63y6Srzr9T9F/Z+WUEx9WYus66s5IuN0ibSz/WSpNdO/E6aJSu/Nd5ohYCXScjOeY7lM7JbnoBj1qb6jpGU7EmNcEsXwEJi2PhlJQqeYWmqA8BsaXqh6SRTMmMFIiGEFBVWtmkwttoU7VomBqmQAUQMEoDZkhOG1tZ79rm9t2bw68+s5/cp88+xe3t6Q287p0+CW9e4ps/yte/p++/H+2/1dMxpgqVZOOfwhM5IiYKygWrEZAr+kAOGChmUgwyyjPKezTcxGBEvT7lueW5Zrk6R26D5CpkBPEYmm0HbHoMB9jcQX9b/SgYptFPSpqWqAJFhdYmQ1OLQS2mFLTEYDZmMLfpdhtks/SSAlnFAIFhWTQERVAO5gIyRc+QMcSDvJKLJLGTYQANw1oXx11y7aE1MNmdnz82+fTS0mR7vOz1mn7HGKuqmk6n4/H46Ojo5OQkCYsi4r0fjUbD4XA4HPb7fedcku0uC5DtTRMGt4hblmW6b6KiKEIIMdbpepm51+ttbm5ubGyMRiPvfQvY5zzmn4YM0FqMhppGAFGtQgWuVEkjOwfvLLm/klGrd2x/mGGKxE+2pX+IXLBoZgC3fjnJqqGmQC1lzotp3Yelpe34Uq+CPqQ68yP9eWgZ7NfNgZVTaGX7RcyuJ2z6k/5PXKDAORAhVWLlOiwybdsGg6pqrCsNhGhBUYUYQgxWBarMglm0mdxTQzLBOSebg+1bu3z3k60H90dffkl378rubt/bYXW4X+w9P3rxjJ4+3Xz1kg8PyrNTrkJuRJCU5E2hQQODQDG5lBIRE0lSIgn1ehmPRtLv+f6Ah1s02pDBgPOc8h75jJ0jGYF3wEOI537MRyUNhAd96+Uu85FJqxiCViWqykJM2ZtTagUzo3q3sIZj7lo2mt9z2hirwyebyEqrlUAEYmoSZFJtpfyx4doHpveXJrswaWYtzk0mk5OTk+Pj46Ojo2fPnr169QpIM56zLNve3t7Z2bl69eru7u7W1lav13s/jETH6mlmZVkWRZHue3BwcHh4eHR0NB6PE0wmoTPP89FotL29feXKlevXr29tbQ0GgwWkXLZxLtz0wvbU+U/rYLUuF6ZmQZUN0ZJu0zRYabFUpaguU4NBhDkyNUacFF7JzYFpbYRvNhpu9hSmFE6pZEampApqjJFmRuBGiUqNYFGzkx2Ya78U6ZSs4s55BhjWMpjdBDrd90BNg8tC6EXaX0ogo/l/L9tD96aXkiaX7jKXH+fPRd3Rtsc0f7ycnYc7kijNi54LWlzuHM93UtsmCY2dMukOmcgJOTFiCEOImISsjYuEwmKkGM2iqaKKsYwhxBhDFTFRLoASpnXhp7rGnApBhEd9d323f/d2/vDB1hcPBw/v2Y0rwXNwhwe296z4/puj50/t6RPe2/NHR1Ux9UoZMgIBkWrlcoQSKIAiMQkTsRjEGJx7t7HBO9vZcOAHQ97YxsYmBsMkTcJ7iAP3jXaAAVg4jzwqaMgY9LTXF58xO9UQgoUSMdQ5BJIeKbEIsQa8NHeoVi7VOtfFCKH0wpIDK9QQFVGhRmpi5JmdMNfmm7Rr0Lmz96+dflCyOiJK+XeTUAhAVZ88efJf//VfT548ef78+eHh4WQyuXr16sbGxtHR0enpqfd+c3Pzzp079+/f/8UvfnH79m3nXBcmLyvJqWpZlt9///1333339OnTFy9eHBwcHB8fJ0vkYDBwzoUQiqI4OzsD0Ov1bt269fDhwwcPHjx48GBra8t737VWdoNYFpTDCwJ0i6kp8Yca1drfhFzJE8aQdhAjhkWztHoroDCbxFiQDESmIGdGiGdRjzVm0VyyPxB5NcfmRCVFinGbaJkAgdabjYGVvWk0F9RXFpN7XLCYHNygUIFl9es1NLtYTPiaDA+GOAsagU+BJYACvoHVpjJXMnDOksRGIDTQE2cFd2hx/c4ObFlXAxB32mjjdGKrc70arXUuXe232xYFXXXrSxCtOl4zktVOTOviZC5403eTobU2LSBce9wMwLpKVzdvYmwfqr0wA3pA3kHBtkFX6drtZK6QVoOUQuSI6106LTIROA9xkSi5j2Yc6yGqppB6RKNKKWpUs2hnAYeRKvNqOATeAiUARIVGUCAjT9Tz+dZm/9b1/lefu58+cJ9/Jp9eKz7JDjYPXuPwDb945L/7f/zzP2D/bXh77E5OUBWsUZFNkRGcwQjVFsqEPhEaSJnZZYx+73QwKHq57/d0d9d2d200wsambe/a5ib3+sh8zJ16BrMg93HImpsR+Ur6OXqMXk6joXCfoyAEjuwAb+SNBEqYJPYuaCgDlRGVQo2MGNLWngbqABRikIEirACU4BlZcodSo6KiSUnjstfXHedGzsEoWlAUoJAUUUm93Pw01cjasmQJnudW0EWm648BfX9QhRB0DISqWhTFeDz+wx/+8K//+q/ffvvtixcvnHODwWA4HA4Gg5OTk1evXp2enhLRt99+u7e31+v18jzf3d3N8/y99ZyqOplMHj9+/Otf//rx48fPnz8vyxJAlmWj0QjAYDCoqurk5OTly5dHR0dlWe7u7j5//vz4+FhEPv30052dnTSARKlGJhoJeFnP3I2wtCaOqc1m0XDL8yWlKO0mRpZikpLzS2EG2JS4IjICqZZmE7OgKlynXIyqmTNSY6eglLuOm52Pms2KADYxU1WJcJ5jtBCsKtPoSA2Ag+WzjczEgJTQkhBBaqZN+FSCIqEZBApRTMZlgJoCXtIJe4+dFOfdunRNRvg0ELSp9dr8mwu0MmH3vJJ49n3QGrBZuYatIyovKqjW0run5UqZbLnN8plLweSlmH0DYmfkHRmu3u8IJvOo1rVNSgdHF9x5ADggb2CyO6oGJtOkbG8EhjU3IlfXpCQhFuZkc0k4mRStKi6KRCKwsUQhYxhpytEaESMqxBKJCTSls8hvwCWYQMfAUW2PrI1ogYRy6W8P7eZV/+Cz/k+/8j99yJ/cclfz8ZXx62z/UfnkW/vuf9y3/697/R2fnhXjWE0oBKS8GWXjc+SBPiqBGqwiKxjiyOeu2BoVuzs2GmI4sitXafeqbm7GjU3dvWKbW5z3KJMqg3qAoOq5zFGJRSWuKPOcEfVy6vWIM4qMKBRZDA7kQGKRktOAkapWMasioiWFL4MlKaYx8+KhJve7hWYFRIAUHJWqgKKiafABI3ED51LJIaJApI3+WFfoCVYspovwl7R08BdMP0iaZOYkC8YYy7J89OjR7373u1//+tf/9m//RkRbW1t/+7d/+/Of//z69euj0ej4+PjFixe//e1vHz9+/OTJk729vfF4vL+//w//8A+ffvrpgqvqxUcSQjg9Pf3P//zPf/7nf97f3wfw05/+9Msvv7x3796tW7c2Nze996p6cnLy4sWLx48f//a3v339+vW///u/v3379ujo6O/+7u/+/u//fjAYtH0mn1jn3LLZciE0s/3NbCIznWNNBFgLkE2oU4JeFku50aGmqiGwMLFjEqMMcERkhqoKMcYqhMzgjdWxap112gwsc3ZKISEzZmaGsIWQYkZAAFNk5hicQpLbnM7y3iz7hnTndxvNrI1zzYLVh1atgvb8quVEnfSv3aCvj/SnoDlHyNYvcm3rOeTrXNtkuaNm3q4T4ufvS8kzm5tjIfJMTf45luTPzd1pnKQjs5hqQYVagrMEk4oACwjRosGsrisQEQ1c1VljiOqi4yTe55sbu7eu3fj87s6DB4PPP5fr15HnEosQ3hzYixdHL1+GvTejgxN/WsRpjAHaRG4aoNDGDFFnlWKwsGWesn6WDQfZxkZve8uNRn5zk65dxdXrMtqQ0YZt72Jjk/IcmfgM5gwwrpiLjEpGiACzGDkkqKPzPPzNgBg1xQ6ArHlNc7oC1LZINWAWcF07QajGaCG9tmiqRCScKnSyOGb5WFXrHfT+0mQrfjFzWZZnZ2ePHj36l3/5l9/85jePHz/+/PPPP/3001/96lf/9E//NBwOvfchhL29vSzLxuPx48ePv/nmm+l0SkR37tzZ2dlJHj24DFImQTbGWBTFd9999x//8R9EdOvWrU8++eRXv/rVL37xi7t377Z+OuPxeG9v7+bNmzHGk5OTR48e7e/vl2U5HA6/+uqrNMK2z9T/wkjOAXIiiKSci40VBYykbqUOU9ZCLByhB/QMEcYWg1HKRRxABRASTEazGBGiGJGCYvSqjS4rxU9yi5QkKVzEoMgzjGEAACAASURBVAZlMFMM7V7FFJhJlCTGlAaSlLqZIlr+cV4vWpN06j83CpnmS1gFclTLi0vfWNc0O6/5XBby1mFnt5Ou3at7SbcYVvcZtdP5Golz8UHOp3NEyfPFynlAejddVppc+GZbgW9dQMiSjjTp9NvQxsZ8SHA2J4kud57mfHuhEAlShgx2TK5JKMpUo0NrpagPgGTGQKzMYl06SptKUgFFoLGiAhQ4BQpoWWfikaTPINEopJn3o9Hgzo3+F3fzh/f9w3v02Y3i2rBACHz4Ir74Nj77ZvziSfXmJR2d9MaVVaYxFdOhhjEMAECkTcghMVGe80DcqJ9vbblr1+TGdbe5mW1u8dWbuHqThkMbDOLWlg2HyDJ4pgwkChhVRBOhqVloVC/O4B1J4sjrolZNRktquNIIUNRYBQqqBkDYxBmLNuqkxjug9lxKMJmyyqacroiKGBECQiCNwuIEzsN5OEfMdTKTxtuAgbY+2vLPXyN9mCw8Z2dnL1++fPz48W9+85uXL1+q6r179/7xH//xiy++2NzcTP6oWZbt7u7+/Oc/n06nf/zjH1+/fv3q1auvv/76f/7nfzY3Nz/55JPNzc0km14QKWOMIQQiyrJMRLIsu3nz5s9+9rNf/vKXX3311bVr15xzyXTqnMvz/OrVqw8fPkxOsN9+++3+/v7vfve7O3fufP/998m3qA0sybKsG8G5kIdvxVBIDaVSpVAYkeVsWeKf26jzGK2sqlBVGiNZLnZNMTJEwMMqDWZRifZAp2mykvXZ+gQyc1WpqjE6b9FB2dQhc2bMDsJA2nHS2AhmUEZkjrV3T53QJDIHImaK0WINtLCUtQ6+cQ6UDmK5ZrFGwDVIGYGsaROAqsH+UNdLADq2SUuF/TqsbTuJ2qARq5NjJRcNkpnNcqat1TmzInVhst2vl6blCnG5e3AOTM7DbedrXnXJAlJ2D85BSpq3/L2TLrJJtQ10xoXUe1+LZJ18cq0udM4e2ZgPjQCXmLxk+aI6gYAn9AzZ0uNQ2luJAEtRSkRIceyuVqOQY3aSotqbysAtRgKAGSHV+AgWRCtnlUUzs8psaggKMzqG7AFjmIIDuISG2tvFNgBmWI/GW26yu9m/dXPjq/vlzx6+vPdZcft6diV/3T99Fg7exOfP+Juvw5Nv5e2eHh7i7DRO1RTREDXZHoxQCRkRg2AUA0VyzmUubIyqnR23s627u+GTT4rbt3Vri0fbsn2bNm9QPtDcT4ZZOfDmBY5iZuoAgq8s75mUUavAcZKpEw4kAtcjTjy6J3VsVLMhpKApKBgoKE2DKyIFYhNvPo/iA7HW/nz1t56y7DDBGMqIhB5Mm+LUVBaumFpZUJZl7HKPPFefBREDucbS7wFfl+tsqtUC1nH0637vmGesf7T0ntJkF0JijEdHR0+fPv3mm2/++Mc/xhiHw+Fnn332y1/+8s6dO4PBIIQQQhCR4XB49+7d09PTe/fuffPNN0dHR0+ePPn9739/7dq1jY2N5G5z8TEk3W8CSwB5nt+4ceOLL764d+/e7du3R6ORiMQY23jN0Wh069YtVX316tWvf/3rt2/fvnz58ptvvvn222+3t7eTQGlmzjnvfddtB430vDwA1PKlgQJQGiIhJXp0i5uaUaqCAxiZJ2wQtgA1BEOEBTMzVKCTxCMytg1GEIJTZS1h6s1c+oFlZiJG5iAQoZR+CpzE0MTSp6x3DUwGBhPFSCEkrRlpSkRQF8jVpFtqXHVathaduMnUd5tSIHRgtXscmxTJikaObt9C83seJut8BQyLDQpanUc6nV+d93XBEWYd8i3D5ML580827+NyMLkO0hYEuPNpWfo8v/ESTOL/Z+9NnyQ3juzB5x4RAPKqrLuqq6urySYpDUXSdJhGNlrTl/mwZvt3z9rMzzQmk0bHSKsRSbHJPqqq68zMykwgItz3QwBI1NEUxV1bM0kblp2NQiIBJICIF+7+/HkXJs0tmHyQWdMpCXk7h7LGUYJTcqRWVwddvVMCVEqy5ATAGGtMDZOGLTM3MFmbrKn3rOhcIhqjxigBEkQCRygQFCVQKVRpqmk2KRHEIFNrfWsPUhDl1vAoM3sDc7S//uzdjU/eD999r3q0Nx/3borZn/Xs9/H4S/nqZfnVi3j8RqdTvqlkGaNfPZRJeoNJmCsmMIMNkWHKDPcyszmOe/u0vUPbO/TkCT0+pPEY/bH2H6HYBWfe0jynG0fCBINgVR2IqbAgji6LEqKNFl6gFQyDXONzsgATQEqkxOlcUCk4CJc+VkECINaoy6KxAqOtBd5cvzos2zwvIeWRhAAfqPJUlRw9qbOsWa4uE+vEGNQxY1XA1nUR6okUt76B+g7fNZO+psv8/bRvmRDSaut47xeLxevXr//nf/7n5cuXk8lkY2Pj4ODg6OjoyZMna2trAJLUQIyRmXu93v7+/ocffnhycvK73/1uMpl8+umnBwcH77333l/rH0/ncHNzc3l5GULI83xjY2NnZ2dtbS2ZgykFpT1nEcnz/ODg4N1333369OnZ2dnJyUk6gf39/eSh7Wa2tL/3vgF9Jxmmdm6CDAxguKVXd34QG3aZc5mzzhprtCKGNYQACvWupDFfBGDVoBBiy8RBIRo1pDOJqlFVoxgrZIWcc4AhJlOPk9REeijdJWaKsS7lEwKYyRACI5V5TiXNU2KWqqjWeSNYDYG1FFCdc7kyBO8gxG3WUu33pObyo3WoNg7R1XcbUuadT1p5tXbE7xwNqdO256DpHty5Uautb0n8aP31v6I9hFJ6b/2tfdK9je+t/KZISegYXV+/vaIhJVJ7el2bj+qTofvr6eviju0BbgU4V8ut+Bylh4+IiKwx1trazcpkGK2UqDa3ZfWKiigSU8FhVQkCirUPoxYrbnOB61d7YZRBxtgsz7PN9fxoT77zbP0776+//254tLcoMqkWF+HkxL94fv36y+Xxibs4tzcz8Z60rjzZevyTQCs3sVJj4JzJsiLr9+1opDs7sr9vd3bt9g7v7tntbR4OORuoyURVvF96nQaaLCkSYFV6kXrkMstkRInZ2MxwjESu0eJPCiS3rnDH0CaoxhC9DyFEESgZWAvT2Ov1fOO2MAfVqKdpsBJBjBJjjJFEDRFbTiXJTO34TjP+zkOq94awFVJ+g8fw76t9y7LM7XKCyTdv3iQ/6nK5HA6HR0dHe3t7GxsbCXi6vkpmHo1Gz549e/HixRdffHF8fPzixYsXL17c3Nx0RXO+4WkkDDPGHBwcfPLJJ9/73vfefffddFygzuZs+avJUhwOh5ubmzs7O+vr65eXl/P5/OXLl2dnZ+nT1kJN898WI78hhNOq10KaGlNt+NCyMYZT/JwdM1ljTCVYxCCaDM00mkcoFF7hFaxEqqVorB2k3gBW1UcxUY2ITe5SShlmafbSiMEmTqxhiKHIMAbGwxgEoyZoFJWoIXKMti7xmqpX1pMARd19k+dNiaAaKB0g/dy6P2kH59DJmdPOq/0zfYe71mQzR5VOEFQ7jtYGmKnZyao3c6dP32+doYOa2mJoTuHrt79/b99qTTYLdPvPrzMoqWOofU27s7e/uHHaoJvbSg9Yk4rblmW31tVtB6w2gNaYFFormK7230gOg2rHPxMbIpNoC9Za50xyuTJTwp40tCsg9SOvIrXchopITTSJqqXCCwRY1mFIQHSqugRKaIRaCCeIs6QZ06CXb64P39vTj57gu++uP3tneLhzvVHchMVlefqVfvWn+PzzcPLan1/r5VTnS4pKQUMnidgwmMBaU3TVEWWM/iAON+J43a6vm0dHfPAe7+zq5ha2dnhtS/LCU+Zjr/LGe9xEOSNcESKBnPBA3ICKvhpHgUiJ2JCBI+RN4MPESIERmGNLN2BDxHWEUSECH8RHDQJhC5vBOuVbj9CdB7cOWKbeKYIYEDx8hRgAZZOqW6uxyoyUjK219havqp7cfVDpoUP9/bdvKX2eWoIf7/319XVKsSCira2tZ8+ebWxstNvned7i1nK5DCHs7Ow8efKk3+9XVXV5eXl+fj6bzaqqyvP8m0sNJF9ur9c7PDz813/91w8++ODw8PDx48cbGxuJkpoSOtNJAkiM3OVyGWPs9/uj0ajX68UYLy4uptNpgkYiSrXOnXN5nuM2QK7Mok7mKDUiOU1NYVWFBA0BgBqCqS3MlJcRRYOx6BU2d3mWZdNKw3IZgsZav181OYCwFCyDeFKjjYtMYaM4eKdqRDKJhYZMAxAZUdWRmmYaipoe3srVRQNrESxCQIgxhpD8W5Wn4IsoiSUREVPaqNQT0ebOp3k/1DbCsABiJ28yNM5YbdAufcsBZa0VfQsvo3aWm/WNtzCZ1NRmlTRz/bSb1mq9o2yH9q/bztVVLLO7Xu589du2O6ZVOs4dSLsPb1/jdH3wu9SxuR/c4e0vruKOXYO7K7XahUlHDUzqCiZRb5y+rkbRJHjUgoUNpW3F5GubSeQcJjbOWMcJPamRxagnKWlmJCoqqcywxhiDSiCJrOJVbxqYvCG6AJaqophDr2uYjAWEACbVgZGtXPY33NHB+AdH4YdH5ZND2tooB/yluf61nn7hvvwy++x/8NVX7mI2n3m/DDFIotEuY7ollDEyo5YBoDJYZIiF4V5WbW2Ve+/0tvfWtnZ4/4Nw8KFb38kGo1j0K5P7ypSBp6WdLs2yxNzrpWIKUoLJJBvE3oiGI2MKHuWUOSIHYsu2R7AAYsyWRHNDc5NVhiOzMpNxxMaQsAZSiJhKeBm4jOzJqSvU5sqZsgUZRbhVvY4oNgqAUZRUWCJi5OBRLalakgyYxGXqMjG2IlaCa3pnmjPFRq4yCTgLKMHnnVnmNzIe/g7at6HwtINnQqMQwnQ6PT09vbm5YebNzc2nT5+ur6+3NhwRpfyKBEXGmGTP5Xmevpt0c2azWct3/eYty7I8z7/3ve8dHR2NRqPBYJCswASNbVpne/KtJns6pbReRJJeT4LVdmO0DpDbrV3zoJV5a6xuB640qRMR0SxzW+tr/d5GnhfuxoTrarFclGUAkNQ3ai48giBSPfc3ChI1kEzVi7KJIUaVCImqQipWAokjY8gwMSf2DrgZJJnBpn6ZiGChqjEiUfNTPCiGSCRJtygVI2judbtAnU7CHW06VnDj5unC5MqaTMUVmvWmY012JQU6kKmd9d3ky9VcrT3QW2/CbQOxC4xvMyj/2vYQTD68stvucHS/4Q7p3gYPfrHBYG3/bGHS3V+mBiYVuF1L8o5KAFEH/gm34dGY5q1+T/3GWDau7kGtEdlxmqqIJnegJJpDFImiAhWBLhULhQAzxRUwB0S1hM6BCqppECc21tpRr3cwHj47GH3wbv+jo/jdR7y9YXMuMXtdXfyhfPl/VV99ZV4d5ydXvWnUEiqI0hhatY+DQTAcLYMAcWQLY4Z5NhqE3e3q6Ah7j7G1o7vv684HMtgILiuDualovog3C7lc0PVCFyUWARPFHCBDLjc9r1EAoSLwQlAIGOCMrLHJ3BPloOyJPJnIDAMyTOkiArU1qRREq4DSI1ijNiOXs3PMttW4b+4NJVnXuhfVqxSpkEpVIXiIMKtzsA7GgKl9SBpr8oFX9wnUv/Qo/r21v9qabFXFW59kSvA/Pz9fLpfGmPX19SdPnozH42SZhRCyLEvWZAoWDgYDEUmqqjHG+XyeDMrr6+tkg37TU29osUSUTMOmN97yl95Hu2Roeu/LskyYPRgMvPdVVRVF0aoCfY0uXRcmVRVa17dK6zjlTzPqx7cOHahIqo2j/UH/0aNHo+Fhr+hnl3lFgSZUjxRoQp3185esLiLUCvKiAopJKj4GI5GTbnyMNjjYYJwzmSPTivU0J5CMhSZsadiwqsQIIjImVezjwCaESEQSo5KIaNKebfPGUI+Pza/HKppxR1Ghsa3b7esYLjrbrJYJzQW/DQwdS/6B/qh4S3xRO/25+e4tv+z/i3Ph2yMFdXNR3o6UK4C+fw5vtSbpgfUPnI+mT++GHkG3LMvbuEvNzvWBmpRNqH0lp05NL2NOta6MMcZYa0wa3ikFzohABmw6152QJmAiqGdmdcgsJpSUUCsHNFJziVOWSF5R08RIZDX7ITI2K3rFxubW473H7747fu+D/PE+xuPMcYyza3/+5ubkq4vXLxenZ9XVfG0hWqXirEh1qZLgB4MNGa4dQ6IKa+1gWGQbo8HGuu7tjR49Mrv72ea2bmzKaKQ2C1Hny3g10evJ4nq6vFy4SZmVlZaCG6LSGHa2CICpjIOx+cJwyVoSDLNl0lSLWjtOFhAxmBMlr2nESlFVYxTvpfIUmGGczbIssVSZk9sl4fyq0kc780z/iUiMIUSKYgE2ZB2cI+sMmxU/sZk80urV6ez6AIXnH6J9y0JabQshLJfL2WyWNFQTTSaJtd6JSiYzNOVmJP9qlmVElKKbk8kkSbD+VSdjjEmYnazDltfaDsxJT6fVCkhrlsvlZDKZTqfe+36///Tp0729vcT6Sd9NQcr7sdLuztspQgjBB1+G4BPGQRxFQ01ai9TT59lsMp/feL8k6GBgdw/y7c1BfzC0Z2Vw8yyPbKpyQVXJPpYBnpATjNbk0irVyQNYkUOtgkSV4VQjlDRGCRq9WgtxQF7H+I2tDbdE7G9FcMGRNYjCCIgsk40x1STRFEOKkVOmWh2yTLT8mm2eZqjadKTVVWqZsVoTGGXlL4XSCmsVEKoTTLV25lAyN7sO2Nbg09s6c7d9qg89Gp1Pv4kp+a17PnXecc8QfDsMtwJg3xgm6S/vvN2SdWUUok5hBP6SNZkejpXTlZplShlKqWxTUy68Tn80bG3CSGMMm1SQmOtChtRNG9a6UuMqBBklBElM9daaVClVvUJBJTAFFooIXQDtyJClUYtA1mZZVgyGw/X18bv7w396ot95Vr5zKNujsqAZZhN/9qp6+efw8iyezuTChytUc0sVVNWoZk1BGgYZGANjCGyZDBEzj0ayu+V2N7ONTT38AIffpc29OBr73s6SirIyi4VcXOHsQq+ucD3BdImbknxEAEomcWQzsEcGislJpIhCIlCFEomjNJUORBXDGwqGoiFYgmGyltmmyXZyi8WopceygndGrbN57vLCZi6yAXFiNqSHRJIiLIA20pF8VCGILzlU0MgkziHLkDl2SQoJRIj6sCl535r8x2p/NUy2WJKa9/7m5mY2m02n08VikTZrrTFrbevbTBh2K4JhjDEmmXGLxWK5XD6YlPk1LcFeG1ZsY5AtEycJ16XDoXGuJkWeN2/eVFW1vr7+4YcfPnv2LOn1tGjajT62x7pjX7agezMvr6dxvpQoasjnWWlNIAKUKCZtDDk9Ob66Oi/LG7ZxOPbb+4uDx35zg3qbfdPb6A1Kl80nl/3Z9WAeF+KXrJmhLICiplpXZeMTGwBJcy4qChEJXjRAvIlsg2HJSHxKHIbLYLVxnlmFVWIlEoOF0pJJVQg0JBjDFFPFIsMhUAw2xsTMT0GjNLJJXZqhDhPWhX06UpAJCxMEpok5E5iSVb/KMNG6IhDQjUc2ruYWJmM3UaC9551eWqFjzz74gNQbNyfwUA9/+9ff+jQ+iH9MLX2z3uZrrNVuRv/9nT+Mu/SW9XdOTJN4RTc8Wb/uxCZdw8RxqisKTxOnpBYmuc7xICIyLMZEZqVERTHGWFoBpCHDaGkoaJIV6jQjRYpDxhBDjIlbUMNkikZIBUyVk5BpCZoAc0horMk0XhfAiJAzuJ/FjfWwu7N+8Gj3k6Pwg3dOjh5l2+v5WjjlyRf+5OXyxav4+Rf4atK7Zrso7AKx8iRgRQ+RoCmEZ0EWbJQjeGkYPefyTHb34zvP5NG+bm6FRx/Mn3wioy2ybqLFRZlN5jy55qszXJ3p1RWmU7dcGu+tpAfAgjMgZ6mUI9kA6w17ooB0dDKQnoGSqJTEc0NzQ4uMS4dgIY7FOjLWgh0oKqmSF1p6mpfkewYuM3nhisK6vDJ12c5mGl0z0VM0QgCIQqKGIL7Saqm+RAyGJLcoHAoHa6hOCKnTgWyd36UdmFy5uPTeLPPvv32bhJBWASCF+sqyLMsypXwkqy7P826JK2oqOGpTgTkV1Up4lqBrsViUZZmg9MGA39efUntiANqAaELiBG8pQrlcLi8uLt68eXN2diYiBwcHz549e/r06dbWVitE9zY7st1t+9uT6vp8Pn9zevXHT09fHV+HEJnKophZUxJBo0qaGYMurs9eHH95fHJSlp6NFoO4saUHj00+7Nlio9ePRW7Oiv656TFNJU5YmJRENGoFBNQiyBngmhHWptmwaBp+REhi0vQK7ByspSjIAK2Z50ocQSBScCT2IIWyRkGAEFKuciqvEy1iQIyIUSWqNNXTaxqirnywHWOxDT2mQRbaKIE8FJtszVDuxCOpg4LdeWvXYdqFuqQV8nWPxj3r823b3Gtf96UHD3nbjfkXPLp0e/v7H91dfrs1eXcnBL5XWrK1IFsFJUu3Kiev6DxpmcBpm2RnNPLGZIw4y7VL31B6JQsyDdfcHVGbpm1Rp9rRGkPwIfgEk3VAMqmo6gKYo7Ym58C8LmvaxMwIOdOa4b5hOxrEnc1w9HjtvXfXv/PO4tnhYnMUM5phdlyd/Wl+/MXs+BgnF3w2p7k4b9g71GydpIAQCbCgDOTATBysQy/H2sCujfTRIT16avf3aWMDO491fb9ywxDlcmFeT3B2VV1dhus3ND2n6STM59GXGgMAIiZjTZYxepQpAiFQQ7NzKhZqCZ40UjQQRQAFgicEIuUU5U+OV8NETcKyRlEftPTklcHWZrnLcuscm9UVpxTdSUipQHpXQWO8R+8Ro2okVmvVOXbOWAuiO6TWB1/t8/aPhZH41io8LealyWAX/PI87/V6rQ+zNcJSP/PehxBSCn8KELZmX1mW3yInJDlI0YBlAt3khk11S1qYVNWbm5tXr169fPny6upqMBh8/PHHH3/88cHBQa/XS2fSUmTR2MTdH54isu2fIYQEk69ev/r3//j5r3/z6WKxZCqLfGpMCWj0MZSRlLIsq2K5qCZvzi/nN2WIClCvx7s7PBj1+qNsMMj7vc1B7jI2gI0+SiUaNfoYwLritkjzav2n2gRZomigSFFsCOQ9OVcHNpOfh0nZCDXUCzATKdQYJl2J3sEY1AVPbIJJigExmBiNiIakmJUmPanHNGl6D9yd+7ersUNp9fk/ZKzj/7tGrRnaCTq+DcOpuS+EZBMmB2pTnpAI1nKWkXMpZwFkcBcgAWCVE5neJUnrRAlRQioP2bTYjB6o1W8iEEEKFbB0XfoAEwyzcyZzJncuW1szu7vm6Gjw/vuDd4+yRzvGxOny+lwuL+jk5PrkZHJ2ZiezYlGxFxYhICVtMpQ7e07JnMTGZll/MMDWJu3u4vHjbGeHNjfNeBwGA5u7UmS5WF5d2dOz/PhseXUxnVzQ/MotbkK5DN4bjZbIGGOMy0J0CuuMLGyVW3WWygJVKb4HESOiolq7rRoWRLpVXJ/NSqQIqZuLhqAhQJRhjLHWOWetZWOICXUFTNRs+Y5igypqL7fEGCPVg1vKB2XnjDF/YbL5/7dvr8KT3kVkuVwmjEmtje23uNVu3/pa0bhGUw9RVe99skeT2ddabF037P3IaLvn7imhg+Ut7KX9n5yc/OpXv/rDH/5QluX+/v7HH3/8/vvvt+o/93Hx6+3aFilns8nx688///N/3dwsCKHIgmEBEH3wy0BKmc3IROFyvliGMhaLq83LP+1Ms51l3MzGmzuDTbh9E74w2chmPZf1nL2e8XROvCRaehN6JBEQBSmqJLND8IoIyhWk2lcsCT0QE4og/RCcB3k2no0TchFWyCobBlsy6liVCETMZJxTrY1SiJAIpWoMMSAyIlPkNNLV/LtkT9YMiLQEApw2Hs5amhLaxLpqP+pDSSBJOTONWdJhwMoDiSL1d7vA+uADfMvSbcmVtNrJnf08YHG2vtqm3fVt3lvZymDiIafo7QcpScHdWvn1QdYHmDX1QR84lgOKbqGPhtbRJoGQ1rFJJgAw2uyHyDTpj0SkTNEYbexFMCMz1LOcGapF0kwHeRqXc2LaJEdrXegwIoqGqD7EGEIMVYzLKAvRIByVKqiHCrQkmZEu01gvYkADqEIZyEBW2WZZf60wo4EZDHofHNofvof3jvjJdjxws+H8WCcnevJKnv9RvviMT47txcROS1sGjmDASXQ1f1oFEYhEiNYtcst54fKcN9fj/p7Z38v29szjQz58R0brpe3PeOtykl0t+OravnxjXr6h03NzdelmVzyf2OWCfWViYFXDzMaaLOcikgBsYJ0xuZKnItBUkYOMQpTyQMaYxKizisyjCsgEOaNwocgWbGM0Pc8xiNeAUPbLm2w+pwpGBrZas+XISCaOQo7ogTk0aApasJN0dykTIhFogPgo86WeWZxk6Fvjhlk2dOgZ45jZFMSKqCAFVUDKTPWdPuigBUFJI1C1mWC3+T5twq4HVXVClxqsXPp/q+3bl2VOIBRCmM/nqbhjzeiOscXL+0iTtMgTrLY7QaPUkwzBNvyZEK41Rlvpn267EzJsGxqwTC3Rcb/88st/+7d/++1vfxtjPDg4+Pjjj995553EJGp1XNGJbt4JRnYXWmNaRGIsl9Xpzfz59GYB5coU1mREJD76ZUCEhZpMOPPBBxIdTk8OXv/8YHexs720e+/EzcMjKhd2vuvMsEdrfRoN6Pl5UV4WiysmitkiusopYkQZMFMsUxwiMEuiVmKkugcagC2whrjptUfRmCozyi7ABsoCO8/OwTk4yzYWafpvWTmLicKmYkSozUVO3I80w03zUxOJM45RYtQgqlFqdTE1UFcPx2qbjqHQhWJJHbRrgnddCGxhMiViNjCp4e2QmVre5PA1D2dztzvbSGvb3NUueGAZb3co/QWfpyLpVndX3jLOuhN2TUBVP0ttrLd2X3fM7I57Ga2xdqfuDp8RbwAAIABJREFUVXMyK06Qra/MrXikdmg71CzXaQA1m5qIjHJD4yKObKIxbCwlRhgz52SGRHlKnmBIcy7CiKYOQMbmJYpKUAaEgBiRTEn1QYMHZkoTcFR40A0wh0aKwcQlRw9VQaY6Vi0aj2sOymGyoo+d9bi/RdvbxT+/y//7d6uDrZj1l9nilT39jZ5+YV68iM//VH35uVxdm3ll5mIDVMBArpr0iD3goYHABlXPXG1msjHuj9bs3mN/9J7bfzze3u7tHbrD9yozmi3M6cS+OnFnlzg/N2/OcXJGF5e9yXU+m2A+o7LUECARADEjc1QMqBKKAKzhglMh50yoABmCELzQyFPGsEYhyCNJhViiJ+g77WfLfj6xWajMaEm5oEKAWfQWs97NjVka9htZtbTTNWjuHZZ9DUGh0BIUQVapF8kJG/AAatRDK9Iq6GSKFxl6A0Jm3LhY28hpyNwz1rohjKiKkpBZKG6QTqhOoCRoBrUMIgTFNVABolgJjimMImt08wVcgSsAkIxit1jC32T7f1RIK6Fgsv2Th7O1IBOE3GHEtADWcmranbQhzxaHEuu1XdPdczc+ev/E7nyaPLrn5+d/+tOfUhWtLMsODw8//vjjd999d3t7uy3LnBy27endwfg7tiwRGWOKohgMBo8O9n/6v/1kc2e0XFakLuOhoZyINIiUAgErzcvJ9c3xy1dfPn/+nP0C18d0sWvOd1xvLRusFyyDET1WWuZc9IaDYeTjPJxmprCzc5MRW7gQKi8EzCIiEpdGRdFGCUeAAVtoDopAVIHElFfJVhAFQTRKotsZlaTFpWw921j/QObW0UOo9boitxxFGCEWEyPFKByJInESwBKj6lRJAUSrkqGOPgasSj13dVypI+XTDT1KZ7kFA7ods2zRxXJdXx7NmnYnHcHYlbQsrwiAtyCT7sPkvQjMHWOuu5IA0G2DrxNK5NthxeandUrP19BYKx9JvQPtgjd1rkaHxapmdQ4tqRQG2hBWyULvSAq08UhHSD0uyTiBmIwRNspMdYoti7WmhkkLZsqJC6mrTQohNsePiQDdOPlDU5SiCiuYjFElxPoDCiAPSor5JWhRlynVCposlfRzHNiSydkMXdHL+8XeJt7ZDYd7+d5e770DPdiKmz1R8bi5pLNX/uSr6vRlPD+N11e4WZhSbKxj+O0VTNE+Y0DW2MzQqOc21mRno9jctI/2+fCx3XtsNzZlvDM341nIr+f+9Epfn+rpWTw/r87OzdlZdj3R6VTnM17MjfepRKUSYAy8QyRVVjawGWVLzUrkFRaVLrzMPWzF1iP3xKZ+MEnAEUaS1iWsUWfEGAJnSjUBToINlakqjkJqCYWlwrIlw6KkhsCaqMjMIKNklQyoFhfRlI5WeZmz3KjcGJQZa2Y4s8ZZZ2zGRhCS91wIUTWCm3JHRA2dh7oRn9t9hG4l2lIjD0KinVyxv9H2LWGyzpNXZebBYJDneSK1tk7O1FK2fkuKaQGvdcy2iGublhAuuUmZuVv3sV3fpjam1vUAtz7bbqiyLMvj4+P/+I//+OUvf1mW5eHh4U9+8pMf/vCHR0dH4/G4PUSirSbUv28+3oFJZk5MJWbOcvvocGfp/w9VJbgMI6JMRRBgIpEQlF68/vMf/vTLf/9f/+f5+blIuJnPl9fX4fLSjq5oMKEst85tbJujde6PxqPxSNYoDGCz/JwyI0xC1WK51CjqIpD8WKqrNOLGJGoGzWSdiAgiANXWPiaRmlhjDMSAIEAgApNJ4zY3UilMMAZR6tiSKowyK8WoMYKj4WiaW81BnCpURJITL/k7iQBulM3TiXV6TLtMtwVIUwLl3WlQi471Bg3UtE9CF/YY9aC9wuC00842nW/R3fWt/l7n6HT7z84JA3oLGt+23Pnpt8igXX9yNztR261XId3OQTvLnZfePdZDW3LCSGYm4nQdjQGbWr2sqQipxrC1ZC0ZB2OQgZzAKZFCCMR1epA0MbQ6DBngUxXlAO8RIiT5HmJEjInPU5eHTHJLKWlComhUxNUvT2SWPHfFcLg22tjsP9mz7z3G0wN6tG8O1qqs50VKKUueTXF1WV5ezq6vZTanshbZ0fYeNMoXDDAjs0yFzXtFWBvqxrpuba1tb7udHb+zQ1tbxdp46QZXN/bqxl9eTc/e2NPT0cmb8uJicn6en1+ayUTmc7+Y23LB3ie5YzVGjaEoAEcyMIZdpnkZilLL0pYlytKXSyozV1Xkg7qYHo46S6S+SZ1km1SzOs0+FakWloooAcZal2Vwlg1L0goEMRkFMRG1OtMAAFFtPH0xJlESKBGM4drGYcN19iwRUa24RLee2ybc+UCE4u++fUtN19ZMTLSdlL+YHKRdBG0R8c4eWuJPu0PnXLLq0poustI98fHWlm09t1VVtTzb1n5NZzKZTJ4/f/6b3/zmj3/84/X19eHh4QcffPCjH/3o/fffHw6HLVS3nt72oA/+8PboaRtjTJ7n1vHaeKgkIAWsQQGxPigpXEOP1/zmfLY+GhfEJHGhy7MwfVVeDFEo89z1B7bXHwz2d4v9wYZZt2StHRX0uCfHfZz3R1en+c1s4ecFLS1VI4kpvaxszCYHTEkXEANcM02Ikq7KEDpGsCQk0VXBqTdiWTKEDNaSNSSGMuM6xMU6h4NdUCsisIoopEqqECEXOQrFCBesDxTZRJbAFMVIcsEShKOKqogqidZqIwqB1vw7oK3zrIBbpZfeTghptV7plo9UO9usEkW0MUy1CzArJyY6cj8tKKKxw+45Xe8mUt+xILvLD6BXc1CieyJzhDZ22/3u/fNqPqoDrO32HdlVbZyeRNDabNXaakxCPAyYeg5S+4AVAHFgiqniY7rppoZGausEs0GSCzCGjCWTUgsJoRkvWzqZKqJoVA2iIcTKa/ASg8ao6oW8sqSnp1JZQiO0UiyVkk/PKzwoQiOURHuEAYGJnTHMmbiC+kNdHy+2t7O9vf77j+ij/XC4Q1vbvEM32eI1bq4wvdbjT/XlC3l9HN6c6dWNXUQuwUJWjFGGkkIDSWAYw5RZPyho2HPDodnaKR4f0aODfGubdw5l/R3pbXvuT+b944k5vabLy/z1qX1xzG/O6OKSrq7i1aS8mUu5rKqSgi9FUiqpUTGpcDqZwKU658qSq1J9qb6C9/AVKo+yQlXBe/UuDSO11kGaCCWqubEpXw51CqoIRKKXsEQsGWLJ9kxviKIH45SYSB0oT9V8tC1W2bqBIKIaIpfelJ7KSL3IrMYhyyjL2DkyTARWTa4Il7w1TTC79sooqOmMKy5t56ntImgSt0uxgL/59i1hMoUJE0ym2F5XSkM7+ZFd2y59JTYpUy1MMrNzrhsd1I7IXAuZ3SSTO9ssl8uyLAeDQTqZZESGEFT16urqt7/97S9+8YvPPvvMOff+++//+Mc//uEPf5gkBVrPcAt790G9/dXtcjewmmUZ4Dp58aRqQiQSIoAtUm3wbIBiIC5TJdWwoMVJnGXLC6PmmsMrjNfs2nqPfFEMNoZut2fWi+JgzZyMqq/G1W/7oz/1i+ryxlwP6HINk4XqUuICuAEqAMCccAksNcKQs1TU0wvZFnkEOBJSDCNGyi4aDjmqoM4ZZzOhQjg3hoyFy0AZwYBY2Hgir0iJ4anrQYIRn4mQRApMgSgyIiNwrWwSIyL7ID5NUoJwlBy1mrrW3I6m56ZruZqnAujkVnacpSsTSW/1xhvFTJOXsuN9RseJeduM4+YetoduN78Hk/oWq+yWXmsX6nB/uUbEzjkQNSo5LVJqg56Ufv0K9lorW9WuQo/1KFbnbNQwqdTAIaGWF6DmHGoBVqII9slUYBPZBGZlZmthXG3BJIpWbckYNsYkSmRb2QOMkhqt+przhVinLGgIIXgfyhDLKCFKDPDR+MiSbr1XeNVUPG4uKBUpNunr+LQ6YKjoA46MchGKfhwOsb0ZHu9NDw/o8HD4nT39eGexNzaDEWWza3P9uV695PNzvPpUvvpCTo7l6oqmC1qIESIYoxnDARQhnkO0ajNL/X61ucYbYzceu91H7skH9OgJb21j7ZGOnga7tgzmfEpfnfDrN3p5aV6f0otjOjvnqys3mclsvqiqGEKQGGuwABN6qgWrVYBMtCUqZ6qKKo/Kw6dXIO/Je1RevVfvU61YSKPEgVqFh20SbDDKXPsbNEqs1C8RKlbNOBua3rrkA6010CURt1K5Ia47GEmdHCJRInywC28XnpaBQqRCnaOsQJbDWWoOxE3JSUBdE8wWqG9wMSqEkhsAyYC5P38lKEMTlYTf0pH+ltq3EatDk92RaDVdLyU1YugJwO5s3+4nSQq0H6U0kpTd3xJ2WuOyi4sJyahREmhPKZ1AMmqpCX9WVfXixYvf//73//Vf/3VycvL48eOnT5/++Mc//vDDD7e3t1txu9TSF7vas/dtyjt/3iL4aG191J2GYS0RwKbxXkBEgiISKzTEWFbLm8XNxGcs8PlyuryZchhzXM/6I+eKUW7jhuu5oj8wZd6Lw2ztnM7f2F4+uLLLm9m0XE5V0gCqql4ViqAatS54QFBSXaiWycYSVAIvUUUpkjI0RhOtCNkIMYato6jRqVjL1gpr4CSSgLq8OUCpul9S4iECgyJDDKw0GBkR1QRJUWSYSCFyor7Xmj6JGiupYlciw68moQ1uoIHJ7no0AgXpOmuXF/CQG6hl0LQrsOrGd9ff//ZbfEv0Ng2B+xh5d7+d5+c+vnZXrlyjzUddJZSWwsNdmQJaLbRZhkRETEk0J1VCBpESkbGRLYiUmawl68BmBZOtWBoR1ZKHzStJxgVFLTVRa86phgjvQ+KrlyFWMYYQY0QUjdLc4pAoIa36RJo2kTbmMxnAERfWFnnBxZqM1rONjbVHe/k7B3p4UBw8co/XabNvei7Cz+Psiq7e+IuT+dkbnJ/SxcViOvWLpQ0RkqTVagoagcFsLXFOrpebtWG2vk5bm9nGhtnd59193t41a2OfD8uYTRdxdnPz8g1evs5en+vVVXXyBm9O7eV1NZ3O5wuUJYeoInE1wSJKqo6iQlFjCCFQCBI8Ry+NLB+3kh0hIsQYQp1yCjRGnza5y0nbyAhzI5Ws4r1fLspyUcbKszV5UUheBOua7Mq6+zSzzs4TmMSPokiI6gN8QBQmGMtZ7vLcWkfG3PdztMAp7bSzIxKCv+SA/ZtHx7b91TDZhZDk5GxhMrUEk60DNsbYVTNPQJjyKFpkSvLlrURc2k+yC9EYry09x1qbvKloUFlE7qRppq9UVfXHP/7x5z//+a9//Wsi+tnPfvYv//IvP/jBD3Z3d7shTwCtlE86hzsweR8y60yvzsDXlFwGQCBmIueAViisllSMIjFBZvShXJbz+RyGq+izxSKf3Ziw6cLmaFz1R2M36I3Hg9HaaLipiz5kROOT3nBQFCyWFszGsEYfJJBIFHUiHBWkUUGqksQ5U6goRY4SkAEqiWknMVgTrUbkAdEwuQxRvWgUMaKwCKyBVwlcBBAxJVdKGj0ZdZ5lo9JZw6RVTjEqH8ABCSZjrJFSRBSxvoZ0y1eTijY1xmXHCAPQkRLQevlt/bA7nXmbEmq79PbY5MPWZGP8PbTT5kxvn8y9HRHdtTJXLtY2IJQS4O5Nzu7taTWotdZknYlfpz02qXgGxEg31NjIhlMM8rY1aVrBufTI35lraGKxtmkeETFoCCohoCpjqBJMShVjTBLm2kxx0nMot697+38dHlWy1rgiL4Zr+WjTbu32dnc3jx4Xzw758SPs7vJuHgbqUIX5bGYvL/vn54vz86vzM7m4sNeTMJ97701UrnNd6muaklZgDQqT93vZaETjdWxs0vYW7WxjZxubm+gPohSLJS6v5qenZ1+e0IuT8elFuLqenl3w2XlvMg3z+cJ7DjFLzpVmWkIpISbhSFThGEOkEDQEDTHBJBqR90Rl0hBCjBRjTRWU1eABY8gaY4xljtQ8D6ISgl8uFsvFIlSVcZTnecxy1ESN2i3Ryi/fZlYnvl/txtMYSIVJreU8y1yWSoI286A0c+1m4t2qCPuP2P5qp2vXJ6mqzrnBYLC+vv7o0aOzs7OyLFNtrN3d3dTPuvmRaICtLMskTZdU0QeDwXA4TOVBWsOxZcC2pNnWJKWOZl4S8ugSgpJ+3snJyaeffvrzn//8888/Hw6Hh4eHH3300bNnz8bjcTI0AbT2a6uwgwaV8ReGp9UVAFBP4euIAKQztDTR1zS4JOVKRaVMwS4qO19a0l5c2sXMZbkJPVtqNlm3a+u8fmDX9pBlhouj7SENetubcXcTOwM6XjMnJ3p1YWdXG8v5cLksK+88rOpcUQFlxIJqGblrUJmE2I2OjW4CRhXQIcWBVTYRAikRDCNGEkGMJjhjHVmXr8SsDRG3cBnJJDcAGVPPXVVI6nI9KUmEREgUlUFlUykGqvWmhZNUkAhpkzWL1mOqTXgRuG1otkSXGlYVSE6mDiO024fbEKPWkJQGCu0eBqtlBe7c7Y5v4N5dv4OLb7NG039p9LxtvKqlVT7Gre1XC9pYk5p20vpgbeNf5aSkU89gVopiIOMpDbhcV7WqY5BsGnoOjElC22QM2IIJnCKRdTZIbYil7PdY3yjxilJRSSqfDK0oBgkhauXhvYQYg2gsKc5JA6sQSsayYTtHSoSyznUjOKDPcIasNcZmKAbZeNzf3s739rC37/b2zNF+fHdvurMZRgMM46SYnejkIptcm+Mv+fhP7vSkd3EhV2f2ppQlYmAb2aqpHcPEYoiNkcLNxlm5UfTXx/2tXbf/1O4c2I0t3dqN4ycx2wiSXcyLry7yFyf86vXoqxM8f5OfX5vp1E8mej3BfIHgTYxQDY2xFZvaNbZRQzW12RYoePFefIWqpOadfUW+4sqr9+w9McPaOviYRNiJ0KSXcxIFrCdQKlJV1bK8WcQr73pmzfQqHmxQb6BZpmWwqrlGA03s4QDhWrIuhSYjh1gsfTH3fOOpCgS1TrNc8kycg7VqWKOwioNmUAIyaAZEUADKNkLZeaFZoDuyJ7XSEf4hY5NdfEroYozp9/vb29sHBwcikuqEnJ+fz+fzlsXTmpUAki24XC4TTCaMHI1GCSYTbrWaAwmxUkZHCoK2p7Ey41RDCC2wqWpZlmdnZ7/5zW9+8Ytf/Od//ud0Ov3kk08++eSTjz766OjoqCiKVJYkmcJoxGbRweYHs03uXId2+3qVcvJypjG7jTqhGWojtK7oKAovNqqbl9liPqAqD2kUs6aMZj611yM7Wqf5OcpLHQztaP1w6/Ggl19Nw9mW7AyzrTXdGMvxK3Nmx1fnNJUbkoGGsWglCIIzxUsg6etegSZswNaybLPMoKwKkkOWoREmUAUJiEyIgWOk4LmGyaywFjYlA7hgDJSJWYlCI2y9IsNpNJp8SiISSWLi+8AYUGxtTRKhGLVW+YlpaGjAK4Usa9dRe93aK9yi0QpUO9LqaYvO/Ldz+1I0TlU7IrF3mrZvt9d+k7lz1zrS++v17mZpVUYoGjdpd7v7OyGsjNz0q1JV5NQF2uU2mYrAgW3FNoXmai2qzr9E0rGtlUmdhVqFrsVISiFnFYlRJMZYKRagUjTEKJVqSbGSECKqYKqgMcYoBhVjYuAVkTExuFJUWgfg0o0zijVJKUzIGDsG2w5FbkKvd7m2HrZ3eoePeu8+qZ48pv19HG6V72ycr/XmxjJNXmPye3nzFZ2d8eszfvUmO78cXk9wXdJN0IpUkoSArcNyzOIYuZVRMdkeXu+NBztb67tH/UffK7bfpfEmDdZ9b2uJwbLikyn+/AafvTJfveCXJ3h9bq+nfj7HfO6X8xgDQ13jOk6TFg8KIDSl7mzyjkaRGNh78ZVWJaqSyhJVSVVpqhJVBl9RVXGWwaTy1dR0h9pAJU7FyFioCU9DU6GJalrKVcjWTD7oEw02qT+ULFO7cDGSagTKuvorC9WqdUmKx4TQW/hi5vnGo4wMtVbzPOQ55U6tEWaFMtRBkyZwCVSJFdRUtRNqmck1C88AsfFhNJCpgDaiImpuPfx/m+2vhkk0rtf6+9YWRTEej/f39y8uLo6Pj9+8efP5558fHR219NHUWiTz3r958+b169ez2YyZh8Ph5ubm1tbW2tpaijumFMZkI6KJPt7JAGlt09YALcsSwGKxeP78+R//+Mdf/epXz58/397e/vDDD3/yk5988sknibOTzqQoivl8/uWXX6YaXjs7O0mO5348EndikLevRrsmcagT3VKBIBCpy9il6SExWWedNTY5uwgJN6MPIWUHcCCeM01djDYI0YAkt/MFqhCyzeg0y+zGhhrhYeHWx+Ot9Xg8zE6O6fwsv7peTGbzZblc+mXQIqgVNaopES2kABIQIAE16y+plkcCJc+ZqGpkBakiRmMj2SjWJco4rARrlZmNgTGimqgHzbjcjs9MADOauJNCDKSByfYVI0ukGFlSxaTGXV3XzmzEu9JCTc3RpFOtzR+J3k+ycoCuMjiaMAoBStS1Ct/qpP223iR6+590e9X9LVesobdIha3sVKYuFY470Gia3MfV00jGsHMp/dGYVDOtdqI20NjxxDYmaOtfRWOqi0I0xdKSBGsIIVSKZQOTWgElSVAJESFojBAVCEEY0uYkRfimunJduILgJNVThjHIrOlnbtDLisFIN7fd9r7s7fUOD+w7h8WjPd5Yd+v9KrNRqmV5U+LyLDt/Ey7OlteXZnpVzCZxfhPKkkKwdd4umo7IhmGdM0XPDvo8Ho621s3eVn9vZ7h7kO89sus7puh7ymdzc7UIV5Pyyzf6/LV78cofn8zOL3B9nU9vpCzLqowSm+tS25FA7eBM/PaG1NRMubSJs8QQgidfWe/V+xgCQuAQEEIInqI1TKpMbc6VJs8Ad7XMKCkxp3jWclkullWUzDhX9Hqm38+L3M6tr6lSDz+UyVRJaoEpj5UIxnCWuTy3WU7OpQwUig8wblrT/771oPcW/g7bt1Hh6ZqGSeh8PB7v7e198cUXZVmenp5++umn3//+97teUzQsnjswCWA4HG5tbW1ubo5Go2RNdkVwqGG/tHtrXaPpfFJkNDFdAUyn088///yXv/zlr371q+vr6x/96Ec//elPf/azn73zzjstxgMoiuLq6ur58+effvrpZ5999tFHHz19+vRrjMj7SHnLXkk+h2ZwF0VUraqoULKwxrAqMztrnbNJ0KTOGdYYgkAjEQgEWoDmIYoLkdE3MaObuVTqB/NqoLZw43Ws9Wh73WxvZ1sbGPcx7KFXwGULtnY6NbzgZchVHIRjHXFPvAIiFWqQJ6WGKwIBESEiEFiVJCBGGGNCJBODDbDWxAgnIVgYQ9aSczAGqqaByuYSJJnYRPbhusOLQExNS29gkkQgMflgjcTaaSqSyhgk47IGyw49lpRajmxyulJcxUtuBU60viP17eh04Lfe3vsIei9v8m3tjtXYfSS+7qi30kfvD223yD5otTtamEwBDSLb4OcK59iCHRmbfHdtgkfDZuH6vWs13jp8unGa0jwQo3gfvK8SUpaiC8ALYozqgZIRNE20JNbGYqdEWt0bUihTEbX2s9g01zEwGeeF6/V6g8Gg2Niig6O1x0+w/wiHB3h6gO1N9HroA8bH6mZ5M7umszM9Owvnl7PptZvMzM1clktflRzUKCdISYHDBMPWZbbX4+GQ19fH2zv9vd3eo93e7j7v7GGwCfBi4aY3fHoeTk6nz4/jl8f9V2+qN2eXF9d6PevPl+S91whIp+JKHQFoCNv1e1d+tn50JYqP0QfyXr0X70MICMGGgBBiCBxCSiWpieJaa0tQg5JcK36ACCoxweRyuVyI9J3Nil7P9vp5UWQu8+yFhHUlb7/qFvXdlBBDDEFDIIkETTCZ5SbLKMvIWsNsJNLtWjrdR/H+4/IP0b6lpqt2Eg2ZeW1t7ejo6PPPPy+KYjabPX/+/MWLF6enp6nwZAtvIjKbzV6/fv3pp59+/vnns9ms1+sdHh4eHR1tbGzked4CamK6eu8nk8lsNptMJr1eb21trdfr9Xq9lnGTrM9kU1ZV9dlnn/3hD3/49a9//ec//3l7e/t73/ve97///X/6p39KNaLRoF36SjrP3/3ud7/97W+LoijLskXl1geL22Nc18t6Cy9FECuoALXH1hDlmZHG+xqJgrKPzgfjA7FkPc4L2XB+PQ+SSZmsY7Mgc1MZC86Uphd0DdPr09VNPwSavnSDvukVKHqB8q0Bb+9nO67/aEzHe/OXJ/r81J5d5teTcnKzcb3IF8ulVEv11whXUNEIIYdEiwUY14RIMEnVFURKLGRVhoJeJMOSczVg37PWWk+uylLaXAuTbMhaWKOmDlsKY54Gj0SnrOXRorOSSUst6OJlHarU2qBURJHoa2p0Pco0xNhGc0ga6xKqypFDWGtvTvt+G4BWfnFq375Be3v92YdXd/P/V+tan+ntM9BbWnGrSTqRJoImagdrvWwtcQLE+ulN1a2UONT+1ialnIjYqLGyMhwNJUZrZ7cJIKlF1vbWJL2K9h4l7fsQjPd5CCZJlRv1JEEkqlQSlyoeElUr5RSDhKIKWtHKYb7ReFwJYCVr2BqXOZcXWdHv52vjMB7PxmPd386+c6BP97G9aTbGstVbDmTp5sEtT930U75+nU+u6Oy1O3lhry94PjdX82wS5YZ4aTQQyMIymII13hmyxmZO1ntxY5CN13RnR955Lz55x29vY7gde9uljuZzfnPJX57aFyd6fDx6cYovz+ybq+z6mm4W1aKKQaKqgCqYsjOfaWunNgk8dWFOaTwTlNIXRSgG4z15T5U3lc8qDx/Ye/Xeek/WEgA1Df1NatZWymI2DE4C8wSCIsZQYbrgs7J/KWujnPJiXQfr0h9LPjeLKvd1WtoC8GnKAFWCqEYV62Mxr/JZaWYllcFAMxeLvOoVttezWS7ORWM4xkIVQNW4l2NDqNZGb7LqrgUUAAAgAElEQVSOLN3zwugqjVJbYdG/B1j9ljCZGjViOuPx+OjoaGdnZzAY3NzcfPnlly9fvjw5OUkA1tZxDCFMJpNXr1599tlnX3zxxXw+39zcfPLkydHR0fr6egpbJl9r+uJ8Pr+4uDg/Pz8/Px8Oh4vFYnt7O8/zNlqJxpebUkE+/fTTf//3f//9738/n89/+tOf/vM///PHH3/85MmTfr/frdic2nQ6ff78+X//93//8pe/PDo6SsYoOhjZRURqIqbtmnY9AKhAAsTDGJAjUksMw7HJllcgCofoQjAhEGJW8FouY+vHWfS9kqGios4hs56MwAZMGX2PosDwsr88y6bDfLzm1se0vYm1EQau7A/313fOd+hs//yLE9d7tffiND87d+5yI1wdxmkIN4u4uFK5hASois4Vs+T4IkwIV7UsHVcwFQhKhcY9yGaEgQ4QclZrvLWGLZOps56RYNJaWBedC9YRM1tTGV6kkZpJk9YsE1vuxei4mVRoHW+scwlEagZgO/WOWRuY1uS20kYmolnWZidKvlDptRwBXRHW2+BlNzqMt+jGPdy0Qb6HPnl4/YO+qjuo3cyuuKlXhdU7gVhatCOKxDUbzDoYW1t+xAkCU5qHtuTVtCZ5Vq1Jy9LA5AMGLVETQ5H2dtQx46aAWiqmxiEgeAqBQzCIZKSyElWjYBHpQrBQFaGFmGuFJ0CVA2wNFjoA1hthBws44hzW2tz3hjIcFusbva1d2d6bb225o23zg/+buzdrtiQ5qoWXe0TktOczVFW31OrmQ6glMB4EhhkGBm/8Xv4BPIN4uGYITAamCbW6qs645xwiwv17iMzcWVUtITVcsytll53Ok3s4e2dGxgpfvnz5C/nDDVYzyrOQm4OJe2prbH+Bh//A8y/c9pkfH+39vTmdyq7FPuAoeqbMWx+M5yzVeMaSu8pwkWGWy3Upt3OzWdKLG/3//lA++Z5frIOZtWG9O5aPJ/7iEf/5S/zsC3r91r19wN0Wu6PU5yyGE7BDDNAINKAdKIAIqQC/H1k5UE5M2mRY7hiAVEmEQ4D37H0S79iuS6SreG8GmKR0R6QiTAEUTMSGjWGY1CQaxFBICJ0eWnpq8ucwv2G7KNamWmm1QL4z5uSoZVUAx1450I9BAaKoDTE/+/zU0amjLhioNZJnbVFoUeR5ri5TYwyhGIA/WZxHKIaykOQTMQjU3xGnjRiZ7j++HP7d3/5HHUIwIOXNzc3nn3/+05/+9D//8z9fv3693W5/9rOf/fCHPySixWKRYr6u6xJG/vSnP/3FL35xOBzW6/W3v/3tP/7jP/7ss89ms1l6WnrbVDHywx/+8B//8R+/+OKL3W53e3v7ySef/MVf/MVf/uVfJqZ3pGe7rvvlL3/54x//+Ac/+MG//du/dV13dXWVXOjevHlzOp2qqko4Oq22/I//+I+7u7vz+TzmWTFyJYP2dUwP6NBja3oGLnMPEQyDDABIFDLCQKp7H1mtYUmR1vjjCoNh2BhIohUpJX5VRE0DMqSqLO2Z2hN5FRM8YuC2KarKlK7MzNXVrCgznnGYleUK642t7sBFlhdhl2WNk4Zb8Z3ESNoZNaKKSz0ZUZ9vH+ArBREAKKZ+A1FU1Qil9BaMgfdiDKxll8UQOxfVWivGO9uXqxNfzs94kqapL6BnqkTIGBXp/X3UkkROdKv0T9ApTIrIEPeoKpisAaumBPbAeQ+c7LDYGaPPXxke/i9taeWU9t4hMYfJ6rLxkHAChsTupbRxYFCTvJhABGP7AlxghMZJmUeiuye0qhk7o/V068AM6+UnhoVFYsJjTB0JEYLGICnVGAPFIDFqCBKDRBWSTtUTQl8YonGkwfuVhV60WP0USckbAcTOmMJlRVFks7kuVlivZ9e3s1cfm5cf2xcv8m9e2Y8WuiqQs+HYyvnsm113OmD35LZbPRza89l2rQseMYhIWnZQuofIQh3YUWZplrlFRrPCzku6KelmbtcLuroqN2u7mItzdYvdQe8ew91d/eWX8vpNdX9vn5/84aDns/GNig+IoW/sJdJX6pOAhiYAOrWfGNdevddAKmrrc5NRQkhmAupDyk2mTK6kghDDKtRL3gbSdYxANMmUhSlGYVUftfO+7SSEIGqUGNb2DVwmdGgibcFMfbJSRSFRQowxBo1Cktz1yFrjLDtHzrGzqVyTBzuR34dA8H9l+/owOUZUzLzZbBaLxeeff/6Tn/yk67q7u7svvvjiX//1X9fr9cuXL1P5f13XDw8PP/vZz3784x+/efOm67pPP/30O9/5zne/+91PP/20qioMoSGA1HjkRz/60d///d8nevaTTz759re/vVwu//zP/3yMUFXVe38+n3/yk5/80z/907/8y7/86Ec/evXq1atXr5xzbdv+/Oc/F5GyLJNiNvkEJbD84osv3rx5czwepyxf2hljl3eY1V+ZZFIAYCYwoqiKsgzJGeqxcxj6xExpNjSGjDXWcYSxViOpCgGqolEVUG5AxBKVQjyh20toG65r7VrXNm69yrQqi5jP3XpZuDl0xvMlbdZZMSO1lBdS5Nk2C0R1W9eh6zhmHB2EokYgTKjkySpQFBoAhnZAo6gVLGqjOoYhEAewV2NgrM1iCLGLEc6p2KASrSFjlUDKpH09A09hckDmIXmpfaoyOeG9Q/oNDi8fwmTCTgCGbSSj7zK6038yuBekixsnDMH/+tYvhXoO9XIQwPujJiEaDUNiwEjmVLmTCFVM8PJiX0vAexh5STFOmoZyb4M9rtBSKgGjB/DlRChEEGKCxug7DX5sCUkxIoaYGsKIiEAJnaJlJE+WoD0p10cWOtTIT3hmBlmQI8DazGVFVc3m82K11qsrc32zePly9vEn/PE39eUrvFrqC4eFCFqJ7UmO225/fzrsdfdQ7bY4Hbq6RtOpjxpEopKCUpkhiJERFbA55Rkv82xd8mLGyzndznA7w2qu17fZ6orKRSNUt/T0jDdv/ZevD7/4Ul6/cfcPeN62h6PUZ9e1UB8uhRUqE/oxLd/GyzvQj30+d1yFEymJSBSEIMEjePGevY/eU/AmBIQgIVKMiJzyqb2EB5rmCcOsqSsLJSUjJIKCaNv5utG2i0FJrYXLyGWUYoy0kKJRXjfEkwqkTEeIksx2JQLKBGs4yzjLKcvJOmbT68KG+hb6oFnbewN6WIH9j+6e/9e3r+/Cg0n2LnmRf/vb3/67v/u7q6urq6ur8/n8z//8z13X3d/fX19fV1W13W5fv379ox/96Oc//3lZlt///vf/7M/+7Pvf//6nn35aFIWqjnQrDR4FY8PnRNg2TXM+n4/HY2pIkj7S+Xy+v7//P//n//zDP/xDAtTXr1/Xdf309LRarVKr5zFOHYlTVT0ej09PT9vtNvGxSciXrH/GOPUrcfG9jYgGy00GUzIXGLRpl5IFJRK2kTiC1OZUrs3i2q5uuT1HQEMQiYgdxbaPldoGcY9YGCpnj6eszskaKnKsKtou3WpJm6M573ix1ixbUfGt2fwqy/7wmj+5rl5cr94++Ofn89s7ev3m1fb5fNgf26bsmoWGQNFH3SsOCaCiOsTE6FmQB+8AAh2AAygDEcipFqKWQIKcUAU4FvaddcG2nbPOZjbLbe4srCFrqDN99gvG6uihNvxLTE0SJfaV2WOoZwbhT5qO0nSuCUdZFCraY6eqtRozRTKGVmAAV53uSDL4TThBIzb0nNnwv0sO8xJv6VcUhLynSaVJthHonVDGPGNSXlwyiugnmHQ+KFKSsA51ikyXiHBAynfg8DIYJ0ocGlxyJlNZBNrB7MISXJ8/kz400lScE/upOUYEDx84BA2hC6ELMQlyWpEgEgRRycMEAhiBpWH1Q5us1NkDiqhwqqmxSQYqkZqM0ILM0tk8z9yswGpGy2WxWZcvb9qPX4aXL8LLl+HFi+b6up7NZc7d7HwwhyNONe932N1h/4zzCafnbP+MU22axpwCH5l8xuIQoQZagIiDy7usgs0oy7r1zF+tsvWq3KzNyw1u17xahNnVPvtoe1o9n/junr74Mvvla3nzNn/9Vr584Mctjgc05xi6qOkLUQ3sgAYAcAJtQR4gqCM46lFEB/7cDPnX3hdJ1YQoHNh6470NgYOn0Dnfoj5TkaEtbGZh6GLqNOYmiWzmkGcuc8FyQ4ORHYFE+dS4+719OJmdtzfFita3zWzdusqRzQEAAXBkHMiLqAgkCelhVfNO8trzscX5TN0hL/NlFZZzM59pWYWs6KwVqCUteOj8mop5AAdyfY0urMICktqGDM1KMen5k7iEIY/7u7/91jA5zfClX3mohv3000+vrq7KsiyK4gc/+MG///u/G2NOp9OrV6+Wy+XDw8ObN29+/vOfn8/nTz/99E//9E//5m/+5rvf/e5ms0neqh+u9Jk5VVVaa6uqcs4BaNs2mbWmz+O9PxwOP/3pTxPdysx1Xdd1/fj4SIP5QHq3YU39Tn6RmauqSvnOkZJ9hy78TbY0+SXvzB7qEx6QDlQ9QJGMEAtIjeNyaWYbt7hm48R3yl5iTLMSJemnb+EDUBCVZSzKgwMzcqeHEvs9dkscd+rvaFNRWVaLtVu+eLGsjLEv1leLdXH3HLfb+hdfVqvZ5vXb6v7e7fb+cJC27eA7EYraInqNEZoNBowE40E1CCAFxdRCEZRBK03tJHUBuYEWEKI463Rl2Rhjc0vBUmbJGFgDY/q52+YwOYinPC9N5/ReZzABAKVRE6t8UeSkwg4zRJWkCnGUdjAA3kDVvvtTkkCKJu9ziTjHUT3iMUbc/PA6j1nEd44QLsg7fdpAh9I7I4qIMDSeYkZyw0kPjtQ0TcSoSTzF7/VanUbnSQd5IZYjtNW+sjxLV1YVmvKOgUQ0BgTfN98OQb1HCOQDhZjKIaPCK52ValEv6pUawIOUVAgd9S1C4+AbkE5scruOoBK0gMnhHJuZtfOiLOez/HYZXqz89aa6vSk+eRE//Th89FJvbuLV6liVz8ye67M93dHDHfZ72u3wtLXHI7UtnRt7rFE3tu2ojlwzSUaACIklYgNrY1l1VQWXUZbVV+v25lqvr7Lra3p1i5srms+9mW+7qy8O1ZsHfvNG/+tL/PJLub83Dw/8sKXDHs1RQxcQAqAgBrXACTiDAByBPeABEDJCTjAEozBAlhpzaT+ce+1aaqEeo4bAwff/fEtdg86hqaVtKHPEfLnuYzFxqnd1TpxlZjNwAERgUT615ulon458DLbN526xCdUy2LIwNgcJYECWyICCqCZfdoAMDNR5sU2kc4emoXB21M4LLGZazbQoJc+9MUqU/CtssjgXGEUHOJAhUmJVNf16Ni3r+jTkgI7ABC/HFeTv9vY17QUw4V3THENEKV/4B3/wB8x8fX39ve99L9U7FkWR1LBZlr169SrLsm9961ufffbZJ598MpvNUuw4FmMkGMuybLlc/tEf/dHf/u3f3t/fd123Wq1SBjQlHZPSVVWdc5vN5vPPP/+rv/orHXpBY6g/Seibiqxp8MnDwO6OweXnn38+n89Ht9gU105zpf+7GzGxMdbZLMucFtSVCFZjIPZMniSqRAkdRBACug5giIJINHoLNbCqSqHNOpXalWUM2miuQbM8ZxM2G7ZlttmYauZmC3N1nb95u3p40IdHPRza4/HcdqfOF9EjEEMNxCDFAYl07bP+YdJC0QEEYiA1QooAKYKo98JRRANHNi2TYTasvYSEkQXNVBMMDHleGnQl78zy/cZAKr0EhkvZ32y9yn/i6yRiRC5ndZpgHSlcGSwLpmTs9Ml6gUYakBLov/n7BiLTZPR7x9+FyT5yHJJM/c74wj6A7E8LksrmvbedVm6M2Dn8gfcxEl+B6ilFGFVC8rWQaKJ3MaQcJEc/uCZF8T6GqFGiaKvwUAVEOSpFkSg9/dih112FoS+IjtZoA1am1lcWNuestHmeZ8uqWK2W+dXafXwj37yV2xt3c20/uuaPrsrlIqtKVfi6Pnl/psN+fn+fPz7Gw0EORxwPeq6j97brOHiKQWPsBZbphBrDZMG279RTlFSWXJXu+jq+fGmvr9xmw8slXKYxtk2z3fs3j/71Q/fmTfvmDd/dxaen026P80nb1sXgEQf2RxWQ0Q2q/2q/1dZrHFREo0hvXBc0BPiQfOyS7yuFkEx0e7HrZfTismAfl2Ii4kNoW23b2HkIDLnM5nmWZ85ZYwxJsCONMeBYWveOsotktCtRVJVAxlCfm3TOWs8UCfJV32h4h69Avg/Pzu9DEDluX8deYLo/1X+mMspvfvOby+XyG9/4xsPDw+vXrx8fH1MqEYAxZj6fr9frjz/++ObmZj6fO+fGkJSGCsvE4lprP/vss7/+67/e7/cxxqqqUtnJiKzpmalq8/PPP/feJzjUiTFsCiWzLEsuBCIy2tQBSBbtIvK9731vPp8nUx4dzBNGXvc3PzuTvTQyp0SjAkNe3DDl1pSFm1c2U0KjvlXvYTviGpEQVEnFR2iLIEQgSbAhkUkUJqho7KjTtqaykhadZPDCZemK2VVZz6tZiNmiMqsV3W6yl1f2y7f0yzf09FQ/P+Nwmh3redMwtV6902g1qmoHdCo0UMVxcBtRgMERbEAWekowCYgqKzqJLOoCHMMysRkkJMwURCIk9QPiVOlu2BgYSV7bGE0jhsRKf38xD3A1BP8JiHisnlROfniXbZS3Dhqf9/8N5dtTIeyYThtfC0yR8oNr+wFGoofJYR8DGfsBmF0iRYLtPfGV+7zj5A0GyBlpWExQ8J03TI+m7rl6+S5QoyrQVJ8qMWoMMQYNHcegIYYYOAYjMZXAhxBC7PU4dbIlIwjQKrUiXrUDGqAD9arYgSMhBU+uQC8Z4jw3Re7KIi+K1by8mhc31/ntjfn0pX76Sm+ucb3B9dysZ5QZJTlLc/DNrjntsX3O797ap0d/OoVzzacz2k5ipC6ojxSSxxUJGxDIGDUONoN1agxXMzNf8nxuF4v85Sv96Bu42mAxj0URjOnasDvo3b1++Ta+vm/e3J3fvKH7+7jfnQ4n1Gf2bYYYevuaHvjbi+FOL2Gdap91yOqH9AT0LOUlYakqoiSRJGIASPUewZMfOoSkKupkftRXSSXNkPbrgX55SqRKAo0KH6RtuW606ShkllxmyzKrSptlxjJFYiUGGZAlY6Dcf5g0PFJn9oDgNXqIZ7LWaJZpnsNlySDWEEH7Pszv2OtrGqc9bI+PTukgxQcA+XsAmL8dTI76lzGm1IkjT4rA8jxfr9dFUVxdXX3zm99smiYhVgrj8jwvy3Lq4Oq9x8R8AJM49erq6k/+5E+apgkhZFlWlmUiYEcZaiq7ns/n3/nOd66urhIej8wwhth0LK9Mnhh4FyZV9fr6OjUMScFK0gf9NieGADvSC/3MoSk7pUIiqkQxGomsyiqzzN8s46u1fnwtIZNj6Jrat605newZGkSDaNOhOXpSQ5kNZLwjMCIZicYHrls6S34OeOpc2WEVzc5j+WxmlS5O5fIkxUJcsamuPi5eHOZyvG7/60X201f5/WO8fwhvn2dvth/t94fTvo77Qk5FQAhog2YRJ0CATnEEpbjBg069eoQKuKc+uNQ54grIARKpVFYMx8SKAlIQGQV8J4qOhjazxogxxlhjDafiSzPRp/BEqDI9s5gu6GmEKYpmtKwct4E7vcwLOoLf8FR6Fw4xjpdxoTzGpZOP8b4wZ/g0wxsPkloMTOzIMPf/0eVNmIMx3aT2Y+AtNAl309tyMtUmeqdy/XJyEvD3Id7wTwExiIVolnKQMXIMkooQgm9CiDFGiSKSqlUFCGoCYkj9rRQNoIQAPStqRegtPSmAobAh2lRxq2oVrk9NMYPZZC7L89ncLFY8X/B87j6+bj+5vb+9Lm+uyk+uum9smsWc85IKtHlbs2+pPun+Me6fi8Me++dy+8YeHqmpbevRCHmFKkeQZwRHkZUl5CDDxphYZL4quMhtlnXzTbu6dYtlPl/p7Sd6+wkvFpq7XbRPDW33cnfPP/6y+Okv3dt7c//o3tyfn5+780m6LoTwBAAmggK0gyZTw5ZwIk2oGRgmdcmBmt7wAqo4KfmUniQsAAAWmlJ3tq+bjLbruOu4bdE23LRwGYqO2s64lgbH3X5dmAS2GqGCgbO3RA6wAq9QVqrb/HAq9vv8eDJtVshsResbrK5QFXAED1Y4UCaGlXII9/ExSJSDsI/oIvnGhj3pDJyVmSurspj7omqyLDhjA5moUGSKUmGAABSAG24nB3IDIrqBdBmlTL/7fbM+2H5rpeuHGcT3jiQ386RcHR8lorZtU+dkMzS1AzBC7Pi06Vslr9eEbalj10jM0mTLsuwb3/hGonOn3Ug+zKSO/kEJTceelwka06vGz/bbbEN2aDoH9xOpUt8YQYRUUsK7cNjM9Xalr640WDn7eHbd+eTyjDKWSOqBc6TMQ0WDskTjFVASsaLwkQzQiK098o5zTwdvzmesKprNdH2yzYEWS57NMAu6WMYCYdldrWh5m9094uGR/+tuXtzPn57L7eO5M6XXom18E+pW0SlBVdAoNQJABGhBNTiCCeRAB8CACLKAnqEZQKCVAhGZ9L4CGSsroD746JNu0xjDxlhrjRFr02/Ux5Smpx+TZcyFhk2R+Lsj7gI/qQnKuzflmLQeBsA74zO9sA+5RqmOvv9CAFPhIj4YmR8emS7O3lvtTX6O9vqRTZNakhIZwCb8TE1xB2GRpaHNxfiBkSankZQbrAAGvk5FoJERScb2n7Hn+kKIIfgEkqpB1KelAHEg8kJB1SvOSjU0KgL0DNTQCERwAAsMk2aqrGIAgC1QEWXEzNaytUWVz+bV1UZub9rNulivij/4yH/74+Z6w+ul+Xh2elEerFNVRX2k405OR+yPeDya5xMfTnp6tsd70zxR16hXdIYiA0TKEAOxpKwGMSO2hpyTWRFWpakKLitdvYibj3mxkvlK1t/yq29xXkTgqcMvjnjzGN/c6X/9kr/4gh4e+PFZH7fnw8F3TRTx4HbIxHtIA/GAQiOpHwRnYjR5BGKodEn9pAToQJTQkZAl8h6Jl1ZS4RApRPIeXUdth7ZFlqHr0HXUdWRt38szdREIAUOHAKhQum+YHMiKMhC9ovH2dHaHoz2eTbvOtJjzYm2Xa1MWbI0aokBWKVNmhesbw/RDh6IiRHSeupbi2erZkBYulJUUpWRFcBmMtcRCalXd4NeagzKQ7StkyAxRAeHi+SO9EniY+X6ftt+adJ1SkSn2GpFpSsNOt4SLzrmxH9b05Xme44OGlO89571Hxz86dKcSDCHj+DHGPOWYOqV3Pc3HN5lMqfpr/Or+Fzfn3Gw+K5crs14bsVwEypwzzDLjUGg0ag20JGpIIoJlbykwKfdimEToxOi9KIRjBIdoO5bONU3ofNN4czwViwVWVQg3ZAommi34ZYVqUVzfmNkNZg94eKye7sKxsqeCT8d4as6nLtZeQ/RB1CMDrAZVGBAn2hcAQhgMjlNtWSJkEkMbVDkiKAJBORJJR9RSfx0T4zpuSflFNBixGUPOGh6RcuhPPG6DKKbfxyVrM30OjZd+GAA0PnS5uGn2m+pb9fIAehZW3nnfX3tN3wPj9/bGI8NOihTlvRf3IXCimrWPT2lIuGLAy/eY5DgYAqREo0ZBlD4r1h9MtVAxSkh9P0eLfoWqRJBXpGgy9FM8Iqb7fW9F6NhekZjYsHHWli7LiqIoZtVyVa7XxYtbffVSrjZmvbafvtDPXoR5ZQrHJXck0Z/q0NS8e8b2yZ+O4XjmXYtDG5uWmgZdS2nxKgP3PczHxGTZqmWbGeSWsoyqnMqS5jO7XJmra3t9y9WCs7LL8hDJn6TucL+jt4/xzd3x9evu7r56esp3u3g61k3dhM5L7AO3nqW4iDM/CAbeOULDQElzx2WU6sB6D7zr4KUaMBKt3icXnpSbZB/UhJ42j6EvY50MpXdmLVX4EJrGn8/hXMNHw5krylJmlcsLa60mC40h30MTOr+feyX1CA0SA6kaY7KM84KLwhR5lmVqrUmJ0smXHXNH/02alr7isa84mb9z228Nk5ML1gPehwg3bmNJ4oh2U0Xr+PLx+WMt//joCG/AO9iZ6iDHAHEU6Uw/6nTmGt9tfKsRO9GnEWT6tN/qtGCcdfEeUT/cdoqhASQDBJuhnGO5ps01aUUza4odXEnUEVr1HXxLHNkoYlTP6hcSK1Lu5SYkIBFNlYCQQIosItfW26KLZ/FHwbzTeavHKtQLW81NXsyLTku/ym235MXcbNbmceOe1vpcYjun3bbbH9zulO/romm07WwtVRs0xjaqVVjVCCXV1KFr+J4aAQ8QUIN2UAuQaKvUEIwgtdFLbtfExBTHDKUx3JMKlPzuiKw1zrlkX8oGQ8/Dd/Qvo/6zP+c8UJ/voqn2fjc6tM3tj3+Aq/19/d59TBgRajKeptf6q0dA/1fee7PJoBw/aEoeAYAKpw7vCoVSauGiwGAeDmAo5FBNEhrVi89f6lwWo8aQ2rPEFP5JRD9DS4wSRES0E221x58O1PW6DrSKBgigOBivaGppMwQKBCSRlyE4ICN2xjrr8ix3ZZlVVbVclOt1cXVVXF+Xr27x8QvZbLBY0qtVfLXgzIqRNm9PVB/0tJfdTp+faPsUj8dQt3zsuA7iA4daO69BEKFCqdiA0tgxFmTZMHKrVUZFhjzHvMSipPWKNmtz9Yo3LyWfRXINqmPLpxbbo375iC/v9fVdvHvrH+7j85Ps9+F86rq6i75DDMlJY0gx+lGsRBBCHO7py2AYk4Y0Di1K3iCpFZYMnd20X9VokhNjQMoRL/t9axBMX78TImKksbyVeuMIJjaknEyoQtCm0fNJzyd4z6gyV83y2dyWBVzSzvVJY9u3hb30dO2zlDEiRA2eNRqDzFGeIy+QF5Tl7KwzTAEeSAaxCliQBZlUAQJNVio6FMLRr8LC3weEBB7JkosAACAASURBVPD17AVGCBzxD++ul0fSchTafPiQDmXjI3B+mBQcydJ0cPRxHcEs7aedD4Wp9G63Sx3ylDroXceV2hQmPwxe//sTAghfRjaJTiZjpdRGTliQCTmQrU1+ny135dWLxQvOVHDTno7Nek+LBc3noalj29j9wuwXEjxacnFhtNSoqi2wI5yTysbAswgJqC7Vr+nAbNWUzs09lZ0taix/aR4PVJamLKvVyl1tpCwlqzbz2bfyqp6FwzrcXdv7T+h5e3h8Ot09NI9P2O/9/qD709Wpvmp808bQAVHSwtSLtIOuIZnxeQCgE3A/fGejZAFSYpIVZI0+lcUQJuUozNEOTSwNk0uiT8PWWGeMM4aYLbNLiljuwZKIYRg8SB7IgGzPdo8A1D+zvyzp0DhuMekKPI6S6VMuB3m69OnBNsUQH6ZeaPzfO6NmEl7q+0csqEw2TXpxV1CoUTGDEmdQ3gLSd7ROi0KV3iRDRUSixnR8OIroEEqIUUC0Va1Fg0IUB6VHJQ9V5SN4B4qAqrTQZpj8HcgCRGQRncYKUMAABTSnaJnJsFpn8iKfz3i91M1aN2v34jp+dP18e1VcXfmX6/hqda4qciWXeioPOxM7BG+OO95v7XFv9gds97Q72LrRtkUbqA0aIjQYRE49xoWiWiUDkBgbTEYud87pLA+rkmdlVhRhMW9XK7deVau1LF/5xUcdFW1nnmr3cLTbAz096+s7/PKtuXuYP96Xj3fm8MT1ibqWUlwNFZAHjtAWKpAOsYZ6QEjZwHCvNGC6JOEuJIOyKA/ObRKABrAKBy16UY9ClUVMjOR96jeJ0FHoOKTek5asgTEkAiLEAIkkA9QSUtbXEZtRLBPFdW15PmanI3edUS6oXNJ8Q7M5ikwcSxCjyIQU5LRfLU6i3BRQdhxrK7WjyrmYFVJUIa/aXjHLROShKQ/lCB4olHJQhBKQT9IAI0xiQrpewsrfD6T8+jCpE0Hpe094LzczfeGHbzIC2IdR5oiRzDy1xZkGsiNIT0PD9z7MyL6OB8eU5HtP/prbkKbAYBs6shPpDqKk0IMRGAE3yk9qDpyHbMZzB7eUWSvzM3LLuZH6HJszW0NsQtvCwYQ5SyE+SjxC9qSdqrAGF1ujEQACuKmILHHUOjNNh9zCiRzOON5rWUhZoNkYvXHLpZkvFu4aFcUstDN5dYX7j3i7iw8P+vZtfndnn57l+Uken+fbnT3a9tTEY+A2UpQoaICjIkChOIL2oA4A0ALN0KJWkUx4wIqPAENwmqBHGUoCJnIkqQzCEDmi5Ppr2Dhmx8xsHLMwWx6W030xiYExNDQTFhOHHtiXhCXGcTcdgESXRfpkbPQ38TvjlHoa7asXSr96vBBNCa7Lz+nO8B4EMqkGTXrxqPauQ5KY1/Rrnx2eYGRq/Cijn1RaBKYHdbCQRyySpUAq3lN4hQI1aKtoQaq0BT2AAqDgLsVPgAEqoCQyhEwpS/os5oxpZXhuObOOsiKUJVdVfrXWVzft7U1+e1N9fCPfvPE3a1ks5Lpsb7K9NVGYcHrG7q22NdoO+5NuD3Q84nii/ZkOtWk7+ADvKQREUagylKmXCMEqWRCpzWJeUlGYPNdlFa/nmFdSlrpcy9W1LhY6n0t52+ZXZ2+PIg81f7nF47M8PuqbN/zmDT882u0T7571tA9dKyFCVIeSjwi00DMgkA5SD2fDEjKCIaDXrI3ivGEJpqRDMzdRikNDUxomAwVBlEU4BAoevoPvMASUaSf1D9AEk8n5aLCmQj+jUM+uJDpHxPrONWdzPlLbIqqxeWXnczerpMw5t9wFE3rDEzPwLX0QTEQgiEIChZakMxSd1bxAXmpRal6Qc84aYjIEk16qlIEckVNyUIFawAEyWUji3R7jGB/4quqR373ta0p4pnUgI8iNUPRhiDlu0xfSUPgxPTJ9Q0wwbyqF1cGy5ys/3vgnRuycRodpJ2VYp+85rQf9bc/Jb7t574+H4+l0rOvalOwKU5Slyxz4RLbR+qynI0lNUvv6LEadr0wspPXiO/FJLyt9nJHwSEQkEgIRCbWBagpqrO1ANRP51jZ1B+kgRdOUdcMzg6pgY4vcXc3y4rpYb8rNJm42uL3V52f/+KT3D+7xCdtt+7z1T8e4P7dN03ZRibyARBUwisFoCzQJpoYg6LJ8Tb/07GtiF2n4OaFUI4KCAhMzB+KYYJLJMLt0GbnXf4GZ2HpjWyKdXuiRC+ChccawZlN9Nw4kwuizpEN6aZJkwvCQ9t/p3W0YmeNymVQUlwqWESn1sj+8j0KUgiJBXeqymeCOk6vtcJyG9SiG2FESPsYo06GumrpDpnSlhY6lbzFZEqEfLEOpT+/oHYAkwuB+5hf0EA1JM7c1ztkyzxZFtinyqpzZ+YLmC14szO01PrqNL27N7Y19udFX6+Wi5CyzpSoHil0XfKfbJzw/xOYc29YeznZ3jHUTz409Na5ptQuIkbseJhNDooZAJMRgJSZjrDrHeU5l6aqKl3NZzmk+46qUzSa7veFyZpzr2LUdnc5+t2ufnt3TY3b/GB4e/N2du7s3z8/dftucDmgbClEEQS7ro2HQ9kHcV5UMTi77cNE/fETfXw2NPG1yBAzqQ/Qe3pvOS+d915G1bAwZG0WS11iy7LlUT6YPOSQLUlmUSpSm1fNZ6nMInc8dmaLMqplUZZe7ttUQkmQ6meT3/cWIBhcdFcR+DIGILWWO8tzmeZbneZY5a8FsIAyN6GmSQRXR3+nDt9N3vu2vWlv+rm//I+vz6U9Mgry0T0N1IyYh3fRpyeJuynmOr33vDd8D3Wk4Ox5/71Xvod00cBwfnaZCPwx8f3O8TKGkXoaNXh7oF3IMNaoOyICs7sz9Pr7dhbt9bHIUWWYcmQyuurFClNeUnxEsxZLzs2StQWD22iC2FJsC7UxjQPQabJ+fhDMQaAcl9RAN5B1bqzCqBo1T5zR2Glo9HHW216XHsqWi5KLIV2uuJLOmKnhWmvWK9/tiu8Pto3t80qfn7OHRv32Mz9vscMS50UbYRx9CjMJBSaQViKKB2sH62Q/5LQIicByGWVqPp5vMqabeQ4aQpaQmJSl733PYETlix8TMjskxm1RWQmR7AtYEwzFpeYY2tsqsY+fhScVFuoOVLrdyqs7oc5gXjJyIhogII7jqe8MD07nyHZp0GkoOpZmYzqJ9F4jU9ziZSSQbhJ5tG2JH7YNF1RQmphyFJPeJPjUtuCxBxrr4M/G2/6rqoU3vyIMj1EMTM2Yhs/4lNITVCmhG6pDqEGxhjcuyoixm8/lsMZvN57PVyl1vZL3GYsE3G/roWm822KyxrmRTSs6BtbX1gY+7cNrL+azbB9o+oz5r2+nxrMdam0bbTptO2zalVRE9YoCKEolagSEiNRbWkcvYOSormi94NrezGa+XslnRYkZFQasrrG6jzbuInc8eamz38fEpvLnn1/d6/yCPD+H+jp8faLcLx2Pb1sm/S4EO5NG7wAkkLZoYvZyVh+s96jZTG/N0SfsxPIxkAwDKvenixZ6yh5MkSx7cjmLXUddx12nbRudgjGUGczRWmZLbgMa+G2uiXonAvZ4tjVGlGE3X8PmE0zk0PlaFdWVpF3OZz7NZmbUaO0dioUSIfCFAB6sLhfbZbA+NxojLkRcoSs5zzjJ2zhjDnMrXEs1ATGR6o9dkt3RJ+mO42S8M63gP/YZT6P/j29dpy4whwzc9krb3cCtRQylxiEkucNqUA0CMMfWxSs0pp3Fk4nWn1OgYN6QU4zSVqB+0bp6GEh+yuxiiz/EbjZ//vRXAf7sJ9VORSe76Y6ihDEl9srKoM5EFdHFsq1/s8qunbPFg5yazlBUVVyVt6HqTLzgT5J313zC65brh+Z7yH1H1c2pqnAMdFqgL7QK6QG0ERYlCSXegLQDokVpPHmRtLoUNFbKMXVY0J9nvOS9sUdD8DRYLlCUW8/jxR+HFLZts5vJsPVvM8vZKzrXZ7ufbvdnu/MOjvLnL7x95u+22O7M9rOpG27Zr27bubjvtvHSCs+ComuQ9Z8UJvdSnBb0d7pZJMbJmichSsoqMhn1IljpMqVogp2gjMUVHlDNbSq080SehGdaQS2o+Hlx++uFwsUgdmdhLd2Lg/Z9EHx4n8DiShxUPEpqM663+uCJJZi4Hxwj64uo+5od6h5tMUpiYCjneEa8mmaoX9ao6aG5Tx+qo2qr6FBQqOiB1p4696IYUfFB7BzqBFGIgrrcTk5QzS3PZHLrpv1G0EJf0kZSAwpC17HIqCjubzZar+WaTbzZmtTa3V/KNm+PNOs7mdlPxiyouCi1yk6PJmj13NXUt7Z7weM+HvT2d6HCmwxltq11H54bOjek68S2HhkJLvaTWA54IxE6dVevIWnIZ8pLykvMcswWt11gsUc3iehOvrqmqTJ77+aopbmox50bvD/bLLT8809MjPdzRw1s8PuH5kbb3enjU8wldqzHU0JqgikDaAJ0mW3OiVOFAqjx0BWAoQ6j3NU0ROSugSFx0QkcLtQD3J6/HXe7BktLMQ9DeYaDz/QqhabVporXKHIgAis4qMUvkFE32VlcC9K3VGEyQNFKdovCdO5/pcJaj1wU7V85oseTV0h4XeQNt2Pt0r0UaTX9p8AJWhUaEFqGFdIZDlkle9rxrUSDL2FprgpV+lWehTtUiWbnC9fTyJeGJYcl1CRPGqfP3gHX9OtEkTWQ17x3/VUToe5g6FfJMj0/3pz9HeBsPTrOVaX90vBsDxw+jzw8/yYcf9Vc99Gs2HQJKDJaOI12CZKkoScHogAyanTu+38cvH9ur+3NBOQezWLnlwimXOcrMkC1FFwvEGy492kfYt+S+QEOcZ+DSWqDt0AZmoTbCe8Qz4JNqn7Q1qCFCgYDSxgCfk3Om7eTUwlpYq/Oc5gWqUpeLs21PpnFV6bKK7abK52VOVemqWbnamBe1uX3BVzfu4dFst+HxUR8e88MBdd0dT/FwjufG123n4yFoIeJFRdQKVNWrJieX83DzjIYdBORDvscCufb7qWY59mGoqsJCCYhEiBKJiMjQsLJmLViTM9dYio/ka8OXNsWD/IYG4Q9Nx1jaH2GSRrwEae/01aMfXa5qP1RG7FQd2zuMUaMMdPPUFUiGGUUhyqK9IYCIDnGnJkZaFQLSnkVNk6Vo0rD2Ukzpk2opv9gzqGlp8gj8DLwDCTQH5qDUH3EBXANJl1EQFoAFgZAzsmTOaK1mGbLMFAUXc5nPabEs1pvy+ra4us43G3u7jt+4ovWcyoLmVtbc5fBQpWYvpwc5H6Su+XlnHp/kcJS65mNnjp58QNdR01LTcggUAhBIPaBEAhNhBExkiZ1FnrN1yAuUFZcVFwUWS11vaLmiqtLVBqsrlBWc867ae7tvsdt3b57ki0e5f2qeHpvnu/h8h+1zt3vujs/Z+YCu1RihCECLEZv7che53K39OOLh1u2VrkPQnWYtOxnGydM1lSjFS8OQASdoyDqIaozqvXQpMdlJ2wbnxBiToklVYlaJNoQk5OlHVBLJvzvfsIrxnppaz02ouxApo7yg+YwW82xWxTJEJzCkAsAM912/mOxLRKIkRgoS2Ih1yHKkPiFZRtaSNYbZIKZvxOOZGTqHmEHQK9Mg8r3tVz7wu7Z9zdzkh5AzDeOmB0d2dJpAmgaIqpq8e/ABi0sTXeuoVh2xkCZJx1QYNrK448vH145HksZ1fOZ7n/lDQdD/jc233X5/eHp6uru7c9HruVkeF+f1Ii/MIuN5CZsTsgxzQwp0CqygCzgiG1ktWeKmRePBgbhjIviO1JCmvpiGbZbMV2OUIJ4VJsZoEQxSSMXScmyN72KMu8zdaSwWi2q2ykvrcmuMZbZFBVfY1YpXa6zW9OIFdvvl4yPe3vFuh+Ox3O11u9f9wR9Ovmld59GFJoQQJQRpYqSoQeAni4ZpOl+G4suxPXryUB60D9DLc/qkWgTSBe1dPwTMsATTixPShRsDyB4CLyvbr4oaaQw3Ewt7ueykqUnyJWR8ByNHhj1Nhj0NewkldSQwMNnpOXmB0dQDfnh8pGaHVVZfrD2wqZdKx+EjjDP1BJn7ST/21ZQ0ePOMPeV7HpAJluAIlogNZ9bkzmV54WYzN5u7+TxbLNx8jcUKq6VZb/jqhjcbs1rzes5X5XLm1BjKpOWu7dquqWvsH+zutZwOXdO4/aHc7lE3oe3sqctOHbqgMXLbcedToEQQpDnbGFgly7DMNnd5oXkBl1FR6GyOasZVhcWSVissllRVZjbjskSek7Wt16dj/XRsd7vjmyfz5iF/eK6fn87b+3L7ON9v/XHfNefSd8lPPJVGjD6t6dwO7bHeGXgYg396d9ROnqNfwSjS2P4G79D3iSOQZJQyOtX5rospN2ltBJExRsTGqKOz6/SPTd4JqogB3mvX9bZixlrOC1RVVlVSdN56MaoEVVahASbHaS1NyVF7FwM1Ftayc8Y5TsE8mx5Tv54G55Lc+L3YvmZuMm1fGVC+9ytNMpS/5vjoWpCAcHzOeHAKfmNI+iFOv/cxpng8DWTf88b7yo/3G5+GPueWTiUDRAKWy2MKkDLFTKONkWPsuuJwvLm735SzMj9mvDKnHTd7MnNggeUC84pK2KIw1sFiZrKXvPiMulrrgJ3q0ftzrceadzWdG20Nt+raQJ0VEUhn1FAMSlGVSQlBoULRE/epOEQH36LtqPVZpOoUXXXKZkc3q121tXnBWZkXe7gS1sycnW3c1czW17y7MR+9tPs9Tid52tHDzj4/03YbDic6nsq6obZt265qW+26tgvea9lpuMzjU+fSi3oiZVUxJDXHEzku24fWRUoEHsSHqigEFYhH+VAKIKFMxKnL9VjXRf3FGNFi6PmY+jriMhiG3KUSyXT4TDLO08hyHCeJTB4CR6WRKxmZ/mGKUyAyQipBpT5eHCRZEO3/WAB86tKg8HppyjEpbewbImK0d+gjy3gFmoN0IFoTMVjCVIABGzbGGXWWrOXCaZmHsrDzOW9WtFljtTLrpV2vZLXUxULnC1ms/GIeyxKViVUM2SmQCndne9rF096cjrp/4u1b1CfTNOZ85uNJu86EyOeOzh2iQARRelqYVIjARpjIMGVFKsWUvPCzWSxnnOdUzGi+NvMlVTNarHR1g2ohee6zqjNzH13o6O5Mv9zRw85sd+71g/nywTw+m92WDo963MbzUc5nCW2M0auyIhA64Iy+TWZLfddMj1Q2CiiCIKb8STI4GEwdLnaBCoxGr4mlBhgDCdUvePp64oQVPkWiojFG8cG0HeqWszYnJ7AOhtQYJ8SG0ZeOoA3wgqhQFuJIvYu/JlKclTVQ2/DuUDwdli/a+Wxm7eaFvPhGUzfNmeLhmcJZfEBonUSjyoBljU5DJs4JkzpvbWuptcaZwtAso1lhZiVXJYpSsiyYBkRJX5kDJXShYKCZeD4rTUCcEHsumoKiHUY19bnM3+Xta+Ym8QG6/Bpc+VWA9JUM7VdC3Xuv/fA50w6UH77h9A8l552vBMJf9dX+240U9lIRrExClEzDR2crtdxVwRfeUwhds9mHP3399g99vJ1tymqT1WtTP5nmip42tDxhscByQcsF5nPMyry8+iQLhUavTYvtOWyPx90u7nb5446OVnyeN9n8mHHTRu+5qXE+kXqQEuAUJAQQixi0PVcYDXlHbcvn9uaA1Vthu+fc0ewNzwoqC6pKrEvMShS5ltVssYyrUmzRxqJuy7qlpu4edvbtvrx/rB8enx+f9OHZHQ/udPLHY3U8VHXd1U179tbHTEWhEeqBDgRAwKm8HdAAbSAdJPb9b2lkwDCQqzQ05iIGG9iEsR5FS4X2Vlw9o6tEdCn+Y8AlnyABSTQDahqQQ29YkoTvo5ydxlUw0bQ/PWGyusdXsUlE1AOhvnNwjCq0L/cQg4PDA6Ml9OqbqaPOEB7GlN8CJKLTkSFM0NhvcZBeymAIAOgC8Q9AsyHWJJABG7CCBUxgdrlWpS9LmlVmNes282Yxj+ulvtzg5Qbr1Wy9yG8W3XoWqtIVBZxrrOkMiWlafjzQvqauw/nMp52ejsX5jNMBxz2aWjtPbc11jdRwwwcKYZDJGZieB+8Me5OTYTaWipzy3OVZrIrdqmyWpS0LV63M4oWbX5WzuZlvwvxWspmyOQbz2Jl9Q+cz3e/xeounbfX8vLy7p7d39Px8PuxdfaDu6LqGfccSjGoS4HTAAXgmeOqLZBJHHYBuUDlFQaCeO0UcllcDpaAAaW93nrgQhUiv1WFLsFBVjdBmqCeJA0dCqgiRW8/ckmkybtbqVAxHhmeYACKQsgr7AO/RxtRrTWACkKJwQJnVGjh4057c4/b6y+fVzcnNl7W7/SygvheqW63OByu1nM9cd4UPZVTDEJa2jDoLpvLOYN7l5lyZc5kVbpbTMqd1QcsZzeZazbri2JxqRpsLAAjpBhSgNXBCcsanAAVDh4DbAiapE5TOyse+VGxMjf8ub/8jpev/jSd/5fP/23f49fHfV0Lsb/inf5MtRZM6JiRGameg7yBCEKvCIiQSgjnFGR8KUTPzPOu4OXN9pLqRQyuLMy9rWgfdkKwdrxyvsxLlmiDkg81OpihtlVOVW5fx4Shta04NG8u2iW0DMEUQe4hQDBwj9eFK7GWxabUrUWOkToqTK5jABo5lZlA5lAXNi1jnWBZUFjSfiaytzKkoMrcs5teLuQtB5mtanOnmhd3uysdnfnjK9vvycCh2W9o+m+MxnM7dtna7JvMe0YcQzyGeRKJq6mpJQwaPBrbQQ9tBk/JOJpAuHBZN+hUUQAFNUnXuZbRKRI7UEaWVvhuiUhZ1fVtNGEIArKZ9dZNA81L+9X4hGECXytAhZTBhQQdVo+plfU0j7o5iHIEyTsAzUAPgPprUIUAM476OiKx+mJq1DxxH5MWA4SQDdq9U18AGZAggVraGjWUr7LzNjMvcYq7LRVwsssXc3azizTIuF/l6mb9a64ulLufZvDTrguYOmQ0Mj7gXf4q+w/5s7va8O1PdoD7jdNTzGU2D88mcT+i8Bo+upa7pxZoxIgYAYFZrlR2oN4pkl5G1vZC1rJDnmBV0VfKqMrPSVGs7vzXzK6pmUqxivvZUhqi7DncHftzLfu8ftvTmmZ+22O308UEeHrDfxeNBu7NKE6KXGJMpcTovgRAIHfUAGQhRoYSoiNSf7WkHzXTrvreN6YA0FCONNjTJzfhCgMchYRwINpUSR6EQ1HvtPFpvTQsyBCZlGDMMIEGM8B4+aIgaVUWj9nfKMKkISdSu01NtDmc+d1mnGsulrq50c4PNvX0qs9qq4v9n782WHEmSJEEW0cMuAB55VB8zL0u0tP//T7vUNFVZGeHuAOzQQ0T2Qc3giMisme6ZrO3J2tTwiDCHA3AAZqqsIsLC7MS6ZJ2aYyqBcmSLbAHs2Jt34rmyU4qOoqcuch+p7xE7CxHON7Udaix9su74GAPB2b7lfJQfzOAJjRlL1nAUAD1ow7/j8b+UdP1j/M+NqrXaQusdxsXqJuO2desa1lKXkpc1rlvIUqqWKp0Ui2ftBomBQ4jdBGLfdR1i511Hw6jbRvEaKkz2rgIGKGcqBZn2TJeZmejRWmdi1pjvCthKRgCbZ6mM4jknK1uxaCX6LuqybDnrMoe+p1Hk5URd7Lrupe/jp+G7MqZ0vt7xfuX3q72/6+sXfP6Zrle73uyvV/rpTuuq61qW7bptlHOqBUDaM58tZ9WU21S/UskxfF2Ks2MD39KpqHBq8bjnvoYQUSvsUStqHlnvxmU42Bl7IhTYy0m/Oo3/VlXmm0KrHSXKx7cPpNxj0CZEd6ywexMdqtsZIu1GA6CQlmlr0eS+OB4R5/E5EIgfO7CjktrC1vZug1kEeiLHDs6TDz7EGHvqehunfjpN331yP3yHy4VeLvRP3+Gfv8PlTOeJfpzw/Yi+4y5oRzHoZjVLWmWe8/qa1oXf5/PP9+59lZyxLphn3daaMqeNto1KUalUC+2tf3r4QqGdOoKBHXnnQ6Aucuw4djROGEd0HZ2H6WXqP41hGsP4iU6faLxw11cfjVyptiz17Uo/f6G/vpW3t/tfX+nPr93bNV+vy+sXe/tCt3tal02Ts+Rtz2Q/fKAetNV/Z7HtN1vbP8qctrf61GolS4mci3MOxPAezN/CZKlaa2sX+MhtGqDYBcxqkVKsFFcVxs513XA6hfPlNJ3CODqpVBE2c6bkmIP3wXPw7L02i8ud0g3H8J69dz645j3pvWN2TI6hD3uKrzhsH5/S/0zx8vc1/oDJv8fgp0vH9mIWKaiCCiibrWa3Ul/XtQhS0pxSv6xhLbomXe5YbpxWyzOnG/In5k+DnjH01Acy0o6r6wvhu8A3GhddV/RfKPxFT7EuM60zrXdsJJloM1qEKkwVwrR3jZsZQUmUqJKj3Jp1zGCJQR6SqEayQFugGPi+uHXjYXBdT9NGd6Xh4rrexzHE88SdRP50Dkvn1wnLBe8veP3e7rPeZ/3p5n66023WZanXm93ubpmRNuTSiwQRkSqlTlKriiiqYpeSMfuIqwwiKIcDiwBCe99Ed/j4fBQdbY9NW6kJQH7K37qnO/Ojmkn06Ob86iTSHnp+DPrASHz1/1fn2+yoZD210h5Xwv6OVsHcuMhfp2Sh5rFnxsO+Xz9Q/XgJj1RqE1ltMgrsHqw21zvvvN+8D13v+p77nvrBTSNPk53O4XLpfnhxP77o+cSnE31/0u9OdeitD3IKdaQairhcXF4oz5Y2m292/0z3V6wLbjPe3m1ZLGdLCdsmKUmpVjLlQk14UoT3FlUy9oih8YwlBI2RfCDvpe9tGFzX+WHg04nGkbqezpP/4Xt+ufihp3jS7nvxJ7GQtngv7rbgeqO/fKF/+4y/vtHbm//5jX764t5vPM98u+bbTba11FStZsjHvuSIeBJwR2uh2aPGlt9+HOOJywPgSdH8K9rOxT26xQAAIABJREFUt6yajxP/vGH76lHHhaFmuquOlyw5mWNiMEDSYBLAAyYzaoFUktquaneUIEgNRXWTuhS5ZbvlOBcu1Pfdpbv8yX//Hr7/C28LuUDUkdyRK5gxjTaNNgw2DOg6DZ4cgUAOziMEioFjpC5S33GMLgbnHXI9LurjCjzIrg//rPaZPCdfnu/wy5n1+xt/wORvPuipXm0fOTQS0AZeQSvoDnsTGbJuBSvptqQYl7BubpnD/E7zxW033t79+ua2T6SfLunT6TThPJKMOPUWnIWpWEw4b5YSLj/ZxdVbzPOd5jfcRVZNm/Is/u5RSUV88SEHExURJLJMpmaw6Cp8be5ZKAw4SID4IB6LJ+/R9Xxd0PcUIw1XO10xnmgYML3E0w/oR4tR3ahxUibtZb7g+idsqWyp/LzGn5Z4W9Lttry9ytub3q5yv+s8j8vW5VzXzZYlbolzrkVRyYuRmMLKrscNM2yChfYcTgIWkMLsEM98trtrZ6B5ldjXlTwF6kEraFuWw/f2I1350B4DNH48+a9sovH0647jxt+wp1zdU23zeJABpnDKgagl2txOfACgzvTA5l2MosG5e6SLgYCWJTZPCETBk/fkPXXBB+dc7G7D+N+G4TYM3ekUXy7+fHanE15O9uksLxe9nPWHs/ww1bHnrvNjyIPbPClBXF64LJQT0kbzne53W1eaZ7q923y3baP1ytsXy3erRYtoLlKr1KpiJg8pYxZ2IDbAvLcYyDlyLseudpFDoBDq2Ns4xnHsptGfJp5G7nucPuH7f8X5R42xUldsyrXLmW8Lfb7z6zte3/gvn/Hffsbnt3C7us9v+OsXut2xrrYttm1FqpoA2IClYSEjERLhifG001wf+VU56FH4Cib3QIueri77G8ffoOnzfT7ubEZqu5FLyeKSsPtYKT5gsmkRFORMpVAtJMKqTbcPMLdXBSGb4Jrr24bXTW+VEw19/537BFo2fvsr5c1Cb25QRE3ZEenQy+lk02TjqH0n0cMzXEuHI3gKgfpIfYe+oz5yCOw8cTEVPTjaLffTChyM/c3b1zB5bENbSfL3X5jEHzD5W442Qb6dXY+f2Qdl/ygymRWVrGmrtebspLpafN7qtpaycVqxzt1y8/Vm6xWXc3g5u3yhPNEw8ODdxAiB2HVwCf4HN1HYTnT17r3S7GyLFDfnPXKxWl3yzgerSrW2qEuqqFYjNautqc8qmbFKJXEmzpKDc4hJUkLsyXv0qywZw5W73qa7njcMk4sR3dm6T+y8Jxp98CHKKVT1U/HnEpaNloVvV7td9X4f5llu9+4+h2WRecH7NcyzWzdJGan4XKhUq5KLrCJZpCoWA9mOfLRbOphB/T5vgeMjPT7tj6YufRJqzwdkthVzXxnN5AC252Cig5WjU+XXooc2HoT5Brp2ZHnxWDwPR8zGg9xvjLsn2qMZZb9YGii2FSeA4p6RRqu2OiLP1DmKTRreU+99iN510ffRx+hj5HHqTxc7n8s0+cvFf7q48zlOU38Z8TLpOMRp9OdolwDPcKTRtpBvJtlqqcsN67usqzZ0nGdsm6WEedVtk5w5LzXdrd61FhPRolrFVFvz4a7IwLvFNgHoIoYBzpH3oetoGDgE6qIbRzuPfhzdaeLTRNOIrsNwxnTW2Au5UnjJmNe6zOX1Rj+9hS9veH3Nf/3Cf/kS3652v8v7ja7vtKw1bZKzSmkyDQQ0I5vWSJoJaVfh+9DmfszBr5Ds6zDxfxQDfZNu/O8lc/cg09RUtFbhCpelUX1b/S94sGs87aZFgJK1FhVpwpSP64QaG0gNVSTlfF9xnbv7EksliqEbT3b5Lnz63ubXHjAjV5RCAsB954eRh4H7XrtI3tPeUwCmdoqcDxw76jrXdTHuqVc55tbxAtpFuzvL7sWFp43h4+p/oObvfvwBk/8pY08AErEapIqIFsCURCjntG1LTrqumOdpufflLsuVLufp9tLnGelC51P8NGrsJQRj5zCMFC48ka8FA4Mzou+3DW4BBWwJpcA5IocicL6xKitVFTTyQlMUFYVqk8ziWtk8g8hCyLkgJPZet5ySoOtDCDJs5Za4H0OMGF9kzLEfu77j4eyH0IfI3gdwb5QrSrFtxbpg23RZcJ9xu9PthvcrXt/o/UrzbMuKZcOaKGdsKa+pS3lLKRe1iqSWoWqogN/7Juw5z/O00n2DanTg6LdMgkMp56PB3D4661rn/7fL6DcnEfvt31Q4/9bK8C1B7CHVc/Q12vHiqVVRdxsUosiIjffieQhuCD6E0EXf9zH2PU8jpoGGAcNAp/Pl03fT5cXOZ7xc6NMLpomGgcaOpogYEDxFo06DidSSakq23Wpaa1pxfcX9Lc33sixuWdy2aa2o4nOhWlXElcIlS8kmFfKod7c48mhldky8O25T11HXUYzwPgwDWstj3+M02nnCNNE00WnEOFCMEkeEaEDOeVnL+x1vV7tel5/f8NOX8+c3e3u7f35zf30/3+5YljQvmJewblJK0ZpNHh5vREQ7n+v5035iV/3mY8+5/veefu8fl1prseyFXDNWVRCJtKS5IyMViGgpKrWVJY9rDM90axOxlMu66P0+zrOVZDxy6HucT7hccHtxKhDlrZBzZOAudkOPvqeu4xDZ+731Dk2Rg71z0XMMFKNvKhPek3NC9WEZtlPSWhmc8HDOsQcu0lOWBvjHQMk/YPI3GvvVAnzQ3tqmlp5LHa02KaACzKCbcTKUZuUIQ8mdaS8FNakkl2e/XeP23uUblhc6n7r3q7vd6Mt3uJzx6ey+nMN58N1AMVy6zny/MZnvv/PdxdabbBver+78Xpe1rCvfxd1Vc7VSKIIDtFaVDFHSZXe3VjTrPBj7wqhEIEviVoXP5LzFHLqEENl769/r+IW73sWIcdDp7Ich9B2NI0+T6zqKceLvPH8nFJRcCVwurk5UXihl2jbbFrnP+nrHbca66X21txn3VbdU51Vvq85rXde8ZWx1zCXWWkr1tfYiVUWseM0BaK2Kj6KmPQlY266qtROAHjopCqsH8ulTJPq00hk95ZG+jhqeo0V72kDjKbh8xuBfXCKgAbgA4VhKdmHVlldjJmbnHXlHxM557rz2oYRgIaAPOsTUdbHvYt+FsQ/j4KfJnUYeBjcMfB7dD2d3mrgfuB907CW6Glgi5aiJk/CmvmSXNs3Zp42WV5q/cNpcSphvuN9dWiUlXjOl0iwQuQhVgRh09bI2jxozUzPwLkKjTOYYzpkP6ruWaLVh0unsuo673qaLTRc3jK4fbLrgfKFxor7XvpMQzblk4T2N1xyWTecZb+/h7U2vV3t9p8+v8e3N3t+7t3d+fff32VKilJAKpJJK051v4aMSNsZsexvuDMxHsv3BkW651nbjQ2Hg6eR+s7jTY/uCv4GFduzPHiddjwpo0zE4NDHUQErVOCsTUZv5CgnGvAeMJhChkqhWp+KhAea+IpYCRlbZNrNrweuGLxt/Kd2FMHXwp+o+/TO2pboO3Ad1tCyqqjHUceBxsHHUcdAuUHAtpYDWjOnUeQ4BISJ2CBHeE7MRtRh99540eMCj1VqhT2bND6Rkgz/ak35JGP/9jT9g8jcYzwsgCNbMawwg3Vl2zQqDEnEGC2gD3kEOHIGyMzwNUp3VIOwKcb33yQ1rPyxTv93d7e6miU5n+vmOlxmXF3z6RJ/ScPmEk+Fy6l+G89BbCOjPd/r0L5rmtG3u/Qu+/JSu1/v97t/XLmw15ZpLTBY6M1GVhLygqEi1qtReHYiNYmWnO1ETVok82CFs8DO8g2P03gaPGCgGjM5OHn2gLtLU4RTRRYRhiP9nH/4vhMlCQBetixi8tZknpjmnXN8z7tlSKbdVf7rhbS7blq8LvS7dbZZ5Xu8L39bTskpKeVlt3VzOUnKp2YuLJqbWJE6arcah/PacPTtSRgeifbOofZzGp3OZge3X4kj9Cibx8d3HNumQ3vlaCw1P9zuDfgSGPYfMedd7d8Xz5j374PqQ+7CFwDHQZaqXqfSd7/t86uU02DB20xCm0abBjVN/mrrTFIYh9F136cKPXRxD4EBEQpqoJuRE6Yb0RjWhFFqvWN6wLdg2XN9xf0fJlgvWhC2jVFRBUmRFFdR2oBA1yuZXcwVkCpPdl5fUuRqYgoNztQu578gF9q6Mp3L6FIYxDKOdf9Tzn+J4itPJph9s/N71AwdfnM/EVei24d8W+vM73Wfcrnh/w/VNb7f++o7bm7++6+3mbu+4vsd1lZRETcnYALNW3C1AJSjTynQ1S4ZieDfcmtKTYQBavdmOdlUceKbPp+g4r08kA/rbiXc8oyMdB9UAwD1tzhrOqQoEKHRcKmomVPPuocxodHWqG0kird40AmHHm+aETDBCJVqNroLXhM+b+7mMLxgs0nhC992/Wi7JTeZGMh+Wm4pIcKWPPPSu73WaShcRnDk+xKuUWZxjHxCjxWghIgRz3JD5kPugAASzACPa36Z8A5MwhoVjQv1B4fljPI3/cU1jB89jFllVY9s96h4xCFTNSNE8kyyrQsxvxd/v7j7TvMltxeUebrPd1vyy4XLplmS5pNNofe/VceTguiH6SDAmC/0wns6uX3xc/LpJSm6uPlSUapURRiuDirOi5MDFAJDAtbYD3Ru2qHVbmppUZIBZK1dhRE/eS+FSCZ0n73X2OnvEQKG30Fs8cTy7LvLYu6FrfHPyDsyOjCOhCwM5tX4tNi64J0m5Lone13DfdF1P80r3NcyrbVtdFsyL25LmLHnlvDipELFa25fWYo02uztO6QFY2JHx0E3dVRQfOnFfiQIACq9EHwIRX6HpI5f30OxpqSjbb3pgctPzPUTw6JBXJH+x8E9wPTE5r85X5+E8RS9dKI1tOPQyxBIDukiXyS6T9R33PZ16PQ02DH4Y3NDZ0FGMoe9C13EMPng3EA0q3gSZoNnKUtMmabP1Hetny5uWzMuV1zfbFkuJ5yvf7ygZIm6rLlUSgRhlo2JUBVVQDNWgZq4IK7EC4CaIxEzMGjx3gULgEFw3+GFECOR9PH+ql+/dOPlh0suf7PwnN0y+G7V/sW4C+2K0JL3nsuXyNuPPr91f3tz7rVyv9e0zru9yu6X5RvO1X+60LHm587JazlblWQXm6y9Tg9jOX318PWbfAyN/WY/8Xxm/fJJHa5B9tSo0pbgqIIXBTFTJuZZydQQPY1UrGaWaiOpDtu7xlNgXk6qast4Xu971tuiy6XSKQsG6gU+nqGJSXVrIgWt1jmMfqIvc9xSja9wvx8Z7lrrVlJ1D26iFwD7AeXKOFayPwuROwOav93/tRbVI/Qky/yHGHzD5nzKsqXSqqtGx03yOdEwLqlqSJLXUXN2aQtd1t5nuW74tuN3oPtu83ueF5tmlVTTd8tmGoXejXEZEF5wPICUPN4592tAv6BbMC5YVYQNvSBkZCCPkhJKsCJxRNlPdt8J4+DEeG2xTK3sbVVVsQhaddy5XWoXMExHV3uU7c/DOxxrO0n3ycYl9F8c+Tn3sOt9F7TrE6ENwoeu7oY+dC1xAQ6FNrAq2irlgzcgZa8J9w7xgXTEvuM/YNqSE9Y7tjpJRK0pBzkgJKVlOknPNueRcRKRZMzYufsvLNn3g3dZYH8lae0ZKITO35+WelgPbt8dtg71vw9t2XI/Iiph3xxIiYjbHxMzOuce/6C7W/0Cxd46Cty4iRsSIscfUY+jR95h6G3vEgL7DZcJ5QNeh7zD1TRwJXaQuIPhmKtj0bYgIPmeaF8lFa7WyWrrnbdnWVZc3Xj9LWkvObr2G9c3yVnMOyxzWu9UKkS5JV5XVIHAVVAw7TDZtMjMTeEVbBZnJMZxj7ykG7TvEQDHSMGI8IUb4gJfv8P2PmE4YJpx/xPlHxB6+szAKxypWcrmv9fWervf5y83+8n756Rrfr+vba3r9bO9v5X5fljtv8zmtLqWSNpeSqdD+gva1+Cs+TkMma9yXA0qblNyja+PvVaJ8GoZD5HcfHwl8M62y13VVWQTOERExeYaakhlqQSmoUtXUSHeZpoM406aliuYs6yr3Wed7WlfJmdWTxcjD2EtFSdjOREalEJPrWvoncgzOhya7fkSTbRu391DGQMFT8Nb6J9katfUDAn+d/f0POv6Ayd9o0IPE+CH+CWuZiran9M3QDgBQgQ20guqhuk0AkUWy/pHNNzgDiWIrebPNlxSrm8Xek5vm8rrwaekuN7688Xef+K9v0/ls4xj+dNLXs596CwEjjROdfawuVHbJDYnWhG2167ve3uq2yTZzIs5Oy6apYqvYRKWiqN+Uk6pUKuozSO0grjXdGHXZoiiysTMu5PLuIqBRpGPySt4k/JvG7ELnQ3BD9H10MXII3HXoIsdI3eDHE7qBo4cPZ9f1FIyoIBQfivPSURl9rj4XKsVSwrpRzlaqzRtuG5WiVeyASUlJtqRpkwaTuaAKqapUlAIRMmvS0ixCoqICOcziTclsP5GCKHRUGu05Q9t0Yxs/kA6Pop3/TozWlc1MznE79t7tf/Yj5zt005uP8J6i5y5SjC5GNwYaI/qOu0hTwBAQA7ynzkvnxXt4j+g1eA2Aq+pFGJVUjq8KNV7v7voztplqtZyREpXCpSBttK2acy3ZbZtfVy1FRVyurrgmdOqr+rZDMqUmTMGK8BAsZvNd6Sf1jpjJs3WOgvfBWxdl7Fzf+a6TcdLThWLHIdrlT/ryr9SPFLvcXXI4V4Ra3JbiKm7b7L7S55v7/O7er+7ths+3/u3mrze+vsf3t3q/5mVBXqSmUnOupUqF6UYAyAhCVo4qY9NRE4IS7kCyndhMhkgwwIEIVo7a5Dci+9+kzvG346GnPRPZN1uor58Th6xSBZjgPtpzDVBqXWJoiss7CQpsO7xqhRRSod2Ro11narAKZDOIIheZN7zf8eUdf373lyvb6GTqXPyBLw7+AhrZiLueSjaYeCbvOATrRuuixQDnyLFjODbH6pw6D+fVRw2RfYTz5hiFWh6VzAKsAzqYe1KMsqPoi6OE6w4vGqX/L/Ykf9/xB0z+FuOjmNH+Py6MRpvep+GhlGYEq8ACRFBEmyyNLaIdYUKbKXBANJBAa8m1KLKjHEIOce36vvT3OFyH6ezOZ3p5oU+fzpczpgk/XvDzCy4TxhE/DvjnAUOHGC0O1b3UBiY6/0Xuf07rkpZbnMkvruRUU8aSaM21VKTa++p8raUwV0L1ZQ+2yIhEYeJL9VlBABsSYcUuvBoYkeENTsX/m4X/h5jZO4oe0cN7BI+uQ4uhhpGnE4YRMXI/hvEF3QDnEXqEM0Jn7MARNAAE1SJUhFVMRN4Er5WyqKiUgpIt5ZxSXjdsm6bc3pPP1YloKViTK4VUIcK1xlpZRKtSlSC7GTKbuUbbVDixbo8wTZ8S49Z654nI0YczV7P0dczOcWPfNEz0zgXvQ/AhhBBDCM57Pw5vl9O/dV0Knjvveu9CDDGEMfDgKXofvR/YBjLviIhIM7QeFbIKqySGLJCEsqEU5IS8oWbUivkLXv9vXd6oFGTlDCh6NVRwJquqpVBS3hSipgaA1JMQhCCyi3QCQAXV3UPJGwLDk4Y+hxdxAzlP0WnvXOc1BBs7OfVu6Ljvdbrkyyfu+hCinv65nv8rhZ7ILxTuEtfMa8J1xduK24zrDX99xc+v9vo2Xq9YZp5nut+H+73eb3mdU1q85BV1hRRoa4TNTMbMZIlstr0dNgGppbgNSZFslzgH0O3JcRNQOXIGzzB5zFx6omjuBK5fbZx9AIN9tEJ8PI8evjd2YGSl5mO89y9ZY/mZkCiZkB5GDPS0325epGbO4Fur4h4qt9YmM6vIRZeNrzM+X/nP7zy9AZNzwV2mH2KcJK5wY0eKvrOc1FRgYPLe2zBZjPCOApMndnAsjqtz7IL5oCFUH7zz7LyxNxZW8WoEC7AI9LB66OI2vhI/PkSAabfGw5P+4u94/AGT/ylj31TuLI+dEgaD6u5JePBA9gRR20jCRGqGmYpIrttWeE1+XcO2cdpomd00xboAm64TDQPrpDzWaeBh8Gdv3lVixtAznxFLzJNLk7sqz+rSpimhS+iTNsXJUCgWnzJCca6iKLUdbBFYherhE4ujo2u3TBOIaNs9swWoGDGRY6sOxcE5Cl5TshgpBiyrLKt1HbxHN2Cc0Q3kPYVB44zYO+cpDOZHouCYjQIoELH3bozRXBRQE+ITgYjUKqW0TlEp1UqlUlnVSkVKlHeYpFJcrSRiRVDFiULEzEi1JZRIzOoj4fqIJg1oiukE2gtz+3FgeNdKO+SZnMOOl8yHDBiHwCGwc9R3wzT8UwzCTNFRdOwdM7vWKdkydU6KSRVtsUYmSaZqKibJ6ia1mlQrm5XNatWSrCSrxURceu/nGdtSc7KGFwozc8K+sFZVEZfMZ5ABRLyTMZvllh1cRYfGu6WDveEIwXMX+37UMMEH6rz1jjrvYrSx11PPY89Dj+kSL5+o6zlECxOYVU20zMW9Jb3N+TaX19m/zv62yO0un9/x5U3f3vP1qtf3bp79tljeJKdcc9Um+Y2vfKnU1HR3PP8m3WpmB7n0o0fZwHus8xVv6+++dtvT/9SkBe3rn5uZQo/qBoHItAkTt9Rr45i2xLoZgxqVQc1EFaXkbcM8L7c7X6/2fnWn8/jdEMvouYsMRe6o7yA9MbFU3/zLnGPnebcpZyL++MtEe7mZnWuXMX1g+Ncf2KMC+QSQ/5jjD5j8rca/c8p9XEn7dlSPXnjDQ0ALoMNTST8eYgZRhaqUUvKWyCXEzS9Lv64hrTTfu3FydWassk40jKST4JRfpjCdPA82Doq+FSfOPKGTgryhr3RTbCtSQrdh2ZCybRk+Uci2JcQCVyiLmSIXQtprJHpQvQ8eSyv3VdFMYs26vSPTvYgngc07dkzOteYGdg4hlPtcQyQiioOOM3WjCx5hlH6h2IcQKY6IF45dCIFCT57YeXY89NEPZ2O393Ad9V0xamu+SKNnwgylImfksguqloJaSQRFUAQiu9fTvksxVEU9jndeCI4NC+1I+fCCdg4xIHrspR131AsZvnEiHLyHD/AeziH6vgu9dyA2T/C0ky+pGhWVUmvJJMVESkM+2bhsWqvUbGmRvNSca0nIq5YktdZatCaVqiq9LKh3ymtOm6SKzUwAwAvH6k1URVyBVvbkmMjUqB6lr3Y2HYNhzvYGOcIeTYbguo6nCd0FIVDn0Xv0ATFi6nHuMQ7oez5d7Pwduh4hio1WXa2ait4XeZ319W378rZ+vvdfbv19Kfc5vd7wdpPrbXl/l9fP0/3eSTbUAv2QgHhK2OzEVDOyDxKpHXlUBVQ/yDtHzdKO5Pl/eML+h8dTr/3j6nnCk2/BZu9g2o1RrQlMPExvHq5HRMRg2JMIn6pqLWnTZV5uN1yver2G8zncz7H84BEQyJA79D1JDwJXxyZ7y5FzzjluTuUM4uea+r7JazDJTI129jdQkL4++p/0p/zffPwBk7/JUKPDi8eY9iTJQX7ZOQSOLEI9rFnJK0xMAVJQ2XfK6mBHAhYTMBgcwEb7hQzyQHsSMg1Su5I8LUyLw7VLQ1h6V06UXvx5wjDQ+8W9vnSXE5/P+HRx3527fuA4uG4YY3Qhauhq78du+C+Uq6Wsy12WOa+brAudbthWKxkpuXWmtIlUpM0tM1LSUqlkVzypGeBaDVbNyFgkiLa2OqqZSyYyMBsHcAARsUZmc46YyKkEU29wTEHQbYhK3lNI2t0RvfOegrOOKXgOnoKj4OAdOefCjz7+E1zEPrMZzEZs7IycERmcslN2IFZwZdbIBlIjNVaj/QukRkfwvu/3m6PxfnqfYPJDI5TsoOc3pDTnmveWERnvdzOG0L6nUDbjaiTmN3OipEqmLMIqu59GFRShKlwq8kZ5g1STSiVRySzVSUVOWjet1WqxknaCr1RINqmm6mTr6o3qFqVqS/gpAWBzLAEGU4W61pQDogKoBxERe/HBAuAYjsSrBSPH7JkiU/QcvPYvefgX7T/5bgj94KaTGwbXdeh7HQbECO9ziMn3RbxUd1v92xy2hC3Z691/vrm39/796t/u/u3m7jPud7rd9Xavy9Iti6a7s+2w69hdGw1IbDeyzSDASrhTc3M8/CMJODTn8HWBEABhLwra4QHyXETEB3A9KMtf/fT497GHOKwWj4TQAz8IUCJ68v58EBGyGe8tvB9L7lNDoX38+j3DtL+K9tsFmlFX2ApT2r1NGGgq+iyJtru9vtJPLzyc6IcXfLlh8DzFEE8nxz9ydDrPtq1WMpGx99T1HDw7blpJDT29QxfRdRaChSAhIkQOAd4TkYN5KICw209Se4N5LyR9dMK0d8HYu3R+9/Yg+AMmf6PRjHMTAEJoqZXdhW7f/LWl0pMFqDvqE2LNYdFtezAEg6Td2hkjMOzFcIrgpvkYoROsb/4/pn2FM4Y6Vh9T8HOgdcRy4WnEMOD1E//8iS8vuFxw/uTO3/HpjNOJTtaffT906AM++T+FHixAqbpd6/K+LUter7S+UrqLVEpL3N5ou+ecsM5hJiRfS3EphDVzqarqK3FlIgMbm7qqUqpI8VVD2YgU5I6qCwNmFgwGUnIKb3AGBwpqYYMvcA7B0AkC4BxCRdwQDN4jGjo5YrT/6t3/AdeDmUJACGgsFx/gPJyDDwgBMe7fugB2IAI7OL8nTLkp3Txyesekpsb1BPBYKtt+X45WyMY8fEiAHqbTuy2G7MUllQZ1e3jbyEKb0Cx7e2LJyBm17l+lolYncpQb666EXUtLK0Py07FAKrQdFEiFGSRTXaANMx5isITW8W2EFnMRA1Cz6qi6lix20rnaO3IMz6WHRHLB+y5QH7j3PoQaXub+v2j/Q9eP3fQSTt+HYaKuR+glDsYOwCq4VlqTpYSf3/Hn151e/X7F2xXXW3e9xfsNtxtudywz5ruuC1KKNasUNsEBMEIoBiUsjDfCYlDCzPhClAFKjysEAAAgAElEQVSYbYa5NXs8hWz40PkDwXxr+LN24n5ZJ/vKZa8B1lP+5uMKeOyVntxarIEi7RgJPdwl9aDtkKG0zPUe1O/5oWe9/sdTtd9kj8bfIzAVaDZdDQkwgiNIg32oh3hJ2Ga8vdJ4ocsnervTlzumgamPFCcOYp4NXsgpLQzjECh07B05sp2QBzIKjkI4kDJqCC4E+GDOg4iP/b0HRaLOzANth/xstn6cig8pVzV8m2v+3Y0/YPJ/q/HIqDzvwPY+v2812FqJAiIKspo0q1itbGamkhOvq0+lpJKW1d3v8bRs52U9neP5HC+LzosOQ5g6x60oT44JHEI4naa+7/OA3FO+W07Y7nwHFg7bBs/eGaWopdCWnUuUi4lwARciNdLWYaXkPItjFLAHKVqjVfMNsMP2qW3OjxySZCslKzdoVEsVHuQYoVpYEYyco6AUhTyRc4X7zKO5np0j7xHCnjA6ur3IeYSAEImZvFe3z3hip943yCR2O3Y2m9ADL5nEeaFnmEQLNnf3YzsaSduPVKuZHAVlgcpeSlQxrSrtQKFqZi5JNwvnqqLNDMJq1SoklWu1KhBByVRSg0kS4VoP0C1Uqx0wTPvTClTIFGZk1cN2/9WWud9f/E61ADUabgAxMUfP3rsHTGrfCEhce9LBueC5DzRE6gOHoN134fRPNvzoY++6ibsT+46Zi1LakFVqlWviL5tfUl3W8vM7//TG91mWpb7f6O1Kt3u93ep9pmXhddVtq2lFTlabfrqG5zDra02jp7ri76kd4e/yUvc8sqmKqkitJVfKmVPStGlKmjNq5ebVQs41xXmTQKbknDE9J1Ifu0R67nHaawofN/1CbfH/L+MPmPzNx79jVnxTxv/4/lllrR509pa+aM28uouu7dvYSlYBETMoVKRWp2JSakouRltTWvPtdo/jaKdlnpb383k8n08vi5xXGQc9D533Er31ncXoXIgu+kAImKh2lE/IG5YBHawPYV3Rd9wHShtKxpoorkjZSkExSra3VhSFV6rC4qEFmgwKIlhA4781HbidUGpmtWUoBZa1CEBE8CqhwoGZ4KuGjZyxYwpGobJjx5yon7kHd63rgpxnZnbcYkdiR84hBPjAzOS8+IC9GOOkkROYiVu2dKfiKHFLAXiy4PSxLDyVm3ZhNDzBpJlKLarlaG4T7L2ZYioqVVR0R00zs5iE5spFVNSkqVyLqrAIVzFRE6GauRQTgYoTYRWoQYVESKvZo5TaPES1UT/M4EjZsft46UekQg3niRzDOwqtGcBR8Agt+Hbce+tDS277wdngXYzcRxoihogQbPi+O/+LDd/Dd+YiuDdzRXQtNFdakm5beV3cz7O7Lbos5fOV/vrm73NZlnS98dvN3e/bfd7WlbfN5Sy1SC0klSDa3gHt8VY5DD0au/XBHX1UHH91rv0i/iM9JHP1P4ZYv37fv/UM9otvn7/apOanyW6/9kDCE8/4bzybHlwAUxiMGqGv1loypc1vq66brUlTQa4knowZznMToNMK0zYFHpSCx+8+GpwOWGR8VHs+NPq/+frli/wHHH/A5N9j6KFTzB/5hlZ+sOfLqx1U7IUWAilcS9GA7E7mCQTyZGezAepAmSBkHUCEACuECBDBO/RsgdRJoU0h2WXnU5J5K92AruN4s+49TufufI6nd5reMY7uPLjX3v/cY+xpGLgfbRgQIoJ3PrLrJlLh0/f88j3lVXKmdHXrF2xzLYmXJcw3XbeaM6/Zr8VKkVopCW+CppSdepd+gO1EBbO9ZgkzMt2djGwx2f1yG5CCiOpOo23z07hFgXv/804qcBL4L+C9h4+ca+LbcATXYiaGZ/j92DzDtUQrWZOyZCbH5j42y4d2gJF51o6OfgB6Prl2UGD3BCzM1LRZObTUnEC1IdkRUOr+r6mZuSwxCVW1nWhUTdRUSZSksR8VIlT3JC3tKkg7JZVUsXM2H6sq0e5HCBibOiUmYmrsoMY7ciSOyTE5pyHUzplz5Jx0sQ49++ZvddJhcl3nul6Hkw2jix13PfoRoaPg1felu1TXK7kqLovPiUqyeePbwvcFyxLfrvz5Sve7n5f+7Upvb7SsblvDPNt813UN2ya55FqTqJiIqXDLRUPpAwULYTtqkxvhRkjHcbsdhkyoLR9BXxXBFCRH6HOYjD7O16+PpzNs+BoGnnEXX4HWI1G/u5wafVRA6eCzPPg4D7Smwyn6ETd/JXxKR1nywJwKbEQrsMHUAQ5kUAIrehKHIrK6fI/LLc5Xf7vS9e7eNusyQsc9xxAHCHaOm1QAFDzx3oDyIKPxLsRjzOqcOG6jAafbvV2tAtEQj/prk4B+QPjDmYee3vjvPgb9Ayb/HuO4wr+hff06UtpHvYQqKO0/UuxK/Ih7McwcqBCUkFsPAkFo7+ENhETwZGzCRVyFc3CUyZL5u4agfDe68XSi6UTjzQ9XHgc6j3Qd8TpiGjGd6PJCU8Uw0DC4votdADP8KBHfsRVTpXy17S+23UrJbr7R/V3XOafklpXui6ZccnFrcWvRKlrVlkhzhwozMU2myVRMC3Qly6YKq7AVllWVgMDOt3ysMknY67vqYXFfWSg0FyoQBbcN/g6yXYTmoJ8aH9jABE/7iuTImrFjWxV8Y0exOYKnp/3x0bZWBpTT8eDnXLceGa8jjWlHSfLjQPZvzVqRsqVbYbJr/VThItSCbznIuI8uhn2lNdJHT9Cxl9+Xo6fXs2/7CUztbkpB0CuCIwcHiwZH5Jx5s6jmmZ2TzpV+Z0LlcajjxDFS7Or0vU7fh37QftLhe+svGjoOvYYTQk/MhWiBbYIqlgqWDcuCZbH7Hder3m643/ntnV6/2P3O8xzuV9zesW0uJ582yWtJG5fqTNWQGh2GkQilyZQC6wGHFTsKAsiEFcjtGNgO8bnWt9f2Cg232oeizXZjn2KPj05/jVBC39z4TZD0TcBEX1dGjiIl0eHdZk/ebe2x9VG8/Gia3OHTfb0U4ElO6GkZQSVKRBmWsDPC2m9hAsM6q0WTzwtvdz9f6XbD24yXlcZMYyWJ3nxHXXsLglpg1uYL8UMcY++PZTZ2YGe8s9+MHXbrEgJ2kYHQNGYNzpiOnYE+PuLjPf7u0fEx/oDJ/9zxizTFo+hitIcLD2mLFrZAW5zFh4rB0QzRnq5l/fbgzMR001yy9w6iVuuW1nVd+hS6xfVDmHqnvdUR4+DH0Z1fcDrTMIRppGksw2BDH4Zop6i9RwjBud67iSLFWih61zlb+5AzzQvHAVsKKSFmDhmlWlXyPYcB1SAFspl4iJgUKJE6M4UWqEHZWiv1sap9vO/2nrS9o+dNBsFlaN7zoY4e6jgPNwUwqTM7IFOOY2NSb8fCQHqooxiwK2kDTkYvesAknhPjLbCzj2of9vjP9o/9GSbb7faUIDUzJ+qrsDwCxINoq+CW6N2PQftvpn1J+zaztWdTdy7SvvN3jhzYwzkEokgITM5xJHSG4Mg533seAoKD92Gc9HSiGCn2On1v03c8jNSN1n1COBE7JZ+Ji6hWWau8JrnnmnJZFtxnf7/LPKf7Pdxu0/1u93u+XsP7+7Astq5lvmG+c8lWi9YsUkSqqD5CGzrqYi0keURjH1/t24Mvjqcf4Ukx9Ti2x6fyq40Jf++F2w5F0//Yox7T/m8+0j7+fv2uYTBVrVJzyVvK66rLrMtc1sW2rSsjqQKOmlQrvEdL1zM9FR33c8B7x2RLsrBr3Vv8aKvUfzDw+/ePP2DytxqPJqdvkgwtTGxhih58yOfV7tcmyN5WbADZ4chz7NHqU9STn3a13FI9BlIwGpFGTdRQkTOZqNaac0lbCVuIc4hdHKLX3vKAse+GMZ4vmM48jX6acD7padJp8pcRMpEMru9D5IHjhX10KvAD+YH7zZWMfqVuwZZczlg2zAm1WlWsntaIIlYLaqQSTArVAnHQSFqhBcKQDK2QBicPaw0mbfx4omPTAAj0MVcLLIOMQFYPQWaCMj1Y+uJ2+Tklkl1gB8aQRyqODphsK06zKTTzpqq0mwx9dT6NoPuLsd3gcE8p616nbInZ/Qd2iK/vMAnAVMxE+RAfpV2F21hhDe3NyD6SegDTx4X0uFpavozReKqO98ordcYTXITziIyOGhxSR9YTgkcIPEQeI8UA7zGdbTohRoTexhcbXtD1FnoNZ+NBlbJgKbxW1Kq3TT7P5brmdUv3Ge9Xf7/X+T7f793t5ubZ1nVtx+uq27ZtC20L12raeLnaWj2EUAiFoMdxAsxQDBv2aFKAfPR4tDplc6LYbWuOyUNP0+w4sOeffDUR/7sL/fOP/j1g8IgL8Ysp/5jdD4kD+rXjx57PjkcqffXYdolUUAWJ2e4U9iTdLq1PVLSWItum62rrqstals3WFHJxooD/CiZNmw3QUxIFD9oONYtm58gxOW67L2ZmIke7UAM/5ZC/nhu/3Pf/Q+DqHzD5mwwHRFj7MJ9ydGRgBRHUwBm8gRM4g8ohZ9WWZ/54pn39xaMnDyCgAFvrUiLkll4EvCIeqcag6ABHRApXzR9XcDAENKDIHupqYd2sbpTvLgRKgaynpaeh933vzxeezjyNPE00TWGaMI7uPOHl1E0jhoGmni89d06JLFKJfeFOSdVN2b9slrPkjLwhrVbFRGheeZ41F63FSq95kFKsFiob1WQqqIVLIskmglq5VFIxMxLjClI1NQhIDqUupdbVYDA2cU2q5FlcheiD5QCiun/GjfFnvN8e+MG0/dAyf1rezIE81iPQ+Wqu01EXtEMXwh67/A+Q3+/yuG97ee25zKDGj6UROzRj1195/lV7BvoQAiRSpocOkHhC80D2jrzn/5e9d3uW5KjOR7+1MrOquvdlbnhGlsxPgQTxEwJsIuwH4we/8F/70T6csI2wuIQBCSGkkUZCg0Zz2bu7qyov6zyszOzs3r1HMwM6aAQ5HT21q+uSVZWV37p+yxo2JtmT2d5K9hhsyDEcsTNsLXqLwZre2b7j5RLLhek67vo0nIb+BMaKscH2wfaJTYSdJjtGO020nnC2odVI42g2kz3bdOebYbNJ5+fy6BHOz6fVOa3WvF5h3Mg40riJm/U4TdF7H+YUSm1KyEzwDAEiY820pszrtgFGQQK8YAXalOegGVPQiO7yWmX/omQh0pa7mCoLgdTb2rxUgMZ0896zzBaZreWTG/Q6NMNTtazSLlRshw+VylkCuSDLtjvW3bnIYlEQ9SJoW+ErgFZC54INFaQEEtABPWFJSJIkBhNmN49mHGk18WqS1YRNQBBEJhhLCIgWElOEUBROxBFGqEiVhrJb35AYEsNiSiRAlhdBgAMs8gxjUQszZ4yPRUSp9+QrgJJ/hck/TdMwTm2FJSTL/ToLJlAA+1KWuZEr1aRUW53vtwY95Wuey7vkm3fYSH6rraAHGQIl2ARb3vZBsAQMhBAJqUseaZY4gi1mlslG39F5T30fhyEenWN5hKMjLJe0PJLlEotFOD6i02McHWGxwNVjc/3KYtnDWgyWjox0BqZj1weIRwwxRoQRYSMpphR59Zmcf5rmKXov85jmKcxz8p7nkeZZ+citn2ieU4zwwXhP3osIhWh8ohglJUShAMoGzIxBIkAgjoSdwh56v8o8owqXFMslir4JEGmBRyrPj0CU/YBZXwuMaatcXAiFl2p6BYphtKzfFmnaHSWSNcFQnMwonShInU8GIFXqWNJ4RYBAhqNlUZY8Q9FycoZzjQ7Lzhpjorvuh7+N9gqxJcuwzM4aZ9FbWXTSd9x1WBxhcURdx66L9iS4EyETBaPwmDgEmQNWM84nOl+n8xUenuF8JZtRNiPGkdcjbTZyfh4fPYyrFa3XNG5k3IR5SvMc/ZTmSTkPgkbqlvdiolzCMxJWrCmPFCAKk0omcA6MoPxQm9tYY42rJRaFYnv/yeyGwgqklFNGFWSbbXfyZfnJQk7KMJF2TYvKqT7SohCrXbkE6wFNZ6iBk9jwiYcS6BsEI3hE2pQNtPp0ZPicrwlJiYM380xK5rCZZPSYAoJIylXPDFkjkUWSEAklsAgLcb6/OWer2O+ZJZfAzEqmpoFqHmq1nFWxsTWY1+v6KmAk/gqTX65WuUP15W7yxIruQyjRI/U9JFAOERRkXMh1xndbmcURk0hIiROF5CnOcRrFOdv3dr3hYcmLhVsseLEMiwUWC3u0pNPjdHREi0V/dozzh+FoQZ1zJwNO+7jsbd+7pU2WkyVyzpEDicnvTA8aCEo3Ok8yjTLP4meMG5onmWd4T9OG5llCQAg0ewoBKcFH8jHDZJAcz5ISkiCqDVNIbVE1WGb3aosIkt9fkRrjmKdFhafMpUlUJuL8bkuMKaaCf9u3nYiqLpmfEgCgEHrpxky0058dPAYMkEg490IZm+q++VsqYyxTMiQmF64Sa8QpuwKLNXAGWjiws3COnJXuej/cgLsK4+AseoPOsXMYHAZHzhpjyHZwfaZWYI4phRjnIGfenc92nMJmSo9Ge7bh89V8vvIPVzhfxXEMmzFuRmzGOI5+tQqrc1mv53Gc5on91AcvIcToTfIuJSqhvxVP9DlFIBJCMSFqTY+Gc26rlOcXod7Fxm25fWd2lve21ZW0pVD6Ilt1o27P/WQokW3IrXFf9v7fPYvsSNZqpUdK6lcRfQohiPcSQgohpRQTsdFJg4j2Rmfuao7RUd+k0rrqckmxlMZh9JfV/gqTf7q246SowzhttUkErZwDagXexui6neu38y/AnCeXVE5SR7kBWEBQQw0pv7PG+Klc7CFaWYKAQOrXFKIEJFGvW6AUSGbrp9GMI3Vr7vu+73kY4tCjH/rlgs+O09GSF8v0aImHx3G54GFIpwtcOYpHR3S0dEcdHffUO7bWGGOMdcQgJmfI9paipxjZz+Rn8jO8x7imaZR5xjxjXGeY9B7TiNlLivCBfKAQRANBQyKNF41a10KNsYaC0zIK5bP7LCSb4qQQYtd7mi1I24eV9byacp2EU+Kt3lD/IxKqMNmYe5kkI2Uzj+xjX9FfdbMM0zVdDZl1odT9EzbQ6AlLYphUG9A0R2vIWukMnIWz5Cx6l6mI+uu8uIXuCqzLrCqdI+eks9JbIQpCETaJ0WyUOdox0uRlnOThBg83WG9ktU6PNnK+ltU6rVbp0UpWmziOfpzCZkPjmMZx3oxhs4nTFLwPwZOSsacUEQnRFLU9gWqSwAjRINWYsCZsCkzOhEAQQQ5qqubpVkUT0IU5+qJltdx34aJBcvmlcW3st1ah3Fv5mNZaFOWx6/X7Mb7JpChE2emod6waVyMof4Si+msESWBrZKmIpKSOC4QgPoiP+kFIEiSH7LAGs2p4nKIr7dzSnDCZYTJH9BDtvSl7n3KN1OjuXwWKum37K0z+KZo06VjSclVEYAZFIIE34DV4BiewFNssAaYY+uvYUpUx4yKBCIGxom2keSWHMZLJYw1oRi6D4AAPWBABEQlarI4kGEmaCMjoDCKBRODhAtkYKXkKM09rMxpy1nTOds52XbcYzOqIj5a8WPCDBX26SMOAoeflMR2dyNERHR3xYonFkel79D26AW4Q6+AcnTpzZbE0EIbYGI3yi4dg55HmMc4z/GzHDeYZKaRplPNHadxkY+w8wc8pRsTAISCmpMRvwSvHOoVBqVCTstukLVhyjjIVpERa/z0JYirWUDFSUz9yhcmtyTOL1Zbt0D7kBuFQFBcpT0skiyrY3QU1W3vbQIkQmIWIiBMbLeAMELERMnmKMlasUwKEaG1ylq0la2PXSdexc2Rt7K1SipGz1HfknHEuLo6m4+upX8IYsj3ZBVvHlhNRJA6RZo/1ROuR5lz12mxGGkeMkzxa8fk5rdZus7HrNW9GGsd+s3HrtYxjnCY3bWS1MuOGZp988HOYQvIpxSSzpAmiBAsT0UhKcEoTMvm6ADPRKJowky2KUvBApY0gFEqh8n2tRQ4rha3e1TxDtBpTfq1EzCGbag0YP5jWfBBBqxhUz14hXC+khcBYZDCAbHPMYozdnguCSNnQqkbXGSKCAJrBMzBDfBJPEgr9kycU1EyUIsdAIZIXmgWz0AxMwEwgZsCwMTBGUkzgZAI4MSXZIiVlm9XeByhChgCmpKJK+U0af20CSbkbXx2k/CtM/olaa5PfqikCRJAHlN/cZ20SaMRJk32HeecqoFHFXkJiBGwJhsvGVOhjwNUMmyXoTHzDIFtIYqGlnwClUNVecoTTRAxJSIEDODB5wszGGmMtbXpa97QYsBikH9AN3A/oexqOMZyk5RGWR9IfSX+ShgUNA/dL6o/Q9Rh63FjSDHKGLXNvqLPMRAaAn22YobWS/QZ+Rko0beT8oYxrCYH8LNMaXkN7PKKXGHRZwiwpipb/CLlQZI6STUlEKIlCZk7eV8ttEgqJUlYBG7JzoVSTDbZpkwTLW3/zVhsEaghynSLlUlNU5kYokfelOiWxYWM0TpXYgjVCVVkUrLAhw2I7WCdsYAxcp3TUsA79IF0P58RZ6XW9lvDsVJuUoY/HR8FZEAk6oUHHg480R54mmSY5W9GjFW9GmSZZrWS9wjhiHOX8LJ6f03qdxo2MG0wjzZNMUxo3Mo1xDmGeeFp18+RCRJA5boNoNpLzGgHMwBmRVllbC86JokjS6NbiuK2EU+19i6pQNtNu84IRDt7jZhOqC9TAIW1B6DKFkjJYbolmmvX7p21f9QIGmc734ii4qDW22mRsftKTtoVNMv5BvQscgYgUISFBa6c4LoGvSt4RozIbIiYEKR8ggCyRYRZmMoxkIEFIEiHr+upbaC+bGiWS6j2s8U01Fqmwyutt2alT/dVpf4XJ56C1mVJlNBNAUoikdsPzsGPzKdzcSdTAJQRKuVCfboH9eUGQICGFmOLs52nCxsi5RdeZYaDhiIYFd53tV9Gdz8OShsF1y9gdj4ulGYZuOOLhGP1gh96Oi0ebxcOh475zR84ddV3vXG+NRSImyw6GyYA6B4CGngbH84QY4CeMa/Lqs9QcEp8h089IQWJU/2VGQZ0bFBqTUE7YT5k6XJ2aqSTmJyHlspHs7ySk6horEk4iaabpRpXcieYpeSpb2bttVEkPch0/hVtjTK9s7MxgQ8przwy2YKdVK2E7uA5syFpxnXQdrCXrZBjQDXCOrE29VcJ3spZ6B+dI3ZNDHwg+hGkO07yZ5uj9NE5mPXXjFKfJn6/t2brbjDJNYb22q3M3jmEcw+qcz89pHMM4xmnkeaR5CtMUpk0a5+ijD7FDpBQpCgQh5Yz97COvdtHGsx6T+JKqlGpBlUYJrBoYCoJePs/W2/t8zcWy+5I9Q7tk363KVswnkiQl2hpWqt67S9K61V+lPKnSx6pBUv3zj+j4V6M9O0yKSEoJ9QFUq1T5tQ1ArNvUXy8u723z5N24+OfeobSfe2dpe6gr6xUVI9hTtK2Jh0phWwDCQhpNk0R6kYWkHmKKqOh1Hm2KSraeDBQRGBq4Us06FxCx6J1bf0AJ2Mv5EtnIIznnkhO6BOW4MYIZWz3AaPSsgFMyaufyUWYPQ2RG009mmLnbWGudG5IbvBtM33G3jG6JYYHFgGGJ4Qj9gL7D+RKPFlj0GHqcDDgasBiw6GhpzMIYw2B2DMNIRGAXjVnQwlOKFDVRxJfaF1ttEnFCiiSC0dM4kxpy1W0piVKSwjMuWkAjZ+wp74LCZEIK2U6rfOJSiBnqlCGglqOuwOSO2L1NaEdDf4mMpUQgJm4xMm+QDEVl0WNDxpJxYEPGkNYaU2YA24vtFSap68kNsFaMTa6Dc2Ar1og1yVhhFjYxl5nnkMw0mjmmaebNJq3WMo7YbLDeYD2q1ojVGqs1pgnThPUaq/OyvJLNRqYxzFPwM3kP74P3wU/Rh+hTEAQGgDOBCAIykw4BE7AizIQkWAObPKplkgyTII3S3GqKVQmvXuUSxilofr2k7WXk729Y36lsHLwUqUSaF6qw6mwblRdqm7yRTyYCcNEjqaiwewqrkGJ/Rqawey4up9gTcLdyBGXmOoPUQWp6tGaUesJMGBkioCSeJZAkSkwRFEm9mYiJUg5hKHdB6Q8ZkYSNJAAeDDKBDWVvAHEBUs1Ny2zSVBVUBEiCKImdPjtX3iC1B8TmMT3f7dlhMsbovSciay0RMTMalEopKfmziBhjjMlx202UYG4hBADGmGfDSD1Li3MKcu0pYoz6Z+YoLD0MIRBR7ZsyCNdtnqKRECsggbTseJaYjZATGKEUZRnjdYmnCD0igLEEr0pBNQGCwBfE7AWd1qDRlDLa0pBsjUuNN6USX2nYveqFtpC+EuAIDnnKMAEaZGEEx4RFeWOtWoAlj35TYNUlMTFymOwUe94kw4GtMc4651znumHoBh4WvBi4H2gY4Dpyjh4sr94/Ohp66ntaLvhowf3AQ0+LDr1D18E5dK53ToyBc7Lokus0ZytZTkSJBEhexKcYU4wQD5lVIuDVbM5GlZwJiURDe2KKXqKPIaYYED0lr9yqSJ4kigASkLykIEmQQoZMUfacqMOThU2yW0laRR/Sh51Xpmx5VQRllJBVqgGCzMyGSIvCV5Ycmk3adCFZGGPYdsYObCwbA+rBA9gwWzFDMgsylo21/RG7BZgTOIKjJlCCIlEAhUgh0hzJTxQibQKtJtrMmGe32WCzwmZMm03arGlc8zjKZkzjisc1TROmSTZr2qxpnmWeZZriPEXvTQghhJBiTMmIUEosiQBD2Ag+IBpzcHVJZ5ScsxQJgix4qRAxISeBIE+vRcssuVAtHEYRn4sf6kjfedsPzg9F28kPohU3G7k8/ym4yD6IumNFxPp+tZyr9f2SBllRNDp9D5UaUQqFnkCTfDP2JcnoqGHgDuASf262DKg6c9SUaVXTkwOWEAeZIYHkXOABMM4sBoMeCISFxYlFMGJNMDyDZ2IP9sJBOApTgiSSiBQpAKkDM5KDTdKtyUTTJdMtre0NU6EWINbgNJlYJpIIjCr3x0UAACAASURBVMAkmS8wQCxkUbjrAkjDaWfQBhQBIIUdq8zz2Z4aJivOyQUxIcaYUmqBB7sqpv65p0qqAtfu8lRND1hbPexeEH9dH2Osa7bRh80Ge1rmE/VBdyUdDarGQdOQRIyAknqJ0Iv0ksu2acFc0oD4fPaWBj3LaNkqBUr7txvl3czbV2lXfRs6fdSzEMEia5BQsVe0/AgSlRKyAltq2BpBT6hJxABSFIpBQjQ5JIVBzMaKtck50/W266nvueuo60ijL8+X6eyI+566jhYLGhYyDNL3GDTYp6NhoGEhXUfOUd9hsUDXibXkHLouWQNmJhOJPHUqD0Uir9HqbhloMVPS55QIKdeWih5xphg4ekRPcRaAUkDUKUYgAWkWCSKCFBB9qbNRYVIoWUqV7DWbn0jdXmUa5VbhJJPnuOxxzDBJCpMavEo5apC6yIOHAxvDpiPTE1tWAh0MIAYZ4UXiBcgkttEM4EFtyaH4WGPCnDBHhJCmOY0TpjnOc1qP5tHGbUYeJ5o22Kxls8Fmg3FD05rHUcYR05rmNWmly2nEOCJ4yubtgBAoRiqWUyqDPNc+JDwSPMJOTCaKIqhBZ23yn28qIYcSt9L6JqUQ62gAS5SsTV7ynu23x0i0F7GwKII7eio129NWDZW9X0sMS2GbJ0C2GiEq3VvjfdT19c2lxhkZ803QajmNjRMCohytRCjmCmFIV6J2DbTeLJjgGRMDgGN4QmQIi1AiUuLDpIqjYnSxnaRISSgZgkUykiAI4ECc2MQ8SKvBVZiEaKtKRuS60AFIEM7QCJu1STWVKRsYAErbMfTctqeDSYUQ1RQBOOfaCL4Y4zRNzjku7SKUosBSVQSfWnXbPRQAZp7nOcbonLO2sHIU3Q4NBocQpmnSNcaYQsK0NRrrlgr2f0zH/rxt+yo3MWeShViUvK7te9hSRNZ5pCQLYzdrWEQFUsr1jkJM3vvZh3EObjTOGWutNdYYWEurxXh+9Kh35JwZFjQMpu9d35uhT32PrrPDQItl6Ht0nXEu9d3Ydck523VpGHzXUeecc9E5bwyMMaWsJBtj3GAHs+QMY6nQqCaJM5TWRyEweQBQmNRliZBZJOT1KZTbEKErAURG0AotW7m+mFuLOapZBrbVuKrWWC2xed7h7MXrezk6FjhNt7REHbSKPDpIJ0IiCBgC9QJOQpOX0U8xSoyYovXRhJhCxBRpCjJNfprCZorjFOfZr8fu4frKZrTTnKaNbNbYbPw4TuOG59FNyvEwst+44FPw0XsOnkOQGFOKMaaksU+FKAoabFJ4cJIgMx9hd2AU3WprSq2D6a/taRs10thlmxzaQEo8WRWfdewVK3EJc8ve0hJ63fiSd88AXOjIX+IjfRaja8VFY0xVvxRUFHXUnum9997P87xaraZp6rpuGIajo6NhGBRKdccWNeuRn6oztUvtGgAiohZdZl6tVh988MHdu3cfPXpkjLl69erNmzdfeOGFYRh0A0XNvcN+iZrQ/kshl/0hbXCdaOJHK65W2xEIEMHcGJRikW2NQErtjG2ZcuRIRa0WySIWwilRTIaC9bMxxrCxho0qVJt+Wj0KzrFzcB33HbqOu476PvWdRsPSYsmqWXaOh8F0HXcdd46GQfoOXWdcR12nOfTGOSoxK6YjHtgwqbaWVOhlEoJnE4kTSWJ4LcRISJQq9U0kBM71sBIVatayDEA1HLPDVKd6OEHQBsZWeYRVm1TpLMe46iPIjuvq1yQxgM00QSkZEaPQmJJJyaaImODF+uSScIxYzxgn8kFCxBR58hQCzR6Tp3HGOPM08WaUcYrzjPUoZ5u0GdM8x2kK4zqNo5+maZ7IT9775L0PE8XZhJBijClqbS6RFJNEkZAjUanmbKRc+lEAbAirYkdNTfpvxVFpKIjlQuJHLEO0ks9Jc5D03M7C0rx3afdCqFnY+3D5rk5NQuYG0aOZspIbqYNKVoZGEuiHM2E06XgTKUKa0udk56JW8I6hxJup1pkVzjZKtZmFaxCPNCJ185hy4FZ7mWgmma9CezqYrJBWESWl5L1Xz6K1tgLn+fn5o0ePzs7OHj58ePv27fv375+ent68efPrX//6zZs3T09PnXMVX1UTBVB1wSdsVWW01rYuyardjuMoIsMw3L1799/+7d/efPPNTz755Pj4+NVXX/3+97//z//8zzdu3ADgnBuGYU+D/NIg5dYa89jW/px2bWXUbKDL3Jh6lCdM19f6hIYwN0bXSXINKkfbBE0SUUcmSAjRRKJankeNi2tenJmlNdYYze5j66yzpnPcddR3tu/NMLiuR9dhGHB81A2DOAfnqHfSdeicAqQ4C2thHTmrdZfhBnIDGaMVhWGV29mINb1lMQaGxbEYk+tlGQXRXGtry+SqN5eKtry9cVSVSZIiWTdqdbnj2/yGIp8VXVMkr5QS0KnDM82QDVKEJMSElEjj+ENEiBQiQsAUaI4UE8WI0WOcEQKCLnuaZ0z6mTBObpziZozjFLz3m4nWI8bJex/mKUxjmCfv5zkECYFCiDFELRetiaUiEVJ4tGUWLfFICTQThcK8P0MycRowFdvpNqmjqp6Fj7so5VuYRKVjLTC5zTUuCYjPdTpB2ssEBbCLGdS8d7z7DjY2CRQeIggoluihOc8Aor5xo6RxkpkpjYACiDKLnQ5uIU0AKXlgJIlSQAxIAUK5MLrCKhkBNZrjDsIJsOXfaemN9jctu29jJnCJR/k5a8/om0RBEfX26XJKKcZ49+7du3fvfvLJJ3/4wx/Ozs7Oz88fPny4Xq8Xi8Xt27ffeeedGzduvPDCC1/72teuXLlycnJyfHz8bPE7bbsYtlNjdqZp+vTTT999991f/epXv/jFL+7evXvt2rW+71955ZWD+mv1TT5DvOuXo7XaZBKtbpwVx1Q8TCjaJG05J/M2yhybZFsbT0FXY/oFwkRaboore7uoi6Vm6ucEAUqwAYk5GS07wNGYZA05q1gYnFPPJZxD39PRUvpeOdfgnHQOzrGz5IwmPmjxYNIKBm4R3NFsnBhDzpDm3ztH1pDTWFFdb7QwELlclZl2y1MSU8lazVKxACBObFJN8ZCSClKsjaRDTBExiSgtSllZ4/NRczgzC5AK5JORlUszFeYUJYoXH9TXKCHIFDB6zWeRKWAOFIL4iMlj9JjnVGBS5jlNU9pMcZpDCGGasJnn2SOE6OfgpxBCDCHEUDJLc3XolHEcrdY4lwIdCaTp6WqLnkqFZNUaYzPSqiJYmWxjgxN7G2/9kZI1+2Lp19H3HOsfcuGj7THa5N4HzYIKuDWpv52IKFeazN9U4AvFkoFq72eGYS61QETLg0hKImqfMk3IMS7xIUp+MFv98MBjKmBJu70lHD7mc9aexTeJXcNmXeO9X6/Xb7/99k9+8pP33nvvzp070zSFEK5cubJYLKZp2mw25+fnzrlvfetbr7322re//e1vfOMbzrnj4+Oqxj2txXWvS/VPNecOwzBN0507d95+++3bt2/fvXv3/v37wzAotPd9r0bXelJ1u8YY92ywz2drpT4d59sEtSb2oR30+ZUoC4ofrQsqIZeRot2JoFqQUDESQJIkCBQlgDjk+hzMZE2wBtaytawMa9awc9T1qXMwhp2Fc6lz5Jx1lpylzrF11jl2jq1lY4xbnLvjM2PFGHbWOGOstdayM7AWxrA17Aws6xnJGbLKwkVkOeUKQUS5VGVOF0vK5MwmGOsph7WWKKgqUW/T/UjhUO2VALQYhvp/dGXKTQpTkGAesDqO3sYQYxQfUggxxugD+0ghJh/iNNMYSDk558hzoBCSjzIFTB7ex9nHecY0J+/j7MM0x9nHEIIPZvKdDxRjiiF/UkoQKoXE6lMD5UyBpjXpLvm/rAWX760i3eKB7GiHO+sPj65mNMru119uKymLFxW1z20FIreMTyWYzLCpUTlZfEtJAI0d2VpFGh0oP/KvAsL9SdqzR7rqo2Bm5xyAeZ7v3Lnz/vvv/+d//uePf/zjzWaTUrp169YLL7xw48aN4+Pj8/Pz+/fvv//++59++ulvfvObBw8ebDabEMIwDMMwqEL5DNrbXsxtdXNqfJC1drVa/e///u+bb7559+5dPaN6TBUp1UVaIVYP8qXUIy/2Rw79WU09FwW6HL9TVlY5NDXGH1Moe1jg1ZhDMMBUfJNGMBYZlgG7xUgqxD5bvwYJkiQRrfBV+OEoIcTEDA5kDNuZjAGzUcpSw2DDqhE6x9bCWeMsO0vWkXNaBoONIV46c9QbC9YaGFoqw7C1sAa6jctFGMkyWQvLRAyjlYtz+VkqlamIqHqAhRhst5BR7VFSgjKrXUwHYEwSJY+hqDCZFCaRoqSUlIxWN6apM2srnmNAjBICh8AxGk3tCDGFaKbMA59ClMnDq700yhShTkp1T4aQQiAf4PUgycQoIcaYJEmSqAApWcndjplIFEtw1iSYIAJE0NyUe5xQ12MGQrYly0E4bAyw+9pkXb+jTe7Cav3vedU/JJe+wq73bjcsQKi+R43RNS+XsVeo4HJL5VlQcQ6wZKOrS3AER3AJNudtZn9lYiPGwlhYQ4aJISQROZM4kJpECLCEZCAmu9IbXgIdHCXgp4pHhUPigN7ctufyIV7WniWEp7W7asjoPM/zPL/77rv//u///sYbb/z0pz998cUXX3nllR/84Af/8i//cvXq1a7rVqvVJ5988vOf//zNN998880333///XEcmfnFF1+8fv36MyOTWn21S4q1uqYG7zx8+PDNN99844037t27p1umlLTDCqU1rrW6XZ8hkuiLb5fZQ9rli3Yeaf7kxmfZ2nmq6Eq7vpNt3iShq+sFVravd4FJYpBRLGlybRjJCwlgVNaVnEJGUefkRAhMbJiYKChOEcDEbNgaawxZS9ayM85um1EacCxYlh1ZYmZnyBoyBoZhLFlTqGxKreJStJiYwKb+CcMwDNYr2N64khRz4a7nC0GWL6paqZoiCtVPpv3J7ECiUTmxzD52Qr9m8qSUCTEgRMQoMSFGikkphuCD+iNlmtLsU4wSk8SEoEAYU0xIUaEwaYiqiIjMghXgRQRQAlV9vhrKr+NkJpqK8XODwkIOTKAp7yVjA5Mxx/cLcnro9lZVmNyDzK2Ssk003YHMQ9Or1KCV56sJEAW+MdJQ85smiTHENDDZLmtMALBjaDWUqUgCaCxRPJSr2wJAJ+gjOoJLZIVYGDBKdyhsxFixBoaFKTFpTlSQ4Cl4FoAjQRBIoishPDkVODWfYkZIpaKn6plb00Lp7cWn+dw9xEvbU8PknuKl0HJ+fn737t233377Zz/72UcffUREL7/88g9+8IPvfOc7X//61xeLhbX29PR0sVhoSsbt27c/++yz3/72t8Mw3Lx5k5lffvnlk5OTZ7iAimfV9FqNpev1+s6dO7/85S/v3LmzXq81SEf5B1A8qS0utpG3XzKMfNomDQS2YmkLn9ysl7KPKftuv4u3kpt3WGfJhKqJNn7KXHpAADDEbyM4NK6gwWn18CEi5eRHIjE5AC/Ac2QW5mQ4MmUzuGFN4yFmSr1Pwwyj+SEKk/ljDamhVbFTtzemVKZiMizMMEaLU9Wax7QN4WGgVLkorRpd1aCiIJPHXqoMP3l+Ud51BUhJSWKxxIrAjNSvmDwpN22MkqIWQtKIHsQoIWlEj8SIECWEUhZFKdwLnbsIcmaVoGUNahMzytqUOUIhQBDxlMsdT4VMR0N1pq0GI3PR/GIWHVCyivZFMdnXGqkiKJoNtrOqXIzuqMPweW17aHHxQuixH+zeWJVQRaqxJzOM6Et0IRqIiJjYwFi2zjgn1hJbygpIpj4OiFFizL3MFFSpnTAKHXL+1Hb5ZT6+0dMZj7+U7VkiXfWt1DV6Bx88ePC73/3urbfe+uUvfxlCOD09/d73vvfDH/7w1q1bNUJnsVgw87e+9S3v/S9/+cv333//ww8/HMfx6tWri8Xi2rVrx8fHzwBO1XBabacKe8aYhw8f/upXv/rJT35y9+5dZj49PfXea2ZnVTpTSpqd0ro5v7rtorq593N+AbaEP7vryxvSYnBRIMq8V0xnKNNr3H35d88uatfJ+i6TKUJPilFiLrqhidtlWXVWILoxuZUWXGdmY1htG9aQLlvD1rI1WjmvwqQ6C8RU3yTT1qlTB4AhMtxaXS/CZEJGpgKTAhSAFKgLKOUZJ6WUYplxzMa4c0sz5clIgypEDbO6MkVBKPNUEtaMEZX325oO+qzKcqvMbalPpAg9stXzYolcTU3BJrnkszt1S8Wzz2tEOWhzu22jYh6Ian1+AfIZ2pNerBpgCq/FZXtlUotMbtjZrhPn2Bot1k5JQClRjBKjuiYBMlLsHjpCREraSK7BU0rvqBD21Z4bH9eeJYRHGo4bpay7d+/ee++99/HHHz948ODq1au3bt26efPm1772tePjY6Wy0437vr9y5cqtW7deeumlmzdvqnvy4cOHDx48ODs7G8ex7/tnsL4qTGqypvojATx69Oj999//6U9/+s4771y/fv369esA7t+//+mnnyqyVoaBvdOJSKWs+9LolBeF94tNDv1Z9UIUwXNvWXanVEUgFWODbMXVmijCIFcTMXOhkQJyh7AwgjagWuu8ysVmu5wLpJCAExxtGcIsclxu1uyKQF3SGT0kDVpJT7MmE2l5EyIGUyIWw0kzK5l1ZU7w4MwbT1rPkUoadtW9iC0Z1rBBTXBEQYccFF9MUtnQqk5Y5DzthntaKdYpCRc5TDiImT2p01CnITX/R0nl7ySQ4nmvSLWbtnbZSNgAjyjz9KZa4Evgi9YowNzkPhZuOQiRL2Q6UaQSnObhV0KgQzbA7o83ObC8k4y3o4VcVBuf82m4ihq01f/y8FYvty0fyqyQxakBsED5JVqeIFNSUbmxygIwgBMAcIJOfZNCRgiwiZ1YJ30nQy9DD2eFkRA9hRnzhHkm7zkEAWATEpAMJInKYUAC54pz7afGRUvaCmFK6HGZgPWcP8u99tQwWcne1HQZQhjH8Q9/+MN77733ySefnJ+fv/DCC+puXCwWXddVrlfd5fj4+MaNGy+++OLf/u3ffvjhh7r7+fn52dnZer3W9Men6lLrCttsNt775XKZUrp79+5vfvObN99884MPPvinf/qnW7duPXz4MKVUGWhNaa3FFUDVlb9Mka4VJh+DkTX57OK+uskeTNY5KhDS3vZEJCXbClBu2AYmiSgrUixSQ/P2pF1961dgU3SyxkxErlTEZIjLhakTp+QKkaaSyipLqm6saGYIVs1/jKWNxxTr8TUHQ2JWm7ISTAAhAlVlLP2j/F0DAysUkjJOFOYCzQut4nQJcM2mQ4XJqL5JbH/KCyqGC+tumdiIPZs5x0zUpqnfKWbVvBy+dFfKd6oKLXARrgCsCPepoCBtZzEPTMXo6kuCh1QOOSICpRyHkjtQab7zYCDyQlPDlX94qNU1IrhkWOLQD/TcptlJ1tHLW1AzoyRzSaiz3zUwWSHTFKQk2nnT1c0NwCvRR4kG0leDBB3QCTrAgawYwCSyYnsMC1kMMnTSOTACxZn8hHmjSMkxggE2lEBiRETASUxKISVKQkkkJopFmyxyXBlIOggl5kq62f9dCSV2hKGvRntqo2sFD0U+DYc5Pz//wx/+cH5+DuDq1atf//rXb9y4obkWGlDaev6Wy+Urr7zywQcfvPXWW3fu3Pnggw9u37796NEj1QWf9gJaeFOUjTHev3//Zz/72Y9//OMHDx5cuXLlm9/85gsvvPDuu+9+8MEHqiy2dmM0NO4KnK26/CVrjwHLxyDoxWtpdc39fYnownCvywkSc/r8fvHV3Vxp1cPyjF/1tLqNUj5SJoTMgRsmV9BEwZ/cIV1OJZ9ByyxAa+oRhJQbYJvLWDEyX2QlCUg7Rr9t34uwtb0zDGIyBSYzeErWF5vqgs1Ja65DOW3JftAb1dxjSSIpgBJV67YiatIZZ/fmEwGpxJdKg46XTUlRmlRIySTjKMUH6xFSvmXlgAJqjO17U14SEQKJpFyh8EnbV23G/Ny2+0guWkoP2k4vW1MlUCIqTNE7n+2W6lvX+qTWGmfFWmbSBCctaR4plMJzRJBE9VRbhwLKSCyWjCzn5XM8dob+yj7rp4ZJY0zldEWpqnF+fn7v3r3NZsPM165de/nll2/cuNH3vRpCFb10L2PMMAzf+MY3Pv744ytXrrzzzju3b99+8cUXHz165L1vK149YSuCeBIRdTquVqtPP/30f/7nf/7rv/5rnudXX331W9/61s2bNz/77DNrrfoj9bsipQYWWWsrS+3TduMr0x5/6QKIpN0i0riAxJQ1v6yVFrhQQ2Tea1tPownh45IXrWGB1ULbvIBpm7Up0KoUF6lM6tbbfEgiyon+zezfikqFFL4FV03fLjppvQlCNd1M9s+I3Z5gd7ncRUkSAxAzVhOV3MQ2Gb89lJT1aObhy4R3netSo5FUXSft3pz9iLzmSVY03W4vQhmh/3Lfjz9Ty/YOErrwtNttcqgaO8euE2vJmCzepRAkhJyBJELE29J/u8+8YKRaYrcBPHlEfg5SfjXbM+ZNVp0yxrher+/fv3/nzp2HDx+KyOnp6UsvvXR6eqqYWhXQ+ioyc9/3Gv4qIuM4np2d3b9//+zs7Nq1a0/bn73qV6vV6t133/3pT3/67rvvzvP83e9+9x//8R//z//5P8aYatHVLrWJH9ZadYvqMWsdzaqq7oW/7kyv2XhXCM1kR02pnE0p5RRywR8/y7T7yyXL2F1fCM/3BVtgd202DQLV0VJWUxE7TROt2vojG7iSUkpMChy26ANVj0KGQ3hIjYwPhe2UIa4crXpx9DhcejIyphpJX793ZXlUBpLtFuVNL698fWLbSWjv2tqpoVi3d2By1xtDu6kk+89b4IXmrYdvx6Ba4bBAFAESD1G+NdvsQPkssip20QqNUkqc1uVQ7lU5uJDQNi2UUL52LqFmAhxou2vL/ZbH3YoLKy9KFV9EO3yKXWvWU3YjDyIqVhMGNAPEIudTOaADOoCK9bX6JvMhZCdarfopSYRTFCIiNkhWxAqgZlsiAxgy7DocLeTkSE6W6XSRTgc5HXhpo00T/ErGM0wbClFtAUKa6qvmFQN0IhwTxcgpsyeyDzR7zD6FqGnoKUf41JKTEgAvWiI0f5TSqx11zy9P77Y9OwuPwoMy79y7d++jjz5SmDw5OXnxxRcVJtUFqDtSIZNj5q7r+r5vYfLBgwfn5+ea7PhU/VF7ad/3xpgQwmq1Uhqg3/3udzHG733ve//6r//60ksvffbZZxrRigYmKy62FTFV660xvTHGdssqfUtJHcnrQcoEBUGpEQ4p/wQSY/Lehxjz5k/dDu4izcKlk9d2S2rVvtJz2ZbjqrM/gG2Cx84yAaopKtzw7gErSlWSVAOxzb71VAGZP50Au/VZylwgU6eVuotp9s0nZXQW6ya0ob0XbWdqY82NvDAX7sjTZf1sMF4k0m0P3qys2djbe43LWyKJXClgWzrYFvZazTI0NKoxV/LbeehCtRxVLgeWttu3B6SKtSF3WJqJTNpnVB3SaJ+dbC3AF9v+6Np96LiwjN31nzuM//hWT/QFHFeFDMokAAUsHdA3C66MeVuYzVty1+1yI7eJJNJDEluBSVF3tEyWyALGMPcdjgY5XsjpUk4X4bSX094euWjTiHmNzRmNGw6RIwBKkEgRNpXaBh2EJUlKJsYcEhs8zzO8lxA0TFv9/gEIoJAXcu2/BIRSZkt2Y62fe4zEMxhddaHiRAhhs9lM06S8dCKivDxVg7yojan2ptsoDql3c71exxgfc/a9VvtgjIkxxhiVZv2tt956//33b9y48dJLL33zm9+8devWcrl88OCBlNqWsuUPS4qytZM1ooea3JK2/3VLNCA9z5P30+yneZ5TBNAxDLMhk8h4oSQkn376h4cPHmzGTZK01V7+2vZbO0s2mLVd085x1YK6d4ittrd7FKkQdPDd3VXMLzv4gX33YBINP/ThVk22B8+8v1w7UpXLPfEIl92KS8+OywK+/tqesamEQtiTrKqUQCUGp0aPb/MgD+nQIjtDvYafyQ6gEoNAICa2xrrODgMvFrwYXN/DWmZS93RMMVKMEoNE7SmEgW3ubaloHjURqyaEUKm79UWLL1/q9iz0Ai34qVdvHEeFSRRlsSqRqpnpvtXOqWQqKDn+0zSt1+txHGO2mz8RhFSY1ISQaZru3bv3/vvvv/322x9++OHrr7/+/e9//9VXX/2bv/kbTfyo3a77VpzT9drnGv6KRizYO6/+pNVR1uv1+er87NHD89Wj9XrtZwF6RmetZSfsJuIkkI8++vTeZ/dWq1WMT+1//XK0PYiqK/F5kH8ZJB2Y65vlVPgQWm0G7ZwiW4n14nEPaJMlfZAuvPEHN44JqRTeaq+ELiqL0kAZsrr5uLY76aRDy621qpXNEyRt62kcvHWXG0XLr2WPQ6O7LBB2OnkQ0f9U7f8fQ+sX26q3orChKjSyZPZHKi6GMoC3UddNPY3dQ27HPFVRHQVri9UKRKRkGtx3ZhhoMfBiMEMPZ5kJLEliSDEgBBtiZugHJHENY9U4Hc3xVb6LGFOMnBI1BAMHx8NO+6o6Lp+RrK6CX0qp6pGqShpj1ASKgih78autNqlrFCmnaXqqEJ5W51OY/PDDD3/1q1+t1+ubN29+97vf/Yd/+IcbN26IyDzPNT6omlt194qgesBaL7M9Rb3SOly05wqx6/X69vvv/+d//r9vvf3rzWaEsOEjpg6AwCeeQEGA1Xp68HD66MOPN+u1pOFpppuLwubFfdsNLs6SB+egdk6vOHGpWlP1M2pVYWrPyzV6tHFkxoassu0nNR9zybItvaoy+M5BBDaQ2xVlirVj56ppr8MXbh9d3DGKl0ztdvGuXQYv7caPm/fLrddtUpOGKBX4abc6YynkIm05KirRYzj/CQAAIABJREFUqvWhE6Bcu7Jzq6sKclHKEVCsRlTaESFyQabmiqhkmOxfbbOB/tSe/cCz271FdaU0rtnnrhEyj7yhYmgldMAALIqvvRpdGTAVNUkTdAFFVmxzTTmPN2IQF8599XeC0BFYPf/OYNml0yFeXcq1o3RtGa84OSLXx8DzRqYVTyuaJpoJiUBEjmEN4CAOYlKiFDlFG4OJgYJH8AgBISCTDGT3UZM3WfyRhFphLWpYdfFc1prezz10/lEwqdkX8zy3uRzWWtUm91S3i0bXOsFVklV5GllEd1c8DiHM83z79u1f//rX3vsXX3zx29/+9uuvv356eqq/XoRJRcSLNAJqv0WDmu1V1+ge7bbC5Mcff/yjH/3oP/6f/5imkanr3SmRCyGENIW00QmOTMdmEX2cx/HpRa52Hnn8ZihzX1n3+Ylo9fVGnW3rzuW/7QEF8QAyaQRe46nNMFnSxx57UVuO0F23X8sdekDcFuK0Tco8vM3uQXBJIG8tl7U9iEiMl3rg/ui2kxujCqL+0MJeQik1JXkyQgGSrcbZRMjUhU6woJyBXu/efg+QWdwLUtaDV8wWOfTkCGILP/5jlPKdB0cH1h9cToew/LloKn7pbclhO5TJVwdgQK4T0G9pkKVyIG8bhEi2IagiGmjNABOxUK5eAzgCCI6EteqyY1l06WSRrh7J1aN0dfAnnSzZuBh43qRpxdMKc8DskAyYwURiSAwpWgsnMTHaGEwI8DP8DO8RUuUibjCSUgHI/EFmPQxlcMaSVYmvhnr5LDAJoJpGazIGygNn5mpQrdDY4l+FzCc0rj6mD7oQQvjggw9+/etfv/nmm+++++5rr73293//93/3d3+3XC5V7XPOKT/7OI7ee+dc22eUsJ29w7ZG2tpaV6VeqXPu9MqVb37rm+vNarPZALYzx8w9QAlTkLUgENPssdnIvU8/u/v73/vpj7nuP39rbkszqV36Phyc+FrU3/lVdjZAMWQd7scTvIRP85bu6c9f3Bu+c017tqyquFc6t8zGkzegeqszzukfVIwBzXf7fl28lu3w/gtOgPoiWlUNQfumi30zz55xi8AQkqQz0nYAUvFjSnngWbIrGoi1tu+7xdAtl2a54L631qSUUvSe/CzepxAQU4qJwCq5avoIchH1TK4YE8cgISQfYggUAoUgSVl5qlAlrVfhC7XGf1naM2qTFUIqTFb8qE9djZMap7O37x+Pke3Rpmn63e9+98Ybb7z11lv379+/efPm9773vVu3bvV9X62yGlWrxAK1tYhYo4ce37H2V2OMc67v+6tXr/7f//vaMPTjOEpiw0trBmYG+UBrUGSmR2fTJ3fPDP/u/r17fvpCp6XGvPaFDN3LDvq06w8oFrsmTb6wzd5xTdH/Dm6gf+45OA8cB4Sm2HrZYB8m/6S3UtqetB5WaZa1JgOQjV0FJqXV7LdHkd2u74ogZYK7rDtSbekHR+YTGpPl4AaN4fovAY2p2FQzHfmOP3J3rFZp21hjlJ5fCIli1OlUREi2Jo0yPkt11HwQgImcNUPnlkt3tOTlkvoOhgUpSJgwjZgnBC9RRKxASERnamKlOebMXiCIET7A+xR8DIFjKIzEORVE2rFUw9xk6ykQyeLd48bbc9eeBSb3rJHtmopAaBBlb6FF2Xb3Z6CpE5FxHD/99NOf/exnP/rRj2KMr7/++uuvv/6Nb3zj6OioVldWH+RyuVSO2ZSSxhxVhbIGwVZLbD1L7efBS3bOnZyc/N1LLx0dLb7znW977yURYWCyxhBxjDRruP/Hv7/39m8+mDfze++8s3lqT7fszndPssdjTFvlSMXmWSgoW0Vub2JNzXocmDcFxU/Z2kj1/TnobWpnzBr7fmm7xGxrhbrM2nPosE1PqJzn4JGa21J/TXZrH/vc277V4i79eW9NaywVNOxAO/e8Gr13Q3vq6q1aKuVQuqPPJEciOzvuXDI3BzElAkW2RDyUdlXbegadnXeyi8ox90ScveWLUHHR6Pqczq1U6lsx4AROja4ilU+OC8mcq6MxI6QzzmWGaSSSRBxj8NnMKZpRptwCwir2SWa2YwIMS2dp0fHJAleX6cpCTrq4MGMnG+s9jZ/R+JCmM+fXCIZCR/oWpEqe55RUWRKnaGPk4Ml7zB6zRwiIAZIZD9spKO3mSqaSHKK+yQiqaUu4JEDpeWrPCJOto7HKRPprpSBvsynqjoo6e8rcQR/h5zbFNi31/Itf/OLnP//566+//p3vfEep6QAo7QAKXUAtV6iuSu990EK3jUK84ycoZ7nMSkxE6mFdLIa/ffEFIogkSUByGVU5Jgpqd3n3vQ+j9O+++57ruksm/Usv9CnQsXRtd/nC6aRdvzt5XQSanQ5c0pNWF9keXHIm8hNcbjMLtyd9fOtAwy5Mll13rqgucxNeePj8zYoOsiwp3pKtnQdO9Lm9PbCeELnEB12Oru0xd+kNDoHqrvlLXUR0YX3bWpi8qHQmCAnFVmbKT1c4R17uH3F7z6vcIxn86kjbe1iyu+9zipHauLCZW4UfyRzltrATmy2PKxGxELOx1jnrOrY2w2SKgJckxAkpSgmqqjaErK0KSMAMsoTe8nIwp0fmypJPF1h2sTeTkxX5DeYHmM54XnMYETvlHaaMuAZkIeqbJEkkiWNgHzB7mX3yXoIvBVMbgamJ4ilZvMVtSZnyqSIoigDxfLdnhMmajK/LVh8ys4h475WC/CK01GUNk2kVNedcW0vkSZoG2f7qV7/6j//4j9/+9rcppZdeeum11167cuVKm+Oh8UEPHjz47LPPlHVWLaUAxnFcr9cVniuhq+KrLrcJLWiQvmqixhgl7SQIEcMAlDmvU5SoMElIokFPxnQdOxe/WLvrF9mqAvM525Ql+pzArL25/Ck7cxCfqOlkc/iddMq9LlxYK9hRxS7LhNzBoCdFStlOOjrxXHbordr4LO3AfX+uceg5aI05lHBJTDWBmdlYMs4457rOdD1bS8ZQShQ9RFiSSRyJaxQXSmpuNa4TAcRknR0Wi6Oj45PjxfHxYrno+i4ahkiKIWD2bvbig8So9bEICer2lEqoJOoNDSF6L94b76OfffAcgolK6r9zJdsdL78Te5VhntvpDsAzh/C0nkhXmjFGtbT1eq05lJfZXTWVovosjTFd13Vd91Qw6b0/Pz9/5513/uu//uvOnTsA1Kx6dnZ2+/ZtReiu6wBsNpvbt29rna8YoyqU5+fnH330kcK5ktWdnJwoeVDt514GCJWc0Tb8h1kDtTN/EIGJSwEaSBIB12h7EKvbvGYW/wnbkwjjl5m8LjbZ/b7MdvcETfjx70iLZrurP+dyShTDxaPtAqTsHf7iCQ++xrUYPeV3/nHaJBpz5eM2qgff5Wg92J52fR0ACRQa83Lbr4P70iHNsr17e+s/d6Q9ZoPH7/gkJoQvbSvoSDUPcu/DBAMYQ8YYto5drzDJXU+qI6QIFkiiGLW+mxCVsm2owFbOR2SYnXWLYTg5Pjo9XZ6edEdHtu+i4Yjkox8xj3Ye4WfEIMlKjEAiSoii7FsEFuGYJASEEL2neZZ5TvMcvY8+pFInQsprUuXO8tlCZnVJ6vui7+LzDZDanpHTteKZtfaoNFUi53lerVbzPKPADIptth5B0VQVNefcYrE4PT3dK075ud3YbDafffbZRx999OGHH07T1HXd73//+//+7/9W7tZqxVUj8GefffbOO+/cvXv37OyMmT/66KNf/OIXItL3/Wq10vJer7766muvvaYFovcKobSRvXuOTOzOCnlWJk2AYmILShk8QZJinGcJX1AU5WXmxLL+ELfc7q6S7WTVtLJdLlPwYQdSMx1ItcHqS2I/91V52ntRzE876SDt0Q5AJwBJhGp0lfaaL7YkPkmlTtxDWtn7f69jTzbdb8N42k13tNPHiDW0t0TNFUXwJud1ZHbc+ixM81wqF64p84BoJZCyHKnGEKEqFIm2JZO2vSjdbo2r9ce2unXavaLdSxPsX+bz1CiXxBKt9WZbAyxpMiV1xjjD1nXcDex6co67jlyXhedEQAIzmCUbVlWi2gHIDG9EbA0PnTle9lePF9dP+mvH5nRBCxeNjAhnMj3A5oFszjCuKCZJRmIClMGeCJaoB/VJrA80z5hnmWeZJ8yTzHPyPsVYOXhod6Rt7a6SY800MyRmoyvVbOA/uT7wZ2h/FKeriDjnlsvl0dHRcrnsuk6RUmGyGicrwOhBFLfmeU4pqW1zGIbT09OjoyPNJHnCpirpMAxf+9rXrly54pw7OjrSU3vv25AiAGdnZ2dnZ5riCWC1Wj148OCTTz4xxjx69Ojk5GSe52vXrq3X65OTk4MxSu1N2L8tAG2tclJ2AYGQdUeQqo+5LLjGg31B7ZID79B1Yme5xZqW4WW73MBkW0epEW0bjaTtht1OzY9tT/4qNbPvloV971AXjlYeyv6Z6OKVlK0qjWpeVTa9tKdNT55E4d5mE1LTtd0ncYlYsy8bUPMNUAJNIA8ChHNNYJHCr6uPyexG1tTlNlbINFEbEfkPJTeIF3tQcP3idzp8FTuPjrL6K3zhp+el0TbAFYZgJKuPFrAES+SYnWFnrLWO+566npyDdXAdVCz3AMVMJJDfOyrqmtQCO1CdldkYa3pnjxbdyXF/5didHtHxQIMVI5P4VZzOMJ2laS3zRCJIncQoJMwCISJL7GBcgomRfIizTxkpZ410rYWULrgFCEWJTI3onCcK2a7E8/ko99vTwaRyywFQPFOr5vHx8cnJyfHxsRbZUJZX770GmtZ92xwSVTqVVbzv+6Ojo6tXr6o2+YQ9IaLlcnnr1q0f/vCHr7766sOHD6dpunr16snJSev4rGrf3bt333jjjWmazs7OiOj69euvvPLKD37wg2vXrmmpr2EYbt26de3aNU0jaV2PKGJBdWHupYEWMZgq13mFxW3LEWt1evxr+zM0qV9b29HeDFC1u4tzw+5hdhsBcki1/TK251+6fy5aU0iZtLacycXg2VlyHXUdrIV1sEWS0eCoPdvqBYtDViWZ2bJxzva9WSx4saTlgvoezghLlODDPKd5NrMn7wkQiSkmMgmiExTDGDFWyMREIeQkkBBMCBJiVJAssZY7CH3ocr9Q0f/P3J7R6KqKIIrR9eTk5Pr16/fu3QOwWq20RPNe1ke1VU7TdP/+/fv373vvNU/jypUrV65cOT4+bmEVh5RXNIqdUuK9/vrrr7zyyoMHD87OzhaLhcbm6KOtvk9m/uCDDz7++OOPPvro448/NsZo7ejXXnvtxRdfrFmewzAcHx+rO1Nb61JtfZaHlMtiNcp/1RHTKD9iIbbU0NHDGMCImMJK5bZDUOsVY88lgOad2U70uwvYdQjsCfIX5fodYw6k1IDMcI/SARVxPtfo+viT/mla7VA6dOjLLZ6X4oPsLFadky7Z5cDlyM7WT3K929tySbZ2Y8x4nBJ28MhWXzjAEBmIPjgiYlRHF3SNFrKp9DeyO6J2DCTNwfmxULtVTwlbe13lYzvU/4NXt9fk0DZPhfmqn9GFMXLovZBtHavyrZouN3fAQNSkbIEj4KSkWCyUeYcK4aIqmNaK7eAc+h59h76DtTAWOu2lBE3+ZyVQ11TFXO+FII6kb3rOMIZ7dkcynNDyFKdHctLLwpJDMuOcVjOvAzYBc5A5EiAUInmGT8xkUrIgS+QoME0RY+Ax8Oh5mmmaaZ7Ze6QQRVJJ6/KAEPnMtkMJIk3lr0zpTgSCESozoBBtb92fvpVpF5SpxAhoi3JS4QUUFS/q0CUkoghRS0kSJMkpTp2gT9JLsvUdfDqY1ICdKmJofv1yubx+/foLL7zw8ccfi8jdu3d//etfv/zyy5qzr5tVitcQgobYvPfee+fn513XXb9+/ebNm9euXVsul3tYqGxwLa0PGo9gLUWiAURXrlzRfI+KZFV5FZH1en39+vXlcqk7Xrly5UZpdRc90ZYR4xKj6/5zytbUhhElx6woSJcKXNJRXCAukRb6WJnYmi7KEONQNlsAAGLO5KXU5JWbQz3YnSMa78XlGuveJCWNeUTyWM+HMaoC755om0p8qAuHxcxLevKMrTEK6+y+f9JDdtSn6pXCZDtFPgZ6t/vIzl+f2/jCszjYP6r/NYOQDm+bm2EMIjammclYMwgkYIawYZsgIkoqlpgss9F8qEOHalfWMxopU//FdugOEIE+T82ovypt3mVyWHuePD025oGLm104AiGnk+Zz1ZFSYbKV6rixUVNJ9qCmMBapNRWic+st4CahJzDBUDGbEkBIbKJ1pu9D33Pfcz/Q0MM5WAtN8RdBFAjlIxpJLAEyi3jBTGIoHTMWJJLgE/nEnKwxx6m/7he3wunX0vWTcKOXK2yHOZr7E98fj/4/9t7zu43kyhu+tzogAwQIZooSlTXBEx+PX+/6+bif9i/22eOztnf9esYejycpixKVmEmASJ2q7vPhdhcLDZAiKELSWPgdWwM2Gt2FroubQyukNokuiBAQiGypsh65lu2qKON7rrRdch0KkFoRNgP3MLTaAXYD7AVu18/5PoWBVFEEFCH0EDoAEsED7AH6AJIoIkUEluAuPuQhKiFcEKjQA4hi+SVtHG9NCPb9J6X9kwVk8bEkv1ICKBQgkEsBA0VBMlfOASwRVSNZjmSeVCwfRx6khcaEEBaB2Wx2enp6dXX16dOnlmXt7e3dv3//008/7fV6ruuK/pnMSql2u/3kyZOHDx92u91CobC4uLiwsMCmJJuAOn2GR1GydOSyk2w2m81mTRnGx1l4owG9YL4pR0/Z1mRfcTabzeVy+Xxed5dNBR1phG5BcXfMZLg4/5Go0yy2yUJykFxQbtxpGhHRwnhwq54zJ5K5gGF/AcNxdsMx6xnJgKN+0+WEi786ETyFMRaMJ+sY1Z4YC0a87umN7D5pfaq7EfdGQFAKhUASRAoIBArLslFJUhgblKiSmPrpG47riPApCWzQgjwBCgiOmfA1RBYev/vH/VjwSMSaTd4RjYQqc2tMUte/UDsuyQcEsCmeypkFKAPUCDJ4pH0CggQIhSDLQsfBjIvZLGSzkMlAJhGTnO6nFAgAJcBCEEhxPx5QCBJBIQhBGdZhFXgEBCjQtuwcZitYrEGpBlMlKGcgh2SHCrsBHPpWJ4RuBL6EUAIQUkjZEKyQbEvZMrQJbHJsiCR0A2j7Vtu3uj70fOn5wg+sKJQkFRAhKYCIRSOCTxAAhMnIUk6LsxEkkaBYmRBxi3zuioA803YcQCP1YdDRlZjdkMxVYRNLMG8nRInItnLcABBAADoEWaWySrk6OeAsBSG69xsLMMdx5ubmbt68+eDBA9d1Dw8P19bWXrx4cXBwMD09XSgUtKThVfZ6vUePHt2/f58tvCtXrly8eNF1XS525LQgACCiVqv14sWLRqPByajVarVer9frdS4+4RiklcCs2Ui1mUWjuFPnvur+5rw2PQBEL3XUrkD9wNQPGHngDQrExHVDQKSS/REIFqDBIRBBCCCIi5xGTo095emJNXm600fsQUW/5L4qY4UWfqdkH0SvtsmOIONbWFKRIlb8JQrbtqwIAJDVfFCKHU1wfBR26MpH00tohOInBSfNfNbAxOKHkdVB44+0r73/1D4bt+98Sr0+qoIASs5Wycri9AbHcTKum8m4mYydyYhsFrNZcBywklxtpSAMQUrO3k44BbJLU7e7Y2YRD+KxLCuTsQuFbLlsT1VEoWRnsmAJBEkQROD74PsQBBAEEAUAQLZLSmESJEKWYQCRBM+HXi/+n+dxCk+klAIQAoSFFoFFaBEpAlLxcGazyQDF+hNJqSRQCOADRmg57D4eJxNQRvKgMl6YDSARgGsPUAiLWx0hkuBSPbIIOOxFQDJxCvYteORMV0jMLG35CSFqtdq1a9euXLmysrLSaDT29vbW1tZ+/vnn69evX7x4UcubIAg2NzfX1tbW1ta2t7dt256bm7t69eqlS5dKpZI5EpndrZubm//85z9fvnzZaDSq1eri4uKNGze4WkOfrNeDRs85/VrLQt12hz/CYzIZZrKPednR0CcWqc+lw2+jEkKiSNo4UUgUSEVENoCDYAu0CIFIxo0thEKhgAMDNL52T9Rfw/cKIBylLJ0O7D0+29r+dUEw4HQ9GSPQJBFAPK3cBlBEkggQhSXQsgSRxDiDP9nMRIU73eXHuqE0wKGOuxMZ771qNYmlSGgZJTHmL9T8eel9sQAdjDNvbSNnm19YeOSJFQBI3CMwMQ7Zi2QJsCzluFYmI3I5kcuJXF5kM7E1aTvxxEgiCCNCBCBJSpLylfIV+YoCgoggROgitAUoRFDoCyuwXDubpWLRmiqLWlVUKpgvoOUoSRGFvogCUJFSEVA8JQ0FSiGkZZPtkpNBJ2PZGWFlUDhKWqGPgUd+D7ye8nrS6wVB4EURKSWAFPfSIggJQoAQSSY0gMn3jb9u3PWQA4EoAC0AEBgeNa47XxxN2oGkJRAcvT5CvL8YV+woAgkUz9oEiFCEAJKUBAyBQoRQoEShtHo3sphMBQj5d1Yulx3HuXnz5ueff3779u3Hjx/fvXs3l8sRUa1W41wbIjo4OPjhhx/+8pe/rK+v+75fq9WWl5evX79++fLlcrnMHlqWUlEUdbvdtbW1//qv/3r8+HGj0ZiZmVlZWVFKXbx40XEcfbKu9+dPKaW0fSmlbLfbPBKk1Wo1m81er4eIOh338PCw1WqxF1cp5bouBzvPKCZFok0ilw2B+YNHDNDyhfCE5SOGBB0FEShBEAEogY4lbEmsiHHcCIQgpSQgiZiNjYM5kTG/8HQfGE1M0kRMDkHM5McjJhVKZQkrk3UyiBgnfitlCdtCkCgBAgCp7y7AFujgYM+/4ZAg/HFxPUAgG0hLMjgx1jD41jGPNH50FoFLcVhxgCxjJ6vJdi0EN34sZANkMBaTLlImzhVALvZAAFuRJOgChMDBSAGWEJYtHBczGcrl7FxO5QuUy0EmCy67W0UsI5UCBCKlpAyi0AvDbhR2o9CTkot3Q4QDAQdCRCjQEqFwVSbnlkqlagWma4XpKapUKJNTJELP60q/5SgPMQwtKS0FtiWEY1lCZbJRtmBnC5QtYLZkuUXbyYOVJ3BViJFHYU8FPeX3gsDrBl47ClQUiUgpBb6CDkEXKADwBCgLRVLgZgMoEYdjXQlAIAFsgCyRBOkIVCh8HO5If230FbmpuH4mfp1WtghIKZIRuwwVcEd3AECJEAIGbL0A9sDyhB0IKwQR87qRna66eRsmfVyllJxEc/Xq1d/85jfcWzwIgjt37hQKBc/zSqWS4zi9Xm93d/enn366d+9eFEVLS0uffPLJl19+eenSpVqtpnNn+C5cE8n9WtfW1prNZqfTUUrt7e1xX4KUBamXpI3RTqezu7v7+PHjnZ0dKeXW1ta9e/d2d3c5q+jg4ODBgwf5fL5er+dyuVKpVKlU5ufnl5eXITFPU2m3JyHlnul3wugnF5uJEAkhkTOsSAGEQAEiWIJIRQoDIgn8M7MQuJ8inMAyhmIkojRGDL7yurE34fTLoAH38wQAMJqkRISk/Pg0sLgpNpAiQlKSs0OUisIoUEoiooW2QEGkFCmOnJ9aVYqAQoBwFNXn1NtPIvGLmpHCQQzKN/16aEAdISk/PNJnj+0+eBSeNCaWHw2rSciZXXnxsDMEwrgJOBtWJBCEsGwLHFu4LrguZjLouug44Nhg27G7laOS8a9KKVJSqVBJX0mfKACIECRChOARtBQFAgRaynYwl7eLRSyX7XLJKRatbAZQyEgGnt+L/K70exgGQRgoKVFJi8hBVCgkCkRLWjaipUBICRCpMKQwoDCAMJBRIGUoZSSVjJSSQBZ/NQGK4p51lMyuoaRKkogUoSIAjOs/XcQsQEQkCAKIU8bGA9JjGxSgStzeNBDhxqOaBG4jTzJpnSYBQsQIISTiPN6IOJs34XRnbC8AAIho2zbrquwFXVlZcV2X82IePHjw7Nmzg4ODb775plarFQqF3d3dg4MDz/MAYGpq6sqVK//xH//x+eefLywscBKNKfbYX8quUS7BDMPQ931uDsDvsr+Xz2dnKUdMAcD3/a2trTt37vzpT3/6+eefG41Gu932PM/zvCAIEJFDpz/++GM2m3Uc5/Llyx9//PHnn38+MzPDrew4/HnmveNHlTwo49klhq9l2QA2ESglFAmhIxHsrOAxrCKJs0ozF/FUdx/lTDWKNUnGv6c8fyIkh2I0a9L495WnCoE2KCsIIyIpKQBQBCAjK5QRohDo2JbtOA7/rKSSUp2ei0nAvsYLr8JIuy9MgQQAcGy0YaikHHqyPkjGOIsh8afkZMPpGq8HktibStyM3MccMM4sYPEpzehxHF/kFgCWrfMnEJHiSVaxSMHE70rUx2A5KIiIBEoRSIgURZayLBS242Sz2WKxVCqVisV8JuMIAUrJIPA9zwt7PdnrYa8X+b4KfBGEjlBCoFJxHaSSkqIoCALheVYEfhd8PxcEFIZRJJVkIySWeQIABNgAjkKHCBRECiiiEEjPZybFhSsQISgBliVcFDkFgeSGsGokghkJA9bkEYNSxjnxCyEsYdlCWIigVCgVEilAQExCkqQAFEmlokjJs4pJbUFyVDKVVsqu1yAIMplMuVzO5/Ptdtv3/cPDw16vx23H6/V6rVa7ePEiD09myZoKKwKAEMJ13dnZ2V/96lflcrnRaLCHdmlpKZvNmj3tTNmjP46I3KO1Xq8vLS1Vq1Vu5cqGpjZA+Qgisk3J0loHPkffM3bj6N3idFZtYIZEPpFPFBBJoi6iDQisuShypLKJIoAwbgFFQApJhaD6Uo1evQgaVZLppnSn+oojXnwiI0/ASDR2eqe7QxAAWUpxPE6xv14pUBIQUKBFwlbKUSQJIkA1ik9MJlmOp8KI6RuYZH0nakFsvw09M36BfWJy8AT9WhA4gHZifBxfzgEdAAAgAElEQVS3Kn13oReDYCdDsgDAAcoAFwuihUcByxJgKeaoPJvOtsGxyRZKOBIzAbkobRWKkNBWIKK4olBKkhKCIOp5Udfzun6vF/YC5UcQKSQSQBARNQgOACIlhEALMSuEhxBFQdA+7O1uH1q+00XP9lq9ditsbNr766K9Hfk+RYGQnoPKcRzoBZEPdtvL5nLU9Px9H7MFYdmbbfF4Dzf3wr1df/dANTuy47d7UTskkmQpEAAhYIuwTRgBeEI0FLZJRQAUz3OO6ztDAADhoKUs20cVSBnERZbj4gMpManJ0oigG24bIovIJrIQgCgiCrluksgHCIhCgAAgAPCV8qT0ieILjlw3iUkHOBY82qQDAJ7ycfXq1ZmZmYWFhStXrmxubu7u7nY6nTAMl5eXi8Xi7Ozs0tLStWvXlpeXK5WKbnnDze3Y1cmd0Inoxo0b//mf/8mdAaanpy9cuHD9+vVUFBMMJ6B+4bru/Pw8t4r96quvstksf4SHinCaayaTKRaLSqler8cSen5+3nVdLi8Zfb90tIMAFKFkv4QelkQUkOqR6gJ1lfIkAYKNiAQugSuVpUhwRiLvseIBXzIipRAdxBEk9+m9onz6MSn453L1iZg8AafdUDT+/0rEGicBAFjCdpIfSxgGgfK59ZiSdkgWM7iUsnuaO5z6TDDdKueHI6uRHTD9b/FtceAjCoQi1BrhCaviyCibjPxceFQk19E7QPwaDDGJIFyMp58SIJEFZFnSsaQtIsvy0VXSCkO0FIpQsF3AN+O5x2EY+n7Q6wW9nh8EfhiFKu4kxg1zVFyvjwKEDZRRUcXvVZsHlU277HeKWxmRpxb6Ta/bkZ0Dq70FXkOFIckQVWQBOI6NmRLl2la26LoZypQidwPsDAix63XXW439drt16DX3qbGPrbbX870oAopNagnY4UbBiJFwurbwpAyJyGJDOLa9JCCSsMlG4RDJEKQP0kYsII7OUU8J3acatZgccLqSFpOglCAlFKIiqSgCSmKTEACnT4qQsKtUi1SHIOKrjBybNH9RZqkiJBZPqVTKZrPc6WZ/f5/LOcIwZLE0NTU1PT09MzPDXVgh8aCal2Vh6bruzMyMZVnz8/O7u7vlcnlmZqZer7uua+aj8slmLg8fdBynXC4vLy+HYVgoFBzH0e5chm3b+XyeBWcQBEEQFAoFTjXSbuQRH4325MQGvPmaQCqKiCL2iRP5iArRSj7G/akpyUIkpSTGZxJABMfXdA+AIx2nX/aofdhHKR9I1jPBAEYJ7uEg3z/hbBVrwYiEtlIhx/FJRQCxA5YUIpmddEZKu4URTh5ZqTqN9dnvlR0U8MPjvhJURGhOPz3xRmR6gC3deQcTMUkIQNZRtQZZcU4OAKBCBUqhUigjDHy0bMuyUAierwyQND8B5t1EMp6CG4WBjKJISUlKfwvuI2MRICJEofDRaWML5H7Yyx7suLlcJmOpDB1i2IpCn4Ku67esqKdkhCwW2Ato70tnD+2MZdvKyoVWkSyHEA6j3m542PZ7vh95bbvXcf2eCoKIlG6wIIE6oDxEBUKS6hF5pCIiUkIgAaBCEesfRCAlhkhKRUQRYIYLRV61p2eD4SQndWS2IhllRWiISQRCAnZ9y6Ruh4AiQC4xUEIQkPT9rud1ZBQxbzz7vElTJpmqKLdpnZ2drdVqvPUslvhTnEoqpQyCgMUbzxLRjQj0LRzHqVarpVJpbm6u2+1mMpl8Pm/22WHoFj8AwE0I0UA2gRDC933LsnK5nNnHBwAymYxZ3BKGoed5LIzP8HCOkASTCXXQQbMMgtgnjkCI8SwAbvjK3Ri4njLpMkKSRknhGFF9H9WaHPHiExyLUSTTCMYeSxqBaBFRGHjMTfTvNSZLklrFJlAjBhlOTYojXfUMYvLYPrqDYlIRhEaQ7DR3sRIr3uqvz6NhHeQFW346tyUErkuUiSFIqDOEEWKZysvnLEzF448p+e0nMiAeXxs/HBVBFPT8bvvwALaEsiwpECwMMtCyqQskbVI5FbmgkAATawsBJAofhUJEwAhdDzMKLADwhepZMiKpFFJYUGGRlEWErA0AAEAEFAFFhIpUqKSH6HM3LskZFYgoBACyaSzDSEYS48RAUkqOrVkdP23T6Urx63SLJb1HVuLh0MILCONQLCIIyyYgz+vpcZDw+oO0oN+m1NWKQohsNmt+BJI4ou6zwx/REpeMrjf6LkII7tRqhgxNCW2uTQtaHT/ntjv8QTZedYRSr1wXlujPsiwf9ckcBVSS0hD+0tyhhx8PggKE+vTUwvzlWm1maqoqRIaUoxQp4iRyJFKKJEAIGCYXsRBH1fdHwliF2URSDsXYdhOJS4n8INzY2Fh7tBaEQTabnZmZXVpcKBQKmYyb5KgrNWLkOxYe46rjVYlS/8o1xNIl+dN8a/Aggzj6kbw++vxwNZFgWJwSQLfNQm3qJT985H9MN5LihHbib5ckT1LMvTXHiD21/CceBWXjtD7SyU3czybu8aUAFJIEAIGhAz0bA4FkgXJA2slAZ4wNJpCEIQgCgQCRskNyFVgEFFpRYAVKEIIAVUBVRLABBYINxH1NI4AekQegACIhfBQhs0yVrJnTX5rN5saLF83Gged52WymVqtVa3NTU/Oumzt5R88KUwSaYrK/KDaRlIgWog0gWEwBkEAkJKU8qQJie1SE1WppdXX1yuWLxVLcG+e1BmkhIhtwLMP4XS7k5wgfSyAtctiIVEpxFFNfRDtC2YDTuTw8b4sdsPxxM7sVkp+36X01JaXZSQeTEc28ZjZhU6KXz2TzdBTGoTeMtyjOjkvaVauEUlEIQkEIsLg897v/7/9cu3790qXVjJMXwo2iKIoix0HbEZzkqyAAiBARhYXooDjtJM4z4RcqgH/pGMtjF0LZtvL8TqPR+Mv//3Wj+bjVCqanC59/tvLvv/v3paXlSqXMv74wCIMwhBGaMgKABeQcFemfM2Q8Amw4ht2xT2CfLLwRyErii2CYrTrbrv/CyvTKiKQ+ksWkSNiuwaaFiptvA7cd4tiHJJBAkmIXUWxNEte2H90M9NWMIJZAFMnwAaMihWLfLcsCJEQAgcoSkSWUEIggibifHCQRHzZQLFAu5+gqZZF0SQkFKhS9wO6SkAItgVmEvAALkb0RggiAJAGnHxKisu1IWAq50jNSUhIByUhFIa2tPf7rX/+69vDxwX6jVq3dvHnz5q0Pb9z6sFyZOn5fXgN93nWuuNN7qkvRtCqDAh2BLiAqpWQUKpKISKTCqBdFvpSRUlGkvFzOrden5+YWa1NTQowuJk2wBabtQn2QRV2qCFJnxnINCbeL44bmLJ90Ai0YXlzdixwSsafNvlSrWDNUaQYpU6cxdLO91NfR5Zhn7DBgXIyvCEdelaRZBQIgZLPZ6Xr1wvLStauXc9m8sGwplYykZYPtIClSpJQKCCIUQggL0YZRUnjOvuZzxkRGvhJjETZoRWHY63Q6Lzee53Ku52E+78zOTV+/fmV5eTmfzzu2IwRKpaIoAkrHTU4CCaOj6fmvHCAYTUz2O2BfsSqyk+45JmUOL4giSonJRL4ahZUY23wYiyIkiHtSxiYjd0GKHdtE+kbx2A0OqRjfjt2XqHlGkoKsCGLOhCh4+gYhEAhCvicIEqgEsvM8VrKTR5LwQ2WBygBYgAhKgLJJIYGKhB/ZHgmJKBAyCC5q9xVpCRQBcXNwiSIUKLlcTUZxW1BSqBQS0e3bPwsBQeDbts2JnNevX52qVk/alzOjz52gM/ZTfvsjix/BQrSBUCkVSUlx/pqSKpQyJFJShVHUs21RLBZKxalMJsMfPLuYBMO3aR7k8KE+gYgSU8nRJqbneVEUmVmyfBEuauTCDJbBejAWAOgxI2D4V/Uy4ufW39BV/wv9MlVn9OiPMyVpg/U1nspw2RCTP6JAcG0rn8tPTU3Nz8/nclnLQlKgFKDgjo78LUJFkWD7GK1Xs4AJJgAAAEWRIp/j2QsLi9wDy3XdSqWytLS0sLAQTwuwzpZ8KPprNs4XXG1yXI3da4tJ0ImpJmho52EyWbAR3+r/cMJbACRPKEv04iOu02e26kSsI1ZuMvWk69vRN1LcVE0BKUBE27K49TMlq45vyHYlKFDcpjwEVLFkR6LYpLSPxCQhqLgwX4mQ4o4zQGTTUUhSi2sOGxEydakeQCgEIrBpgUIIgRaAvbW167qZMIo6nQ4ATE9PLy4uLC4uVKbGZ02af5CxIcZDPUrzASBUikOoRACWBcICTQCKojDqAknHcWzbFWjzIxi5bvIM57APU5dw8Ogr6JeysQs4mfacUm9TNmvqXuZx84OD10mdkBKHx93llOCmUxBPXBPJzy8OJgt0bcu1hMNWpRBk2+g4wnEEIiYD0QDZhwKgKClh5r0/skvHgYkA/teBIJsIpZRSEVIWKWNh3rXKNhZIuqBcx3FtYQs8GpqWrqp41R3GRoqcNDeUKRny5bi3XhnSPEpnMaHzcdJXTTlF4fivTf35CP3nmXEy6v9Q3yvU/xgrJAJCUqjA0pZmYk0KQy6wTcvDL8BSYMelL5zayT5gEkgOggAEJMS4nhYEAqFI7sxTPo6uevQw2LUcN8vPACEiCMHMjSc6CAuzqHIgCyjLQk3ZULOtkmXZ1tAxgK+PlNM1SRrqP8lwjBMAoRCoVJL+IritbjxpS5GwhCJgY8nS+spZCkJGPV8blwxtIw7iODMuJQhPvuPgRQalKfTLS/3nme3IJALArhgO9YOxcyAwY1kZC+04ux+VECRETPIAiBYCHvl/BCoARUkBHOLpC0LOgImp+q8Dru1TZMtQqtBBlbEg71hlpHzQsyLfFpmsAAsJiUBRbLycevvJpNLzB9mn8J2e7crDvHHxf4bf7tXPxHCY9lma/fGc19YqmK+ouDibRJLjkwIPwQACIcFSyeyX2HmMgAhW4jpGAi0EkCwkq8/6GoJEoyKehpm0/hMQS1g2laULMidUyaKaRdOCakIVIO6fPg5g/0PXXgGTRIURIxAsByzLMOwNCBTCciDub3x0wms5XSdgsB2p+ilBZ3oTAQIoilO+IXbACkxi9n0XiokxvgTiCY1IJpjgeCR5nVIp7iipFAlhGc2zQGmuMqGvXyLwZI1B+x/7zNbX3WpmRyKxkBFIkVQcCAOBaNuObblC2AAYhTKKJI1LRr45TMTkOYAIpCSlABE4MwogDjFSMoGZU5CJ4niCEAKFAJHUTpGO5ifUF2s/ab1mgglOD+6oEcmIM8yFELZtmQlq3Fx0gglGgGkeEyhFMlIAgI5AIWzbsm3LsgRXPURhOIY2TG8aEzF5DmDpeJTLCgDxNGVhPGEbwUF0hXARBDchTqpciUCR4jg5JiEKceQWwKExlfP8BmO78rgv/svF2HgHx5AssmwSNgFGgBEKadnkuCAsSGrVdWCmP2vkVDcY254epWAc897ZDSICPG5m3NDbjbpBeNKTeb0HhiZDMNdlxIgoyTQyGzQjgADL/PPofNT+L0xKNYnnYwwEU9EYt2lchhRghCAFKgREIdDqotNBtwNOB52ucHvo8DCZMbUXMKGfP8XfO8Yxtx5ui2NfIWzyeiImzwGxs9sEcd0VAlix+AQb0RbCEcIhEGEUySMvrSKSilR8YuyuTYYKcX7FiFkW7xh+uSsfE8asXyMAgmWDEBIxQoxQRMKStgPCIp44gQatnZieMuzS48Jg/NC8b99/X3GZIRfgFNDBNNrj7njc8eNgja1OBoDspHneAHRuSl+4TW9nX1DnKL0WldLjqlFrSTxZ2kuUCX2+AMgazd+Tu2JE4IMIBSkARLDB8tDugN0GuwNOR2R6wglR4BsRkwB9UtyMtWL/W/2np2F+x7Om8Exwepip4UrJIIjCMIwSJINaYlmI+mxEQFBSgVJspU6EzASjgguxeLoq99Ng2pNS6u4ZOottQmITjAACiuspJMZdamN3l1TK933P63l+LwgDJr9Rm2e+g5iIyXHBlHoAoJSKojCK4vF+8Uz5/qF32m9LSZv212xzMMF7C6UUT9cF0L2xAikjpWTSGDI+E/EVqSDDMFaqHCtX/YVGLl6N0zy1sy6xzyKlOBtRxRU2QiSVm8CjToIgCMIg0sMrz3jT0XEOGUrDMRGT5wCz70/syuovc9S1Irbt5HP5QqGQKxbcrMtd0QGSWCQctepRYClO4UYx8bj+y2Gsz0QCSAIvlB0Ufq4gcgXMZMmyIwIP0BcWt3YaUlV8CggAO6lXO3cowOOGWZ7wExg4fmxyuKDhjRGO4+QjxCwxjh2OZ2eVmalw1KdVcZg5SWfQHlgLsK+Tgf5kskAFqJIApIg73nFwxwKwdQEiaacrWXGfdwLQ94/bNSgWkJEKJYCbz+XL5WLFz+SLJGw5biHZ9+2E4Wo9z5kkEzF5PohTWLmmAy3QMYGkcEkI4bpOPp+v1WpT1Wq5UnSzGf3LIuKWxjEhE4ACIQmTAeITm/JfD2Pd0ogoIPIdl6aq+UgWy1PZbF6gFaIILeG+xvAbKxnEOA7wSKNwmCg6TgKd/rggcEYZSHf8IodJSiJDCo0DyT11RyAu+ZG60jpJYQAAVIKFXrodjW4OBHhUDUTGRVnYAELSkiC+dtzJVleE85WUbqugIAxVAJZVKJVq9Xq3Y1WqNdvNoDW2eG0a+uGTkctzPpiIyXMAZ7omCTcc7DlyyDNlFgr5hYXFjz76iIjmFmYvLK9UKhXbstE8l+sqMe62IcbX7WSCf3XYtpXNZpeXl7/66qvDw8NSqXT9+vVqtZrJZFDgUbLriEmuE0xwhLizrGJPrBBYq1Vv3bqVcUqXVtrTtbkrV67UatNnmXL/jmEiJs8HKfcV9+TXbwJALp9bWJgHgEqlUizlF5bmKuXSUdMfBCBQBKSUEBbq9ArDcTJhZhOcEkQohJ3JiMWFpf/z5Vc9r5fNZFZWVsqlKcfJYNzlEwBg9AFtYyVDTEyWc7EmX3nknPGmfqRHY2sNdWdgLUOcrv1LJIS4U8+QVdMxRvPR9RK7NB4/giRQVCqV69evVadmG/tBPj+1vLxUq1Vt5xcvZX7xX+DdANcb6QIPCwCTQTkCQSBiNpOp1qYyWbc+W7Mdkc1lcrkcCDgKTwLGw3UIUCAlXexU4gQZm5P/DYTYJyI+hTE+c1IolQNgI1KtuvTRh1mexlMsFjNOGcmGuKgXEHho7+jhyXHtJwI5QEM9uifc8rQxSwIxrEPZqBh+CZ4mO2xf8XhZfjpwODAOO5ICxSORFZAEJUEm92BGgUCIZKEiAASFRxFTcwkIhNz1Ne6oY1RKnlQJk3TlTHpQU2xT8j2K+dzy4mKtOtvtgePkysVyMZ+zHWtcBDNUmxp+knbuHR8vOPqsSv6OH91ETJ4LCEACREk2DhAgARcmIQEhouM6TsYulguzNCMpkhQiIKJBlLFQZI0ak4lyRzQ7TlHzC80t/EVjXM+cCEnZbCgWC5lScfqoyxNxr6g4/QOS4++Mb/+Y0sBRMezRHv2UxiIpBwoXTzp59LuhtiEJUCmQADwNJH6NsVEYhyZBYTyVWUH8AvoMdZ4n0i9Ajr7GSWIynuoVq1nY9xUpm83kshmprFA5gI4tLAtfa9zSOUHLyCHHBt4aoiVMxOT5gD0PiVNDAfA0LozVdQQOPPKwHQCw0IJkduuRGyPOkNVhdgD963hXGNkE7zpQgAUgJUURIYJtIzBnlUpKsiyw7aOBquMdPDPBvyKOCOYo65BVfIWgBBzNWUok7i+ewiZi8rQwx1UOHuRB4rFJCAjArc11LQcqikezJok+FqIOLSB/RiDyTJrkT4AhnqO+OqQjmUqJojxhe79QnJM+hJwYTyCTlHjtJVOKdIrZKcgkHrirl5UQG9MsGkVQOPRHAf0/ljeHYSEK5GDcGJcz5m96dHlEFkVGFBf7Ml3xqIpM9F/B8L9iYrmnrD0cqJmJs/DZXEZk5wR7I/guIh5uGV8P0eL8fAFG+n9qulg/Ox3s+3oy5fTRWPrJ48CLkWAY5frQv0Bf2jHBnO2spz1jMjgTAPhIMreMjIQbjhSgQZAxtWiHBkvCfv/GkXWpy0LgaMcSeRw3HlAAYNk28ydjGWfr2jNxur559D1zvYO8+Zp6YrI5ypoevrtH4uzogqgUJf0qWCMjpUiI4Z2dzIwzxKMScqUkAFiWdUT2ye+ClJJSAqJtWaak5HEk+peCb15YHuN0HTMlnnCH176xscEEREnJozI8hIkQxFic6ZCkua5EAir+LHOoRMcHBHP239HNCUglPA1RZ/7Evtv4JhwxZYkqVOxFQx6NZLJNTeqmjtVfen4EgLQE1bw35oHCOqKuEx2ncHTSCduR+uAkNnkiBvdy8Ih5GpKIZ6YeA0Mbx76D6ZNOWkzKdgSitDV5xljTRJK9aVBaqsHRLhz5F2JFPPXTHap6Uz9fYHFonAAAOHQ6rknV+sxkHUci+uimxpGk3Lf/BH3O24p8Drvh+BcxzjscbQqYJvEx43lfvRZhJmIl+jkiAlhER1c98h8kgpkNyGQ5aKyqf8R9cm0FpAwCSxEbY+jBoccHnRac+XGWRzAcwz84sSaHgy1F1lksy7IsC4ZtGDfMBA5FirG0luNbmIbsyXQDA06wCd41aOeEPpLqiWPq0eaOI6LpwzA/eOYdl1IqpYZeJ6WfMakP3ksIwd8Ik8HmrOm/5sImePMYatXBMSGn01+QXyulpJR8TT33NHWyeQtN6oPna2uSGe+Zv+8pMbEmh0PzphRL0q5XeONcgDmRJhdeWIofTZSeXxZMvmCyJKUGHV+v2NmhvqmRoBeg727KTvMgJCLTZre/4WvhE5hzDXpBJng3MdTUG6Sos23oIF8aKoCHfuQ4stcffzOkNRGTw6H1Fyvp68UkYhp2poIzvt3iNbAixkSjFfYwDCHRp97MYiY4FzD9mPzI3DKtKYOx11p31sp46pqmHcDvnpIMtBdEi0MmNjBICxI65BdSSk17+qC5JD5HSqlPmOCdhalwg0EPmqJMGw4Mre6UF9efMi0/rZCZ1A4A2nWHRjhTnz+oir0ZTMTkcGgn0nGmG7xBZZlpIuWmO27Z+iNjXdIErwnT+h9VNx804F4HryTj45z52B+wTwn7CX5BOD0rOwPFmi7c1O1OJuAUvZkc+PR3PxdMxORwsL5s27Zt22TA1HGiKCIiyzrzsIURYNq1DCGE67r6XV4zu/5t24aJpPwlYOgemeYdH+FEU+hX5LVvg8mS6TClrb8SfJHUEEqt0YPhRAEATVeWZWUyGX0CJGEn01wYU6h+gnMH9keU9UHop6JB4/I00B/Ruh2bj9rtMdTfkLqLprGUcH1jNuVETB6LodSgxWSKpMbKEXRANHUX0659MyuZ4FxgKu/mDqacAaYrbJBrmF5WMKzMURcz+BHzOiad83pMkcmvtZdsQo2/dJh23lCGM+oF0YBpb+gTdFrioJCGY7ImzSuPup6zYSImh0Pr7wzeklSiKZ8wbnWGdXlOuB3MdNVrY7tW2xwT9vQuQ6f8sbCBgfgQJpEbHeEbNDH1ma+z3WwankA2HEPVVBeGYbfbRcRCoYCIQRBgEnPSPwTNB99k9GiC10HK2gPDUDtONT/9lVNErgWw6W/QXI6NSzRSeFJR+cHrn/E7j4KJmBwO3hIpZRRFJpMa1N+h37EwjsWkjAx9xLy7ZkwTAflLxFBt2uQmmrrM/TVP4yM69eb0ZGByIn3ZVBoR34Kj9WaUIQXzgthfx3K2xzLBG4Cp9w96L06TEnECBtlmSicz2VeKzs37DvXe8TlvgLomYvIkRFHkeZ7rutlslrckDEO2A7RLPcVixgGt0cOA5wGMbLGhnHSCdxApMTao6GgBaYZtXrmt2iN6ejIgoiiKWBfkkKQ2KcIwZB+GnTSBRUTHcXQQlIh4lGDqRinGN7Ep333ozRoME2qigiQN9QzshfozIs2LD2pjKT7GwpttTfNM/e/I33Z0TMTksWDS0S4p3tEoijgVHhFd1z0b0YwETNJcOasoZc5qS1dXqum3xrqqCV4HpuGV0qNZ/MgEqWR67ZJKWW9DL35K8GVZXpKRknacz822baVUEATaz28601LOsQkd/lLAHMb3fd/3oyhi/pbNZk0W9zq7eRpyZQabKrrj2tzBENhrrmckTMTkcPDP3nEc3iRItjAMQ8/zmHlJKbPZrG3bVn9Py3MHi8kgCJiCwcgkchxHk7LJrca0kgnOC2g4Npl4dAhHShkEged5nudFUcQmneM4juO4ruu6rh4Hj/1lIYN1aadZBhNPGIYsJgGAjziOc5y3LYqidruNiIVCQQjB4tw0PfV3Of1KJnhbYCqSUvZ6vf39/f39/V6vJ4SoVqvT09OlUsl13dcUS2aVsNmLB42ED3ZgdLtdz/P4BGZu+Xye+fBQ+fpmqGsiJl+NjY2Nly9fbmxsbG9va84lhCiVStPT0xcuXFhYWJiamsrlcuPYsyAI9vb2tra2nj17tr293e122UXGNFSr1S5cuDA/P1+r1VzXfZ0owgRvGGQ0eMOkxMj3/b29vc3Nzc3Nze3t7Xa77fu+ECKTyUxNTdXr9YWFhdnZ2Uqlks/nUy4EIjpDcFop5Xne+vr6kydPGo0Gs0gcqAxGI7tbSul53tLS0pdffjk7O6uTy1J5RhNq/KVAKXV4ePj8+fP79+8/fPiw1Wpls9nLly/funVrZWWlVqtZlqVzamAU4WRm6WvV0AxySynb7fbu7u7W1tbW1tb+/n673Q7DUNP80tLSwsJCvV4vlUqO45iZYvziDUjKiZg8FrwNURQ9fPjwT3/60zfffPPjjz+yrwkAHMep1Wqrq6v//u///utf//ratWuZTGYcDUc8z1tbW/v222+/+eabO3fuHBwceJ4nhMjlclNTU9euXfv1r3/92Wefffjhh1r9H5WUJ3i70K6IIAgODw8fPXr0/fff//TTT/fv39/e3m61WkqpXJYYRA4AACAASURBVC63srJy48aNTz/99KOPPrp8+TIblymBNOrWs6judDo//vjj73//+9u3b29ubnJuLRmNZwfr6oQQv/vd72ZmZqrVquM4g47WVHTgPJ7TBOOCUmp/f//27dt//vOfv/7664ODg6mpqV//+te2bZdKpXK5zLzFDAGcck/ZTkUj84uSppsMz/O2trZ++umnb7/99qeffnr+/Hmz2fR9HxGz2ezy8vKnn3762Wef/epXv7pw4UK5XDapa6w+PBPvnZg0f70M/ax1Xqtt277ve5734sWL9fX1v/3tb99+++329nY+n19eXq5Wq6z1h2HYaDT+/ve/HxwcbG5u3rhxY2lpSW+kGaQZTNkazJ5PqeFKqV6vt76+fv/+/R9++OHBgwc7OzuFQqFer2cyGUT0fb/dbm9ubv71r3/d398/ODi4cuXK/Px8oVAYbNQ+COzv0DhhZG8F2kPu+363233y5MmdO3fu3r374MGDdrtdKpVqtZpt20EQBEEAALzdL168+NWvfnXz5s35+XlmYYOBn9NvKJ/Z7XZ3dnY2NjY2NjaYr5mZOExRul0iM8rd3d12ux0EQS6XE0mXKEp6HZhZG+f81CYYEWamDBrNBDzPa7VaGxsb6+vr6+vrDx8+vHPnzvPnz9vtNvvVOY0LBpoPv/6S2M/faDTW19e///77H3744enTp51Op16vLy0tCSGiKOr1ekR0//79Vqu1ubn5wQcffPDBB3Nzc2MySIaCyfj9EpN0zGQGfs0bw7l8vu83m83vvvvuD3/4w927d589ezY/P//hhx9+9tln169f7/V6Ozs7Dx48ePjw4T//+c8ff/zxxYsXzWbzt7/9LefEIqKp6Wsi0355My3IZD3aLxFFUaPR+Prrr//whz/cu3ev2WwuLS3dvHnz448/XlhYAICXL19+99139+/f/+abb9bW1ra3t7/66qvf/OY3HL5KJYANdYLxjSY1JG8RWhR5nre7u/v999///ve/f/jw4f7+/qVLlz755JObN28uLi72er2NjY27d+/eu3fv7t2733777dbWlud5n376KYdtWFU3BdUpF8AijQM/QRDo8CT0Z+RrO4CTHvlFEAS9Xi8IAhaHrGUqpTg8qY2GcTy3CUYCJQ2bwMiyVkq12+2nT59+/fXXf/7zn1++fMlsrdVq6UB1Ktp9BjGJBlLXCYLg+fPn33zzzR//+Mfbt2/btn3p0qWPPvpodXW1VCqxkXDv3r2ff/75/v37t2/ffvHiheu6uVyuWq2+gdxJxvsoJuF4y4lpQievbm1t/fzzz999990PP/xg2/aHH3740UcfffzxxysrKzMzM0EQNJvN+fn5+fn5v/zlL8+fP3/+/PmdO3fYiT8zM8PF15A8ZTMElaIYXaukzw+CoNPpbG9vs/Pt0aNHURQtLi5+/vnnn3zyyZUrV+r1OgDMzc0Vi8Wpqanvv/++1WrduXPHtu1isSilXFlZyefzE0X+nYUWP5ZlcerEs2fPfvrpp++++25tbQ0Arl279uGHH3766aerq6uzs7NRFC0sLBSLRcdxut0u00a5XM7lcqzVFYtFffFRN52J0HGcQqGwsLBQrVZzuRwHPjGpS2PJp/NviciyrM8//3xhYSGbzerApNkwbxKYfFtIOcyYD+jgIgBEUdRsNre2ttbW1u7du/fs2TPmWhwRlFIeHh6aZRipq426Hp28zSth8mg0Gs+fP//HP/7xz3/+88WLF7ZtX7169Ysvvvjwww+Xl5fz+bzneQsLC9PT0/l8/tGjR3t7e3fv3mXWd+vWrdnZWTNOOW68X2LyBBnJv3ydoffy5cuvv/6azbUvvvjit7/97e9+97vPP//ctm0mnSiKrl+/vrq6enh42Gw29/b27ty5MzU1lc/nS6VSpVLRifIpMZnSzkyNW/vfDg4O7t69+49//OPHH398+fLl0tLSrVu3/u3f/u2LL76Ynp7OZrMAMD8/v7S0VK/Xiei777579OhREAScScTpPENr2uBcPScTnBmsG1mWxdl9jx8//t///d/vv//+xYsX169f/+KLLz7//PNbt25NT08XCgXbttnbn8lk9vb2Go3Gs2fPELFSqVSr1ampKV3XqydbjbQYRHQcp1wuX7hwIZvNzs3NMZlpUmFhDEmSERE5jrO6urqyslIqlfgtbdHCsG7XE7wxmD4zHOiRFEVREATb29s//PDD3//+9x9++CGbza6urhaLxTAMC4UCq0Fc9sPugdfJddAyUsezmFp2dnZ+/PHHb775hrX8+fn5Tz/99P/+3/979erVSqXiOE4URSsrKywpC4XCH//4x7W1Nf4iU1NTU1NTb6xzNSK+L2JyMA6X0rl0nLnT6RweHt67d+9vf/vb9vZ2pVJZXFxcWVmZnp5OxWByuVwQBB999FGj0WC/6+3bt6empi5dujQ7O6uvnPJqao/H4FuQWJOtVuvx48d8TaXU5cuXv/zyy9XV1Wq1yiUoAJDL5aanp5eWli5fvryxsfH48ePd3d27d+/OzMxcvHgxl8vpUhYYaGkxwVuH1qI6nc7W1tb6+vqDBw+2traIaHZ29qOPPmK3QaFQYBElhJidnb169eoHH3ywt7e3tra2s7Pz8OHD+fl5NjRZSp0hZqOSGW22bdfr9fn5+atXry4vL3MInM/RXhBlDHRj8ay7E5izJ82M/3N+cBO8Cjgwpk33B9C1sK7rlsvlxcVFz/Mqlcq1a9dyudzh4WEYhi9evBBJPxOz1I36RySdcmfNCLdejOd5z58/5yS1RqNRLpcvXrx46dKlhYUFXX9i23Y+n2dXysHBwY8//ri/v7++vr6wsPDxxx8vLy+z5+/cn565cv193xcxCf25M2h0L9TuBVZVWq0We1D//ve/FwoFZkO8f6mCMACYnp7+8MMPG43GvXv3njx5IoSYmZn56quvTBVM05OOG+nb8XGTGXEPgcPDw/X19Z9//nlra6tarV69evXLL79kzV1/KpPJuK47Nzd36dKlR48e2bbdaDTu37+/tLT0ySefsLNiaIX4BG8dWlXibHjOoXj06NH+/n4+n5+bm7t58+alS5dY+PFHhBDT09NKqVu3br18+fLly5fb29tra2sLCws3btxgHxS7Q0biHfwr4Jpuy7KY2Ni3ry3UVGSLp59yyjcicpaHjo/q78W1npPY5JuHyXN0AQYZeaGImMvl6vX66upquVyu1+vXrl0TQmxsbOzu7nJhm/Z2mNvK1xkpLpiyT5jFcZThhx9+ePjwYRRFS0tLq6urly5dmpmZyefz2hp2XZf52O7u7szMzL179168ePH48eONjY3Dw8NyuazH1IwDWkBYlvUeiUnzF6t//GiEDPm5bG1tfffdd0+fPvV9f2ZmZmFhYX5+vl6v53I56m9OzSpPqVTicI6Ucm9v7+XLl1tbW41GQ1f5DGpe2J9Rbfo0lFLdbpczVzudjm3blUqlXq/XajXHcbjTNCbtqhGxUCgsLy+vrKzMzs52u929vT2m9cXFxWq1etyj0L+WiQR9i+B66sPDw42Njb29vSAIstns9PR0rVYrl8uu62plVguebDZ74cKF69ev3717d2tra3d39/nz5zs7O+12m91Q2m1wyp1lGtDRRA5SssTV+dKDoSl2w+qDZPRGh6TLgf5BTcjsDWNQMqHRSZy3m7WxQqHg+36hUKhWq0EQNBoNTBpNsD7EMWkwyh/PkPFHRs8Krj7a2dnZ2tra29sLw7BcLi8vL1+8eHFqaoqFqLlsrp6cnp5eXV199uzZ2tpau91eX19/+vRptVrVEfQxPEUA4wG+L2ISB3ybOs/TPEEptbm5yWIyiqJ8Pr+wsDA3N8feTmU0FeQXlmUVCoVyucxK0MHBwcbGxtbW1sHBAVOY6O+xNPS1mZrIXri9vb1ms8lpt1pMCiG4KsCcXpLL5ZjI6vX68+fP9/b2tre3OV3NrHI74bFMWNjbAhFFUcQZ+fv7+1xZUa/XORjD2T2QpM5HUcQ5zMvLy9euXZuZmUHE3d3dFy9ecBcCU0yOtKci6Ryrp2KZcg76E460ZakjXpgUU+nV8nHTZ3XOD26CE0H9UzVSAzcgsSYzmczCwgJnxUspm80mJz1wqZvrurZt65g0i15zx0daDyTKUxRF3W6XmwkcHBwopSqVyvLy8oULFyqVCgBor552/LquW61WL1++vL6+zv1VuBWGTmYcE9DII3lfxCQMNBU0NSN+HBxnbjQaT58+PTg44DyFXC5XLBbL5TIHBU0HqX7N6Q+VSmV/f7/Vaj19+vT58+elUqlQKJCRUm+66VOLYXBPxZ2dnfX19UajIYQoFApTU1PsrNcka97atu1CoZDP53X9ied5vAxua3eaBzLBG4bJs7rdLjsAPM8rFoulUimfz7MxZ2pj+s98Pl+tViuVSjab7Xa7HErvdrtm7szZci50qoXppgNjcISOV/H5rPuDobcNJo+cx9Oa4OzQ1r9mHXxc75TmSDoklFJ9uEPn6xht2qPGvvpWq7Wzs3N4eKirj1zXLRaLOm07RTns5q1UKpVKxbbtZrP56NGjlZWVTqczVi3fvPJ7JCYHYe69ZVmcjNBsNl++fNlsNllMFgqFYrFYLBaz2exQ7oOI7BqtVCqNRoNDmy9fvrx06RL0S0HThB3KQbSYfPr0abPZZJ8qS2idImFejQmI0/e1EOVEWaZCpVRqDP1ENL4j0KJIi0nf99l5oMWk5mWmyCwUCpVKhQMzUsput9tqtbrdLnurYPRKDJPXqKRxMf8WqH9qvGlBotGTVlstuqoSJo6Ktwf95E2dPjVqRhOJSkaeaXkpjFaFTAa6F/mopAX9fVSYulqt1u7uLuvxTD+u6xYKhWw2q5kY9Hv7udSNMzNardaTJ0+ePHnS6XTOsJ6RcGSNjPU27ya0jpz6PafIAgAymQxnXiljrhDzL0omuXO5a6VS4aTEMAz39vbY7W6qRZoEYZhdq/9kc3ZjY4NbS+dyOV6AXry+r/4sLymTyXBzCo4xMBWmjNfjXk/Y2ZsHJnPZDg8Pt7a2ms0m01K9Xi+Xy6bbwGR2ZExOYNnJ3VIODw/1yA4YRUSxBRmGoWVZ+Xye03aazebjx487nU6z2WQ7NZvNMp9idTCfz+s8WCZavR7zyFjjRhOcAJOlmFFJDcuymKuIpGBjMItVsyzbts0JECmyfCVMYcaxyb29PY4KMdlw20XOjmSdzEwB0f5ek+BbrVav19Nkdk6Pbfjiieg9EpOm/5Ohj1CSgMp6tNaeHMdhQ41/+br8URMWEWWz2XK5XC6Xi8WibdvcganRaPAwGn0yJB2/BinYpEuu7eVoE0fatZjU5K7rmQCAMww5uYPFJC+A202ZX/C4RzHWZz7BUGiO4/s++6CazaZSqlAozMzMmPnMKf+BKSmZayilWq1Ws9n0PI/O1PqcHWuYZOV0Op3Nzc2trS3u+M/Rh1KpVK/XZ2dnOfG7Xq9Xq1WtvVHScEfblPoXNPgtJhg3Uu4BbSlqrV1rWpDwHOZmKfmnP8ViUvs/RqKxQU292+0eHBy0222+FEdAzVwh00uhv5FOWmRvB4vJIAj0B8eE90tMmiZ86rjeEh6SxTMdOcOKc9/5Xd1Y3HQ08aeYxXAdD9df8ywYfQv9QgvOlDFnvmAPPscDuL85a+5k5ESYo5QQ0XVdjmkhIrfZ63Q6zKpSNJqi78EjE7wZICL72D3P44J9jtBw/h4khbyYRInI6BzGBMB51FEUcYML3ZR/1GUwE/R9f2Njo9lscrTbtm0OfPq+DwCcPcS+r5mZmdXV1Q8++ODixYuzs7NcTEz9Ha5ZWPq+z7bCeT+8CU4C9Rc4gvHzTyXqa61Lq1zsTtNKT8pqZM17JMlkGgl8KXNaFjef47QPPlMkvZzAcP/ats3DL7PZrOu6rNi1Wq12u53JZFJFeucO9R42q4N+W4qMUmiue+UelSwXdfKCzgZURusmnR+o2ZZt271ejxmfKaVM/pUSeKbuBgn35O6aruvm83lO1oD+nGxh1JkwA2WPmRAiCIJ2u83ztsx8iqEG5URGvkWwPqQ7qbJLoFQqZTKZwc1iXqPFJDMOVsvYB8V0ewafGHsjwjA8ODhYW1vrdruZTKZQKLBc5Ev1ej3f9w8PD5VSuVzu6tWrfEdu9sQLVkarKdYvOYksFVOfYNxImY+aGLQ5CIl9pk/T1RraEyCMMjkTXJh0evVaJTXimhNGUaRVQ9u2uf5be1y1p4Q/zmvg0hTNY5kt93o99ru+gerJ90VMYr/zyvR2atbDYtL3/SAImCvZtq0TXLVfQus4TEPab8BaM5OFZn+DHZW0+EQDpqtBX5ktDPb6musEQ74yWYdhyFxSZ/GwbcF7PDQqPsFbhEmBmsZYRzbdlZpPmXE+SqrQNFmy74GvqSXT6T1jfDs9208Isbi4ePHiRZ6i6jgOO4cPDg54YM76+vrz58//+7//m+s12axkTwaHLawEukPyGB/lBANAowvPoDzTTC+lOqukywQAsA+AxWEYhpxcxpbDSKQFSWhTcznN9yBhlZr1malhpqqnBmBy7zdDXe+LmIT+1BVGyvPJbiJmOloiag9DrFb0U4lp3mmfWBiGHONMkQUMtG4y9TVllDnq05iH6pZRKbKgZOS3nndjLkCn+QyKRi2nz/P5TjAK9BZrvwVvmSkmTcU/9SndHkUTACXjUfFVLeuo3w/PtyuVSouLi6VSqVQqXbt27ebNm5cvX56bm3Ndl2vddnZ2Hj9+/P333/d6vQcPHvz888+tVosVf93HkYwQhhDCTD2b4I1BcxU1UDmN/c5MMDR4kzXpdk6seDFl6o4T+vzUZYeCKSFlkpp31JIPjYCUZnT6IykZCf2uuLGC3p/Y5KjQ8WTP80yP/Akbg4jsg9ICVatRmDg0wKAbTQc6GYcPsn1gTiwyiSOlAKpkMhf76Cmp/h4k4jepfE3wSjANmBIOjIoLYQyiMu3IQY3HNA7ASA5Co7cOGDyFEu8of5ySwrULFy58+eWXiDg1NTU3Nzc7O8tlavzZbDZbr9fZ6vU8z7Kse/fu7e7u/s///E8mk/nggw9qtZpJ3ikxP/7HOcEQCCPNXtOJMmb5mVvD/s9MJsPnsGhEI8RjXlklyfaDJ5xm00+g5JQgTL2bMjnO8EzOhvdLTA59smQkEOoWJPotZRSNpSjA1I9YmKW86inyMp0J5kW0w0HzRy0atSNOh530xbUZystmf4heoRiWKjlhWO8ItBTRO6vtfur3dgw9bh7RRMvHdcBJn6D6E/31BdFwgtm2PTc3x800KpVKsVhkdskXYbLkmk4AaDabzWaT+9Bubm4uLi5ubm7OzMywQWn+fCZ4izA1FTC8r+a+p843B5dqKWi2ttCNljRjNJUzU7wdJwWHsiAtIPWRlJY/yDYHTxsf3iNr8jgDyzzOHk5Opmq32xxkZittKG3pRGr21nKCMhHprFfo77eeWg8YBGfKP87+4ngkBwZ0zIBhej+Ygjksyt+FM0F4AccxrIm8fBcgkvmmWhniIUccXzTlDVOazokHAHaFsdOC4+LMRMysP813WBLrcKa5+5r+uRrSvJoZMtCsk7vtLywslMtlLhLY29u7fft2sVi8fPlyoVAwSc7koRO8SWhlSB/Re2FukC6X1Mk7pt5GSUSAqZSIOAGCpammNEySJEx/OybZkdrGEP1Zh9DfrQKSFEWRZLqaHBKNwJa+QsoHOz7g+9PTFY4vFtR/ckebTCajRZS28/QVhrqwdEsndqBlMhkOKNLA6Bn9KZMIoF+KO47DDSmYLjmbS58jjHoS7a0VQvAaWEjn8/lcLmdGNMf8aCcYDdoNYLYdAQDOxtKD4/Uua7alt1KLSd1ZQiQZXgyTbYEx3lJ7YlNUxE0ZzRWqYcnYtm1Xq1U9BVMptb+/f+/evbm5uaWlpVKpZJ4/Iby3gkHfg/kWJC4HlTQg1CIHDQ+qyS31EX2mZQzY0pfVBGMuY1BgC6NfAQ0LOoIh5vVdUqfpi7wB18X7JSYHf738Qlf9s3deK+aYzHxh4cdHOGrIMUhWfJivQcKPLMvi/nZs4ZnFZDrSY7I8NHyzLHF50JrjOGyhcqOAVP0ZGe0OuCqAO5YBQDab5ZZAJwdTJyzsLcJ0arFWlMlkuABXJ7uaXAkSZYg/TkliBav2pVKJJ4qk9lQ7+UXSi0Czv1QoQUehVH8aIRjBTm1b8Gp1mcfh4eHDhw9XV1d5fI0ZEIUJmb0NkJFIZT5/06uJRq0I0xgLnkwmw6YCGvUh2q/gui4Ny7XhI5pB6XNgWOcv1uO5ei2KIq410nxS9DfNx6TUMggC3/e5LTszSU43G3fRJH+R90VMmuRi2nBgbAYr5qZjKgiCTqfDczmGXpMZFheJs7tMCMFsKyXVzNf6T5Oe9Fss57LZrOd53W6XZ6WaUU8y5qwyuC0FtxRwXZfDSyfUq6Hh0xjlKU5wntAykjsGc+rW4eFhr9dTRvMUSKxA0xUhkx7ltm1z233dg0Jf35RV5kZrAWzqi2hUyJkC0lwtJDmQDF6V53nb29sHBwecZIvHhL4meCswaQYGcvuZ+ei8Cn1Ef1zTISSGBB83L0j9+UEq6TZnelnB4DmZTIZHKrF+z/JPe1BMGta3UErxmWyx8K+G28CO25p8v8QkDHgDwHCR83FtyFvJ7BhuGKEn0HIwiZKUH84H8zyv0+ns7+/v7+/3ej0eP1mtVnW3ezAEqr6R6M/J1q+FENzo5Pnz541Go9frtVot3/e1VcEn664ZfITFZLvdDoLAcZxqtcpyGg1Qvx9mwsXeInj3uSi2XC5PT09vbm62Wq3Dw8PNzU09VEtT3eBmaZHGYnJqaopZBh80lX0tFPlgKj0NjMo20zhIMTjzU7r8XEtK6E8VeQMPcIITgP0VQYM7krL1WQUnoiAIPM/TTeBggFOZl9JmaIo89IQZTSEp/pbP52u1WrFY1Iaj1vn04oVR9wlGJJL1Qtd1WdC+mbnf75eYTEHrvCbRsMNzampqf3+f6abT6XAHO6Y8TVLaI8F+g2az2Wg0wjDMZrMzMzOzs7PcRZpPhn6PByTOLtXfr4AJa2pqan5+vlQqEVGn0zk4OPA8j0UyGQVzZpyc3bPsu3Bdt1arlUolbYJMJOK7Bt4UVop5u1+8eLG1tdVqtTY3N7kNuj4N+730YRhypyd20rJuzjPAU4qgufv6hWkcQFLypDsB8VA2/Za5Wuhv46KJVvdMF0Z5HAwrbJ/gzcAkA9OLnnoL+sWedlGkuneZlDN4I00Ymh5Sm55yaViWVSwWzf7+bI2wbD5Osycilt9KKR4PMDc3x/boWGnsyIwe3z3eNQxuszJamesIEI8J3d/f39zc9Dyv3W632232ZwIAJ5GmAkjcV5NbeRWLxcXFxfn5+VwuZxKlmbio7y6TGaR8hJNU6/X6yspKpVIholartb+/z2KSJSWHRbX3g12+pn8/l8vVajVORBwqI/Xep3TD83rOE5wS3KdmampqZWVlfX394cOHXMXfarVMs08lne550zudTqPR4F7nVjIVnEPRYKhfkHSJQ6PPNSRNoDCJl3OPupcvX7bbbcuyVlZWlpeXHccxM4BMdqYb+vPViCibzc7OztZqNd0dGwYyKid48zAtMOyvGoJheWH6talepxQ1DU1U3JWQqYXD5+yQM5mMjjtyVKtcLtfr9UqlwkKRRSD31+RAlblUvruUstls8nDAcrl8+fJlTqse9wPUHPJ9EZPmdx4UHpqzWJZVr9dv3bq1vb394MGDXq+3vb29v7/f6XSsZPRMSkHrdrt6cFW5XJ6fn19eXq7X69zlKxWLZn1NH0lpc2zOTk1NLSws1Gq1bDbLTcKazWav1+M542i4wgAgCILd3d3d3V2evsYu3+np6aHB7RMUvfN5yhOcDqYkK5fLS0tLXLzP010ODw/Zza5dERphGO7s7Dx79owntbFizt3SEVH1J2aDMf3DHISkknlwfGR3d/fOnTu7u7vMntghlrJIdJqbUooj8WyDSilzudzCwsLMzAzzuJS9MsHbguk2MI1ChuY/qReifyCaeRHT/4kD3WIhsUe1gqULkExK4KDS7Ozs9PR0Pp9vtVqe5+3t7W1vb8/Nzelca9OOVEp1Op2NjY3NzU3f92u12urq6qVLlwqFwrhNyaMkuPHd5l2DFlqQaLum2qJdSQsLC5999tnq6mo2m22321xDrZs+c0SQ+Q7XbDQaDZ57Zdv2wsLClStXLly4UKvVhBCcoKVDkuzg4upsrsuEgRi7EKJcLs/NzfFAJSJqNpv7+/uNRgMAOAlNszxE9Dzv5cuXz549Ozg4EELMzs4uLi7W6/VUBRscU9474WVvBdpjL4QoFAqzs7P1ep15BA+P5NEcmkNxe3Ge4/Hs2bN79+5tbW0RUa1W09vN1h5/RLd75aFFjUaDM9H4J2D2dZJSbm9v//zzz998883f/va3R48esc6OiLr1uTYgWBAeHh7u7u7yLCQpZaFQuHDhwsLCAvfo0beekNbbginbzACheQIm/cR1gNnMzBBJM4FUyFC3GjA5CRp9CYIgaLVaPEmQPXBoxBrZR8LT4ubm5mq1mmVZjUbj2bNnT548aTQaWp/TvFopFQTB/v7+48eP19fX2+12oVBYWVlZWVkxlbnxPck4IDrW27xTSD1T7RfSIoeP1Gq169evX758eWVlpd1uN5vNnZ2dra2tqampWq3GLIAJhWfqrq+vr62ttdvtfD6/tLS0srJSrVZzuRz0N0DhYaTb29vb29vsK+MybR0k12pXLpebnp5eWlq6cOECC9onT57cvXtXCLG4uKhlJEcR9vb21tbWnj592mq1stnsysrKhQsXWFM7joZMfd80iyd4w+BNz2aztVptdnZ2dnaWhydsb28/evTIcRyOcOtq6263u7W19fDhw4cPHx4eHhYKheXl5YsXL+oOOOZl+WSmQKPXlgAADlpJREFUNw4lML1pnwQmTYy73W6z2dzc3IyiaG1t7caNGxze5vwIM4glpWy328+ePXv27BmP3KrX63oNXJEyoa53AYNxZeh3g+FAJx1KkrM0Y9SsiYwKjaEZW8wM2+32zs7OixcvOp0OAExPT1+4cIGZoZlvyAk4i4uLly9fbjQaBwcHe3t76+vr165dW1lZ0aMmONbQ7Xb39vaePXvGcYFisbiwsLC8vDwzMzPWwSD66TEZvy9iEo1giZaL5p86N4w7dV29evWjjz569OjR+vr6zs7O+vr67Owsz09g0tGugLt37967d6/dbpdKpeXl5aWlJU7iMo05RDw4OPjpp5/u3bv36NEj13VnZmY++eQTnsCgPVpMjq7rVqvVixcv3rhxo9vtbm5u3r9/n0tEyuWyEIJDR8zgNjY27t27t76+3u125+bmVldXL168yA5b7M9OgmEMiyZ5Fm8DpmuUw5Pz8/MXL17k7X727Nn333/PGX3MZRAxiqL9/f0nT57cuXPn0aNHvu9PT09fuXLlypUr09PTvN3mLfb29r777ru7d+8+efLEcZyZmZlPP/20VCpp+QcATEJchRaGIXOrhw8fFgqFTCbDfnvNKZjk9vb27t+/z3phqVSan5+/devWpUuXpqenzUbnpr8OJpLyzYL66ybx/7V3rU9pnF382eWyLGgiF7mLCxKV6CqYpGmm/3y/t9OoYGgCVowKoV64SECwsu+H3+yZw66xfadV25HzwWFg9+Fxn8O5n99hA4gMVjttGAZMbfiIvONCMvsgaU4IZcdxMTeeQIPBoNFolMvlX3755ezsTJKkdDq9tbW1tLQUj8c9Hg9Fy2AaJpNJXdcvLy9//fVXBO0ODw/T6TQG0csmrmyr1drf369Wq2dnZwjXpdNpVDg+QMckMq9Py5sksoSD6PyAgSJJkqqqmUzm3bt3Lper1+udn5//9NNPsL7n5ubgKV5dXR0dHZXLZeR1EDHHUCHINYtm6na7+/v7pVIJfiHUXi6Xg7vA8ZlcLtfs7Ozi4iLYaDQanZ+fF4tFVEnE43HkrtE8UCwWy+Vyq9UKh8Orq6u6rmcyGTSbC2brGZM1vfSPTyNjj0V0NB6Px+/3p9PpQqEAVdTpdHZ3d1GoBVg4WZa/fv16cHCwu7tbrVbb7bbf719eXl5ZWUmlUpYmXYRzT09P9/b2dnZ2Pn/+7HK5kK7WdR2hKol1AgA0SgjR6/Vqtdr79+9vbm663e78/DxQMhD4wg+hXC6XSqVGoyHLcjQazefzuq5HIhFVVSkjJX2jiWVKD0Zc+OBnbnEl0erW6XRarRaqTDudDgaltVotzNO+uLioVquGYcCaR60WIvy8JxuKpNfrNRqNSqWyvb3dbDYRzwiFQsFgMBQKoamXRJDD4YhGo7quDwaDm5ub4+Pj09PTjx8/BgKB4XAYDocVRRmNRq1Wq1ar7e7ufvjw4erqKhKJ5PP5jY2NWCxGE2nEvRlh9AyfkDcpmLtmeZ9+0sDcAYBhKpVyu93j8fj3339vNBo//vhjq9U6PT3NZDKxWAwpyWKxuL29XalUrq+vV1dXv//++1evXi0tLSFRNDbbt/EX0SpYRuDCZDLZbrcxhpfCvxAxqqouLi6Ox2N0Qx4cHFQqFVVVh8NhNpudn593OBxnZ2elUml3d7dYLDqdzpWVlTdv3hQKBU3TvmVqSZM11pYXU3owGrMpDYqiBAKBFy9egN/a7faXL19KpRIsm4uLi2AwKIRot9vlcnlnZ+e33367vr5OpVKFQuHly5fJZNLn8xFiNWzw4XDYbDY/fvxYLpebzabL5To/P89kMp1OBxXUQEN0u90zMzNo00biE4u3Wq1Go5FKpcLhMDKm3W63Xq9XKpVPnz5Vq9WrqysUHL57907X9WAwKMvyaDSixBX/+9gP+8mR5bEbZnu+bI5sE0IgMFCr1SqVyvHxMWoA+/3+yclJo9G4vLx0OByHh4dCCAQ2FEVB0cbLly9jsRhFGiRzlBus9sPDw4ODg3q9LoTweDwrKytok6NdGSY0SigUgikP0/Dw8LBUKqGiFRJsMBgcHR19+PDh/fv34OFsNvvDDz9sbW3FYjEC07hvBntaQVeiOx6rbE6XlCQJfLC5uTkajYrFYqVSubi4+Pnnnz9//hwIBAzDGAwG9Xq90+kgq/T27dtCobCwsGBXUYbZ3O3z+QC1KjPwMMnsSCHEOzj7z58/T6VSr1+/VlV1Z2fn5ORkMBjs7e2dnJyoqup0OlGFOxgMUMS/tbWl6zo6SajSWtwWYeZG5VSQPQqRPwdbCogQsiyjXvrTp0/1er3f7xeLxVqtpiiKYRjD4bDb7Y5GI03TAoHAq1ev8vn84uIijbuiY0VphqIoXq8XqleSJK/Xi3WE6fBhAy6XKx6PFwoFwzD8fn+32zUMo9lsDgaDWq02MzMDs304HLbb7Waz2ev1wuGw3+9PJBJra2vLy8uRSMSSJbJksKYM9vDEM8SCAQ6QS2ewvn4C3Jck6dmzZwsLC9FoFPlsan5Djwch5ownx4OA5dCrRm/yyVxikg0kSVIUxe/3Z7NZVJbNzMz0er0vX76MRqNqtep2u1Hk32q1bm5ukP/O5/O5XC4Wi8EutDs89/QkHQ7H01KTJB1uJcLfEULgyDc3N5PJZDKZ9Pv95XK5WCxC4WEplOGsr69vbm5ubGxomoYZCxTrwFKwtjweTyKRSCQSR0dHo9EIUBQoX0Ri4Pr6moYzCCFUVY1EIn6/H5lt5JmgrQeDgdPpVFUVLXdv377VdX1jYwOxrz9FPKf3KccwFWQPTJTepp42VVXdbnc+n0eCeXt7e39/f29vr91u9/v98Xjs8Xji8fjS0lIul8vlcsvLywi/8/ShMOOoTqczGAymUik4Cij2Qc8G+pqgWfHtqVQqEAhomra+vo68Y71eL5fL/X4fOQiSgA6HIxaL6bq+urqqaVoikYhGoySzCHVWMlE1plU8j0WWEJFktsmSDgOfqKrq9/uvr68VRQHcWDQaFeYMItkcTony+3A4PDs7KyZbBoQQcFJ9Pl8gEAgGg8+fP4czGggE5ufnYcZZdCT4X1GURCLh8/kw4rRYLO7v729vb19eXg4GA8MwXC5XKBTKZDJra2uFQuHFixexWAwwnOKhmApbfVpq8m6yqBZJkmZmZtxut67rqqqm0+nj42MUgyFu4PP5QqFQNptNp9PJZBKZZ54PECzxGQwG19fXEbv4448/FEVBCQ+sLYt/KUydDT26trbm9Xrj8Xi9XodLASACn88XjUaXlpY0TYPAsviOf+Vf/qef4pT+Eln4BLKGSroQ0gQiDwaDo/B1YWFB0zQKh1Ljv2BhA8jEcDj83XffBQKBzc1Nj8cTi8Wy2Sy6MzmGosOciiPLstfrDYfDmUzm9PQU6hkFHVTNAbG1uLiYTCYjkQhmb5H8ddimRlDb2WM95CdOEitK4CYLAhjPnj27ublxuVzRaBSgTgRDyHUkvEygKs7NzaE4gzsD8CxVVV1YWHjz5o3X6wWEmaZpuVyOgquciDfA8+l02ul0BgKBbDZ7cXFBzXKouIYrqWlaKBRCAT+12EmTsHz39xhvmZ85JTE5SAhdGSgDk0zAMByV0+lEKNXSnGQwdHLwJRiu3++j20wIMTs7Ozc3R8U740ngOtoDutxGoxHMPV7vgxmEqqpSFTX/xod9YFP6vwm1NhQIJQ8MoQWCDQMkOiQaym2oo1Ewv8HSzYb4GNZBNgHJSG7JUdTBMBvDEXzjCFPC1mYumSNRLXgXFseRGkPvG1FsSn9KyE1SCavDhNsEiKs0CaMqGJAh3UhTJ2WTLMFb3Iv4LUQlMt+8AUkyy2shAGkpxNuozpajsjgcDjLRZIYBa7Bx9PL94z1N1eTtRKKBwmKCCQIu4CidaRETFskisWZHfAQj3bChWvBuS346uJHUJOpyhclMFMcTthz+lP6dZAle8RPnpjqvUeRdtsIGRS0mG+bohTFZuSZPYqxw/rRzrMGI9ixJEtieX0/r8ytpw//845vSN8giecRtyCqSWbTINZb9HLnGkmwNlBaPExqLdKEQgldp8BX4mhIrKKUr7UFjy2+B72GqJh+ZYODAEqfjxEf8udnNbQvDcaIbcepgMhhrWAQKmMOJWW4k1ucYGdSTK00Lc/6DRCKAq0k6YrKm+S32I+ZSzyINCaDHYc6dN0yoa67JuOGPNS2a2ML2vAnE/r74BvbTlO6VSA9ZVMjYBlsvmC6UzLC5ZTWKKMDnIwbjLZWw19HCxH0G8Q1vgctAvLhDuopJW420I7/xvmmam7yLyAIijHJyIunULaKNG1xcVNFlIM6dfIT9HVYLmVR0DbbEHYIHMKym9PeJBJlFMJGw4FID54vYO118qzUmMWApizwixuAXGIZBZf38q0lJc6a1fN14EjgbZHFbpzryUchu5ViUkJg83Ft1kn0prke5aUWyi5JBd3ypmOQK2UTnsXxEivbWnYCHHzJyNlWTdxHJHUgow0zhSAxxH2yB06LRWsKsweFWFbECdx0QXr9VMAmbB4kNjM1R8mS78Q0/zJOZ0t8h2OCWgKRFUUlmJRd8So6YT84iv1HYvAcxibFuF1t34JjwwAZ9C09KcZeF7kJ0hC6e6shHIYk15HA7xqJ+SJJINmueKy3LmpZCesmEjcVlPKAqGDOPzVnNBptOQ7fzuyw5BZKHljgH57SpmnxMohMV7Ly5PcV5BbfIkyCxYjLZQwKFFjHMeUl0GTmIYnJEJa1JyXbOH/Zw/1Q8/ZtJstWFittGAHKNSEXwFgEkJi1xMRlzs7MoD9STWr3V/JfYtFT+jWQX2kMX0jSe8e8grg65CKKPLKLGcnCSzaKia0g02XkMZGcAUtWWSAZfmYo/qPJLNnFluafBt/eQdtj/ACrQg6sXIX74AAAAAElFTkSuQmCC;" vertex="1" parent="1">
          <mxGeometry x="240" y="1100" width="250.68" height="120" as="geometry" />
        </mxCell>
        <mxCell id="Wc0Y2Pf6DfmbAU4G7aRj-18" value="$$x \in (0,1)$$" style="text;html=1;align=center;verticalAlign=middle;resizable=0;points=[];autosize=1;strokeColor=none;fillColor=none;" vertex="1" parent="1">
          <mxGeometry x="-120" y="1515" width="100" height="30" as="geometry" />
        </mxCell>
        <mxCell id="Wc0Y2Pf6DfmbAU4G7aRj-19" value="$$z \in (0,0.4)$$" style="text;html=1;align=center;verticalAlign=middle;resizable=0;points=[];autosize=1;strokeColor=none;fillColor=none;" vertex="1" parent="1">
          <mxGeometry x="-25" y="1450" width="110" height="30" as="geometry" />
        </mxCell>
        <mxCell id="Wc0Y2Pf6DfmbAU4G7aRj-20" value="$$ (0,1) \ni t$$" style="text;html=1;align=center;verticalAlign=middle;resizable=0;points=[];autosize=1;strokeColor=none;fillColor=none;" vertex="1" parent="1">
          <mxGeometry x="-210" y="1485" width="100" height="30" as="geometry" />
        </mxCell>
        <mxCell id="Wc0Y2Pf6DfmbAU4G7aRj-21" value="" style="endArrow=classic;html=1;rounded=0;strokeWidth=4;startSize=13;endSize=6;jumpSize=11;" edge="1" parent="1">
          <mxGeometry width="50" height="50" relative="1" as="geometry">
            <mxPoint x="-50" y="1485" as="sourcePoint" />
            <mxPoint x="30" y="1535" as="targetPoint" />
          </mxGeometry>
        </mxCell>
        <mxCell id="Wc0Y2Pf6DfmbAU4G7aRj-22" value="$$(0.5,0.2,0.25)$$" style="text;html=1;align=center;verticalAlign=middle;resizable=0;points=[];autosize=1;strokeColor=none;fillColor=none;" vertex="1" parent="1">
          <mxGeometry x="15" y="1530" width="120" height="30" as="geometry" />
        </mxCell>
        <mxCell id="Wc0Y2Pf6DfmbAU4G7aRj-24" value="&lt;font style=&quot;font-size: 21px;&quot;&gt;$$(x,z,t)$$&lt;/font&gt;" style="text;html=1;align=center;verticalAlign=middle;resizable=0;points=[];autosize=1;strokeColor=none;fillColor=none;" vertex="1" parent="1">
          <mxGeometry x="15" y="1555" width="120" height="40" as="geometry" />
        </mxCell>
        <mxCell id="Wc0Y2Pf6DfmbAU4G7aRj-25" value="&lt;font style=&quot;font-size: 28px;&quot; color=&quot;#ff0000&quot;&gt;&lt;b&gt;计算区域&lt;/b&gt;&lt;/font&gt;" style="text;html=1;strokeColor=none;fillColor=none;align=center;verticalAlign=middle;whiteSpace=wrap;rounded=0;fontSize=21;" vertex="1" parent="1">
          <mxGeometry x="-145" y="1390" width="125" height="30" as="geometry" />
        </mxCell>
        <mxCell id="Wc0Y2Pf6DfmbAU4G7aRj-26" value="&lt;font color=&quot;#009900&quot; style=&quot;font-size: 28px;&quot;&gt;&lt;b style=&quot;&quot;&gt;预测声场&lt;/b&gt;&lt;/font&gt;" style="text;html=1;strokeColor=none;fillColor=none;align=center;verticalAlign=middle;whiteSpace=wrap;rounded=0;fontSize=21;" vertex="1" parent="1">
          <mxGeometry x="312.5" y="1230" width="125" height="30" as="geometry" />
        </mxCell>
        <mxCell id="Wc0Y2Pf6DfmbAU4G7aRj-27" value="&lt;font size=&quot;1&quot; style=&quot;&quot; color=&quot;#ff0000&quot;&gt;&lt;span style=&quot;font-size: 19px;&quot;&gt;计算点&lt;/span&gt;&lt;/font&gt;" style="text;html=1;strokeColor=none;fillColor=none;align=center;verticalAlign=middle;whiteSpace=wrap;rounded=0;fontSize=21;" vertex="1" parent="1">
          <mxGeometry x="12.5" y="1500" width="125" height="30" as="geometry" />
        </mxCell>
        <mxCell id="Wc0Y2Pf6DfmbAU4G7aRj-29" value="$$u(0.5,0.2,0.25)$$" style="text;html=1;align=center;verticalAlign=middle;resizable=0;points=[];autosize=1;strokeColor=none;fillColor=none;" vertex="1" parent="1">
          <mxGeometry x="307.5" y="1350" width="130" height="30" as="geometry" />
        </mxCell>
        <mxCell id="Wc0Y2Pf6DfmbAU4G7aRj-30" value="&lt;font color=&quot;#009900&quot; style=&quot;font-size: 19px;&quot;&gt;预测解&lt;/font&gt;" style="text;html=1;strokeColor=none;fillColor=none;align=center;verticalAlign=middle;whiteSpace=wrap;rounded=0;fontSize=21;" vertex="1" parent="1">
          <mxGeometry x="220" y="1350" width="125" height="30" as="geometry" />
        </mxCell>
        <mxCell id="Wc0Y2Pf6DfmbAU4G7aRj-31" value="" style="endArrow=classic;html=1;rounded=0;jumpSize=11;endSize=6;startSize=13;strokeWidth=4;" edge="1" parent="1">
          <mxGeometry x="1" y="-130" width="50" height="50" relative="1" as="geometry">
            <mxPoint x="372.2099999999999" y="1340" as="sourcePoint" />
            <mxPoint x="372.21000000000004" y="1280" as="targetPoint" />
            <mxPoint as="offset" />
          </mxGeometry>
        </mxCell>
      </root>
    </mxGraphModel>
  </diagram>
</mxfile>
